<svg xmlns="http://www.w3.org/2000/svg" viewBox="0 0 213.49312 52.17775" height="55.656" width="227.726"><defs><clipPath id="b"><path d="M0 0h841.89v595.276H0V0z"/></clipPath><clipPath id="a"><path d="M99.713 240.803H200.06v44.788H99.712v-44.787z"/></clipPath></defs><g clip-path="url(#a)" transform="matrix(1.25 0 0 -1.25 -126.75 355.742)"><path d="M125.938 269.595c0 1.302-.024 1.54-1.574 1.763v.178h4.072v-.178c-1.42-.19-1.457-.544-1.457-1.763v-4.237c.012-2.296-.26-2.805-2.83-3.905l-.094.2c1.74.818 1.882 2.095 1.882 4.225v3.717zM130.416 266.862c-.2-.592-.724-1.824-.724-2.39 0-.723.818-.723 1.35-.806v-.177H127.8v.176c1.054.284 1.16.52 1.526 1.445l1.337 3.492.71 1.93c.107.307.26.59.13.815.32.13.616.343.865.64l2.604-6.936c.32-.863.52-1.206 1.467-1.384v-.177h-3.48v.176c.414.095.912.226.912.757 0 .498-.45 1.61-.758 2.44h-2.698zm1.313 3.62l-1.114-3.075h2.344l-1.23 3.076zM142.167 265.216l2.142 4.71c.295.65.46 1.243.2 1.42l.025.19h2.6v-.178c-.755-.154-1.216-.438-1.17-1.266l.26-4.308c.13-1.645.13-1.906 1.397-2.12v-.176h-3.892v.177c.91.143 1.49.25 1.43 1.29l-.32 5.172h-.022l-3.017-6.64h-.13l-2.804 6.368h-.023a75.99 75.99 0 0 1-.368-4.957c-.023-.462-.012-.996 1.42-1.233v-.177h-3.3v.177c1.053.178 1.158.687 1.325 1.645l.437 3.326.154 1.61c.073.78-.602 1.053-1.3 1.112v.178h2.556l.01-.13c-.26-.272.06-.983.143-1.172l2.247-5.018zM148.11 263.665c1.42.19 1.432.545 1.466 1.764v4.165c-.034 1.22-.045 1.574-1.466 1.763v.178h6.355l-.143-1.822h-.176c-.084 1.526-1.185 1.538-2.38 1.538h-1.147v-3.373h1.23c.886 0 1.56.07 1.69 1.087h.18v-2.638h-.18c-.153 1.04-.804 1.053-1.69 1.053h-1.23v-1.942c0-.696-.167-1.667 1.774-1.667 1.49 0 2.224.566 2.52 2.06h.177a7.458 7.458 0 0 0-.4-2.345h-6.58v.177zM160.513 269.453h-.19c-.188.96-.496 1.882-1.667 1.882-.76 0-1.385-.52-1.385-1.302 0-2.047 3.728-1.976 3.728-4.367 0-1.526-1.515-2.32-2.875-2.32-.723 0-1.48.213-2.082.604l-.344 2.012h.213c.294-1.137 1.088-2.26 2.39-2.26.874 0 1.563.52 1.563 1.443 0 2.106-3.62 1.917-3.62 4.284 0 1.384 1.37 2.26 2.636 2.26.603 0 1.207-.178 1.728-.46l-.095-1.777zM170.988 269.098h-.178c-.225 1.338-1.007 2.295-2.426 2.295-2.166 0-3.386-1.774-3.386-3.81 0-2.332 1.787-3.952 3.505-3.952 1.548 0 2.164 1.136 2.697 2.414l.167-.07a11.364 11.364 0 0 0-.652-2.12c-.757-.366-1.574-.508-2.415-.508-2.474 0-4.675 1.42-4.675 4.095 0 2.108 1.646 4.238 4.77 4.238.9 0 1.81-.178 2.593-.64v-1.94zM180.647 267.512c0-2.545-1.846-4.165-4.332-4.165-2.496 0-4.332 1.62-4.332 4.176 0 2.522 1.847 4.156 4.32 4.156 3.03 0 4.344-2.06 4.344-4.168m-7.29.296c0-1.834.97-4.177 3.1-4.177 1.952 0 2.818 1.99 2.818 3.68-.036 2.097-1.255 4.084-3.066 4.084-2.037 0-2.853-1.987-2.853-3.586M190.15 267.512c0-2.545-1.845-4.165-4.33-4.165-2.497 0-4.33 1.62-4.33 4.176 0 2.522 1.846 4.156 4.32 4.156 3.03 0 4.342-2.06 4.342-4.168m-7.29.296c0-1.834.97-4.177 3.1-4.177 1.954 0 2.818 1.99 2.818 3.68-.036 2.097-1.255 4.084-3.066 4.084-2.034 0-2.852-1.987-2.852-3.586M192.878 265.43c.035-1.22.047-1.575 1.574-1.765v-.177h-4.084v.177c1.42.19 1.433.545 1.468 1.764v4.165c-.035 1.22-.047 1.574-1.468 1.763v.178h3.763v-.178c-1.205-.19-1.217-.544-1.252-1.763v-4.166zm5.35 6.106v-.178c-1.35-.142-2.25-1.29-3.125-2.2l-1.113-1.185 2.403-2.65c.722-.793 1.575-1.503 2.627-1.8l-.06-.177c-2.058.166-2.39.225-3.503 1.444l-2.414 2.628 1.906 2.07c1.24 1.396 1.004 1.788.21 1.87v.178h3.067zM133.607 260.428v-.177c-1.077-.117-1.148-.78-1.195-2.343l-.072-2.59c-.034-1.53-.686-3.078-3.313-3.078-3.668 0-3.29 2.65-3.29 3.596v2.65c-.036 1.22-.048 1.575-1.468 1.765v.178h4.083v-.177c-1.55-.224-1.574-.46-1.574-1.763v-2.426c0-.224-.38-3.278 2.862-3.278 2.557 0 2.308 2.438 2.308 3.883v1.242c0 1.503-.118 2.19-1.775 2.344v.178h3.432zM141.842 254.24l-.06 4.32c-.01 1.123-.318 1.455-1.656 1.692v.177h3.23v-.178c-.817-.107-.97-.557-1.064-1.327-.166-1.3-.107-4.154-.048-6.734l-.153-.035c-1.893 2.237-4 4.31-6 6.464v-2.18c0-2.935-.07-3.538 1.646-3.88v-.18h-3.538v.18c1.597.163 1.537 1.254 1.537 3.94v1.774c0 1.184-.19 1.646-1.69 1.978v.177h1.95l5.847-6.19zM146.37 254.32c.035-1.217.05-1.573 1.468-1.762v-.178h-3.976v.178c1.42.19 1.432.545 1.467 1.763v4.167c-.036 1.22-.05 1.574-1.468 1.765v.177h3.976v-.178c-1.42-.19-1.433-.544-1.468-1.765v-4.166zM156.986 260.428v-.177c-1.113-.094-1.456-1.03-2.19-2.745l-2.26-5.397h-.166l-2.674 6.402c-.356.866-.628 1.623-1.68 1.74v.178h3.75v-.177c-1.668-.165-1.124-1.112-.816-1.858l1.893-4.568 1.398 3.35c1.017 2.426 1.207 2.816-.592 3.077v.178h3.338zM157.092 252.56c1.422.187 1.433.543 1.468 1.76v4.168c-.035 1.22-.046 1.574-1.468 1.764v.177h6.356l-.142-1.824h-.177c-.085 1.528-1.186 1.54-2.38 1.54H159.6v-3.374h1.23c.887 0 1.563.07 1.693 1.09h.178v-2.64h-.178c-.154 1.04-.806 1.052-1.692 1.052h-1.23v-1.94c0-.698-.167-1.67 1.775-1.67 1.49 0 2.224.57 2.52 2.06h.177a7.44 7.44 0 0 0-.402-2.344h-6.58v.18zM166.003 257.99c0 1.812-.06 2.083-1.385 2.202v.165l2.888.095c2.982.095 3.22-1.36 3.22-1.93 0-.993-.616-1.56-1.468-1.94l.06-.083c.91-1.598 2.046-3.634 4-4.038l-.037-.176c-1.253.06-2.176.023-2.862.733-.782.816-1.397 1.857-1.645 2.368-.474.98-.9.696-1.728.84v-1.907c0-1.3.022-1.537 1.644-1.76v-.18h-4.154v.18c1.42.187 1.43.543 1.467 1.76v3.67zm1.042-1.562c1.136.01 2.462.533 2.462 1.846 0 1.386-1.22 1.942-2.462 1.93v-3.776zM177.796 258.345h-.19c-.188.96-.497 1.883-1.667 1.883-.76 0-1.385-.52-1.385-1.303 0-2.047 3.726-1.976 3.726-4.368 0-1.525-1.514-2.318-2.874-2.318-.722 0-1.48.21-2.084.603l-.342 2.01h.212c.297-1.136 1.09-2.26 2.392-2.26.875 0 1.56.52 1.56 1.443 0 2.107-3.62 1.918-3.62 4.286 0 1.385 1.372 2.26 2.638 2.26.604 0 1.208-.177 1.73-.462l-.096-1.775zM181.257 254.32c.035-1.217.048-1.573 1.468-1.762v-.178h-3.978v.178c1.422.19 1.433.545 1.47 1.763v4.167c-.037 1.22-.048 1.574-1.47 1.765v.177h3.978v-.178c-1.42-.19-1.433-.544-1.468-1.765v-4.166zM190.54 260.795h.094l.166-2.213-.166-.036c-.414 1.47-1.064 1.527-2.425 1.527h-.713v-5.468c0-1.466.072-1.858 1.658-2.046v-.18H184.8v.18c1.585.187 1.656.58 1.656 2.045v5.468h-.71c-1.36 0-2.012-.058-2.427-1.527l-.165.036.164 2.213h.095l.118-.106c.296-.274.344-.262.734-.262h5.42c.39 0 .438-.012.735.26l.118.107zM198.614 260.428v-.177c-1.03-.082-1.538-.65-2.036-1.503l-1.396-2.768v-1.34c.024-1.36.047-1.846 1.562-2.082v-.18h-4.167v.18c1.516.236 1.54.722 1.563 2.08v.95l-1.23 2.686c-.45.994-.77 1.835-1.966 1.977v.178h3.267v-.177c-.97-.13-.84-.52-.46-1.35l1.183-2.555 1.03 1.953c.733 1.373.64 1.822-.39 1.953v.178h3.04zM125.687 250.045h72.178v-.24h-72.178v.24zM126.907 247.352h.715l1.936-4.43h-.816l-.446 1.06h-2.08l-.453-1.06h-.792l1.937 4.43zm1.105-2.684l-.76 1.76-.753-1.76h1.512zM130.213 244.79v2.53h.773v-2.5c0-.817.42-1.258 1.112-1.258.685 0 1.106.415 1.106 1.227v2.53h.773v-2.493c0-1.315-.742-1.975-1.892-1.975-1.143 0-1.872.66-1.872 1.937M134.87 243.562l.466.553c.42-.363.842-.57 1.388-.57.477 0 .778.22.778.552v.013c0 .313-.174.484-.992.67-.936.228-1.464.505-1.464 1.315v.013c0 .754.63 1.275 1.502 1.275.64 0 1.15-.195 1.596-.553l-.414-.584c-.396.295-.792.452-1.195.452-.452 0-.716-.232-.716-.522v-.01c0-.34.2-.492 1.04-.693.933-.227 1.416-.56 1.416-1.288v-.014c0-.822-.648-1.31-1.57-1.31-.673 0-1.308.232-1.836.702M140.3 246.604h-1.396v.716h3.57v-.716h-1.395v-3.683h-.78v3.684zM143.417 247.32h1.96c.553 0 .987-.164 1.27-.44a1.33 1.33 0 0 0 .364-.948v-.013c0-.723-.432-1.158-1.048-1.335l1.188-1.665h-.912l-1.08 1.534h-.97v-1.534h-.77v4.4zm1.903-2.182c.554 0 .905.29.905.737v.012c0 .472-.34.73-.91.73h-1.127v-1.48h1.132zM149.644 247.352h.716l1.936-4.43h-.816l-.447 1.06h-2.08l-.452-1.06h-.79l1.934 4.43zm1.106-2.684l-.76 1.76-.754-1.76h1.514zM153.176 247.32h.774v-3.695h2.313v-.705h-3.087v4.4zM157.237 247.32h.773v-4.4h-.773v4.4zM160.87 247.352h.715l1.936-4.43h-.815l-.447 1.06h-2.08l-.452-1.06h-.792l1.935 4.43zm1.105-2.684l-.76 1.76-.754-1.76h1.515zM118.222 264.797c-.59-.34-1.43-.552-2.365-.552-.937 0-1.777.212-2.367.55-.588.34-1.43.553-2.365.553-.935 0-1.778-.212-2.366-.552-.59-.34-1.432-.55-2.368-.55-.934 0-1.776.21-2.364.55-.59.34-1.432.552-2.368.552-.087 0-.173-.003-.26-.007v-2.19c0-.33.01-.65.03-.963.076.003.153.007.23.007.937 0 1.778-.213 2.368-.553.587-.338 1.43-.55 2.363-.55.938 0 1.78.212 2.37.55.587.34 1.43.554 2.365.554.934 0 1.777-.213 2.365-.553.59-.338 1.43-.55 2.367-.55.934 0 1.776.212 2.365.55.59.34 1.43.554 2.365.554.078 0 .154-.004.23-.007.02.314.032.633.032.964v2.19a5.578 5.578 0 0 1-.263.008c-.935 0-1.777-.212-2.366-.55M115.856 257.935c-.936 0-1.778.212-2.366.55-.59.34-1.432.554-2.366.554-.934 0-1.777-.214-2.366-.554-.59-.34-1.43-.55-2.366-.55-.935-.002-1.777.21-2.365.55-.524.302-1.247.503-2.057.543a11.608 11.608 0 0 1 1.752-3.548 3.33 3.33 0 0 0 .305-.15c.588-.34 1.43-.553 2.365-.553.935 0 1.777.212 2.366.55.59.34 1.432.554 2.366.554.934 0 1.777-.212 2.366-.553.588-.338 1.43-.55 2.366-.55.935 0 1.776.212 2.365.55.096.057.2.105.307.153.724.993 1.336 2.16 1.75 3.546-.81-.04-1.533-.242-2.056-.544-.588-.34-1.43-.55-2.364-.55M113.49 252.176c-.59.34-1.43.552-2.365.552-.935 0-1.778-.213-2.366-.552a3.91 3.91 0 0 0-1.01-.39c1.357-.908 2.61-1.575 3.375-2.213.763.638 2.017 1.305 3.374 2.212a3.91 3.91 0 0 0-1.01.39M118.222 271.108c-.59-.34-1.43-.553-2.365-.553-.937 0-1.777.213-2.367.553-.588.338-1.43.55-2.365.55-.935 0-1.778-.213-2.366-.55-.59-.34-1.432-.553-2.368-.553-.934 0-1.776.213-2.364.553-.59.338-1.432.55-2.368.55-.087 0-.173-.003-.26-.007v-3.153c.086.003.172.006.26.006.937 0 1.778-.21 2.368-.55.587-.34 1.43-.553 2.363-.553.938 0 1.78.212 2.37.552.587.34 1.43.55 2.365.55.934 0 1.777-.21 2.365-.55.59-.34 1.43-.552 2.367-.552.934 0 1.776.212 2.365.552.59.34 1.43.55 2.365.55.09 0 .175-.003.26-.006l.002 3.156a5.578 5.578 0 0 1-.263.007c-.935-.002-1.777-.215-2.366-.553M111.125 277.587a3.188 3.188 0 0 1-3.188-3.188c0-.16.016-.315.038-.467.293.088.557.2.784.33.587.338 1.43.55 2.365.55.934 0 1.776-.212 2.365-.55.227-.13.492-.242.785-.33.022.152.038.307.038.466a3.188 3.188 0 0 1-3.188 3.187m-4.345-.936c-.063-.01-.127-.026-.19-.038a2.33 2.33 0 0 0-.49-.027c-.166.006-.36.045-.47.117-.03-.166.176-.385.35-.503.12-.082.245-.152.378-.196.052-.02.104-.028.156-.047.16-.056.316-.158.44-.268.16-.143.295-.324.418-.483.1.465.286.9.54 1.288-.17.06-.35.125-.55.156-.175.028-.383.032-.582 0m11.627-2.252l-3.5.628a3.71 3.71 0 0 0 .057-.627 3.71 3.71 0 0 0-.057-.628l3.5.626zm-11.068.628l-3.5-.628 3.5-.626a4.05 4.05 0 0 0-.055.627c0 .212.024.422.054.626m8.45.853c.038.052.07.11.108.16.097.142.208.257.324.366.122.113.29.224.418.252-.098.134-.4.147-.605.106a1.58 1.58 0 0 1-.405-.128c-.05-.025-.094-.056-.144-.08a1.385 1.385 0 0 0-.502-.12c-.212-.014-.435.02-.635.046h-.005c.253-.39.437-.823.536-1.292.163.077.334.16.497.277.143.105.293.25.412.412m-6.85 1.673l-2.2 1.232 1.228-2.202c.266.38.593.71.973.97m5.34-.97l1.23 2.202-2.2-1.232c.378-.26.707-.59.97-.97m-2.51 1.597l-.645 6.414-.646-6.414c.21.034.424.058.645.058.22 0 .434-.024.646-.058m-2.882.724c.024-.05.055-.094.078-.144a1.39 1.39 0 0 0 .122-.5c.013-.215-.02-.437-.046-.636v-.004a3.82 3.82 0 0 0 1.29.536 2.834 2.834 0 0 1-.276.496c-.105.144-.25.293-.41.41-.054.04-.11.072-.164.11-.14.098-.255.208-.366.324-.112.123-.223.29-.25.42-.136-.1-.146-.4-.106-.607.028-.144.065-.278.128-.406m4.49-.744c.026.176.03.385 0 .585-.01.063-.03.126-.04.19-.03.17-.034.327-.03.49.008.164.045.36.12.47-.166.027-.385-.177-.503-.35a1.57 1.57 0 0 1-.196-.38c-.02-.05-.03-.105-.047-.155a1.423 1.423 0 0 0-.268-.442 3.41 3.41 0 0 0-.484-.415c.468-.102.903-.287 1.29-.54.06.17.124.35.157.547" fill="#231f20"/></g><g clip-path="url(#b)" transform="matrix(1.25 0 0 -1.25 -126.75 355.742)"><path d="M249.196 246.195h.468v3.765h1.176l.14.39H248v-.39h1.196v-3.765zm2.808-.063c.84 0 1.384.687 1.384 1.558 0 .876-.55 1.564-1.378 1.564-.847 0-1.384-.688-1.384-1.564 0-.87.544-1.558 1.378-1.558m0 .397c-.55 0-.898.48-.898 1.16 0 .687.348 1.166.904 1.166.544 0 .892-.48.892-1.166 0-.68-.348-1.16-.898-1.16m2.428-.354h.41l.715 2.39h.013l.708-2.39h.405l.992 3.002h-.474l-.694-2.378h-.013l-.714 2.378h-.438l-.69-2.378h-.01l-.71 2.378h-.486l.986-3.002zm3.564.02h.467v2.194c.278.246.582.447.917.447.424 0 .537-.34.537-.788v-1.855h.462v2.012c0 .75-.418 1.047-.886 1.047-.386 0-.72-.183-1.05-.46l-.057.384h-.39v-2.983zm2.742.188c.19-.12.506-.252.898-.252.613 0 1.106.284 1.106.877 0 1.008-1.41.78-1.41 1.443 0 .32.29.416.576.416.29 0 .518-.077.72-.165v.41c-.195.076-.455.14-.74.14-.663 0-1.01-.367-1.01-.82 0-.99 1.397-.783 1.397-1.433 0-.34-.29-.48-.64-.48a1.36 1.36 0 0 0-.745.222l-.152-.36zm3.323-.208h.4l1.144 3.002h-.48l-.848-2.384h-.012l-.873 2.384h-.486l1.157-3.002zm1.893.02h.462v2.982h-.462v-2.983zm.227 3.657c.183 0 .316.132.316.31a.3.3 0 0 1-.316.314.303.303 0 0 1-.31-.315.3.3 0 0 1 .31-.31m.907-3.115c0-.36.183-.58.562-.58.138 0 .296.032.416.088l-.1.366a.59.59 0 0 0-.184-.043c-.158 0-.234.07-.234.315v3.778h-.46v-3.923zm1.286 0c0-.36.183-.58.563-.58.14 0 .297.032.417.088l-.1.366a.604.604 0 0 0-.185-.043c-.158 0-.234.07-.234.315v3.778h-.46v-3.923zm2.48-.605c.334 0 .694.095.953.265l-.152.328a1.503 1.503 0 0 0-.733-.202c-.637 0-.985.473-.998 1.085h1.94v.113c0 .94-.43 1.534-1.187 1.534-.727 0-1.227-.625-1.227-1.533 0-.87.462-1.588 1.404-1.588m-.923 1.835c.005.498.29.908.745.908.474 0 .695-.454.7-.908h-1.446zM248.21 255.977a1.93 1.93 0 0 1 1.094-.315c.796 0 1.334.416 1.334 1.11 0 1.292-1.834 1.192-1.834 2.13 0 .45.38.613.752.613.317 0 .633-.082.892-.227v.435c-.19.095-.525.19-.904.19-.778 0-1.227-.467-1.227-1.054 0-1.243 1.834-1.123 1.834-2.12 0-.492-.39-.675-.84-.675a1.66 1.66 0 0 0-.904.278l-.196-.366zm2.98-.252h.46v2.983h-.46v-2.983zm.227 3.658c.183 0 .316.132.316.31a.302.302 0 0 1-.316.314.304.304 0 0 1-.31-.315.3.3 0 0 1 .31-.31m.903-3.657h.468v2.194c.278.245.582.447.917.447.423 0 .537-.34.537-.788v-1.855h.46v2.012c0 .75-.416 1.046-.883 1.046-.387 0-.722-.182-1.05-.46l-.058.385h-.392v-2.983zm4.003-1.495c.89 0 1.44.372 1.44.933 0 1.11-1.972.587-1.972 1.18 0 .107.046.214.16.34a1.26 1.26 0 0 1 .39-.063c.69 0 1.158.435 1.158 1.08 0 .283-.113.566-.34.768.087.057.19.082.29.082a.757.757 0 0 0 .17-.02l.114.367a1.03 1.03 0 0 1-.183.02.83.83 0 0 1-.614-.247c-.02-.02-.032-.02-.064-.006a1.333 1.333 0 0 1-.562.113c-.645 0-1.1-.46-1.1-1.06 0-.403.183-.718.46-.9-.258-.235-.315-.45-.315-.588 0-.158.083-.297.215-.373-.38-.183-.556-.466-.556-.77 0-.542.518-.857 1.31-.857m.036.366c-.537 0-.916.208-.916.567 0 .29.26.46.41.562.55-.164 1.442-.07 1.442-.612 0-.284-.303-.517-.936-.517m-.012 2.41c-.424 0-.677.295-.677.705 0 .417.28.682.678.682s.676-.29.676-.687c0-.454-.29-.7-.676-.7m3.45-1.28h.41c-.038.15-.057.43-.057 1.015v1.028c0 .713-.44 1.015-1.06 1.015-.33 0-.702-.08-1.05-.302l.177-.327c.21.126.462.246.822.246.372 0 .644-.203.644-.657v-.19l-.57-.018c-.303-.013-.543-.044-.745-.145-.305-.14-.507-.41-.507-.808 0-.574.405-.92.948-.92.374 0 .665.176.9.397l.087-.335zm-.114 1.476v-.756c-.14-.145-.417-.39-.79-.39-.342 0-.557.226-.557.554 0 .195.09.365.26.46.132.07.303.107.562.114l.524.02zm1.09-2.97h.47v1.54c.144-.064.334-.108.523-.108.866 0 1.51.6 1.51 1.57 0 .984-.568 1.55-1.516 1.55a2.86 2.86 0 0 1-.985-.18v-4.372zm.47 1.955v2.125c.163.05.32.076.504.076.594 0 1.05-.353 1.05-1.14 0-.714-.367-1.187-1.043-1.187-.196 0-.342.043-.512.125m3.745-.523c.84 0 1.384.687 1.384 1.557 0 .876-.55 1.563-1.378 1.563-.847 0-1.385-.687-1.385-1.564 0-.87.543-1.558 1.378-1.558m0 .397c-.55 0-.898.478-.898 1.16 0 .687.347 1.166.904 1.166.544 0 .89-.48.89-1.167 0-.682-.346-1.16-.896-1.16m1.862-.335h.468v2.194c.29.296.506.428.72.428a.542.542 0 0 0 .26-.063l.164.423a.693.693 0 0 1-.322.075c-.26 0-.512-.094-.84-.454l-.058.378h-.392v-2.983zm3.02-.063a1.8 1.8 0 0 1 .956.265l-.152.327a1.513 1.513 0 0 0-.733-.2c-.637 0-.985.472-.998 1.083h1.94v.114c0 .94-.43 1.533-1.188 1.533-.726 0-1.226-.624-1.226-1.532 0-.87.462-1.588 1.403-1.588m-.92 1.835c.005.498.29.908.744.908.475 0 .696-.454.702-.908h-1.447zM251.238 265.854a2.07 2.07 0 0 0-.992-.26c-.95 0-1.537.708-1.537 1.723 0 .978.606 1.722 1.58 1.722.423 0 .733-.102 1.024-.26v.442c-.21.12-.588.22-1.03.22-1.233 0-2.068-.952-2.068-2.163 0-1.218.74-2.088 1.985-2.088.38 0 .772.082 1.164.29l-.126.372zm2.362-.6h.41c-.037.152-.056.43-.056 1.016v1.028c0 .713-.443 1.016-1.062 1.016-.33 0-.702-.082-1.05-.303l.177-.327c.208.126.46.246.82.246.374 0 .646-.203.646-.657v-.19l-.57-.018c-.302-.013-.543-.044-.745-.145-.302-.14-.505-.41-.505-.807 0-.574.405-.92.95-.92.372 0 .662.175.896.396l.09-.335zm-.114 1.477v-.756c-.14-.145-.417-.39-.79-.39-.342 0-.557.226-.557.554 0 .195.088.366.26.46.13.07.302.107.56.114l.526.02zm1.113-1.475h.46v2.983h-.46v-2.983zm.227 3.658c.183 0 .316.132.316.31a.302.302 0 0 1-.316.314.303.303 0 0 1-.31-.315c0-.177.126-.31.31-.31m.903-3.657h.468v2.195c.29.296.506.428.72.428a.542.542 0 0 0 .26-.063l.164.423a.696.696 0 0 1-.322.076c-.26 0-.512-.095-.84-.455l-.058.378h-.392v-2.983zm1.897 0h.468v2.195c.278.245.582.447.917.447.423 0 .537-.34.537-.788v-1.855h.46v2.012c0 .75-.417 1.047-.885 1.047-.385 0-.72-.183-1.05-.46l-.056.384h-.393v-2.983zm2.743.19c.19-.12.506-.253.898-.253.613 0 1.106.284 1.106.876 0 1.01-1.41.782-1.41 1.445 0 .32.29.416.576.416.29 0 .518-.077.72-.165v.41a2.1 2.1 0 0 1-.74.14c-.663 0-1.01-.367-1.01-.82 0-.99 1.396-.783 1.396-1.433 0-.34-.29-.48-.638-.48a1.36 1.36 0 0 0-.746.22l-.152-.358z" fill="#231f20"/></g><path d="M183.094 16.726h30.4v-.44h-30.4v.44zM183.094 52.16h30.4v-.44h-30.4v.44zM183.094 28.525h30.4v-.44h-30.4v.44zM183.094 40.414h30.4v-.44h-30.4v.44z" fill="#231f20"/></svg>