<svg xmlns="http://www.w3.org/2000/svg" viewBox="0 0 30.39876 35.873751" height="38.265" width="32.425"><defs><clipPath id="a"><path d="M0 0h841.89v595.276H0V0z"/></clipPath></defs><g fill="#fff"><g clip-path="url(#a)" transform="matrix(1.25 0 0 -1.25 -309.844 339.456)"><path d="M249.196 246.195h.468v3.765h1.176l.14.39H248v-.39h1.196v-3.765zm2.808-.063c.84 0 1.384.687 1.384 1.558 0 .876-.55 1.564-1.378 1.564-.847 0-1.384-.688-1.384-1.564 0-.87.544-1.558 1.378-1.558m0 .397c-.55 0-.898.48-.898 1.16 0 .687.348 1.166.904 1.166.544 0 .892-.48.892-1.166 0-.68-.348-1.16-.898-1.16m2.428-.354h.41l.715 2.39h.013l.708-2.39h.405l.992 3.002h-.474l-.694-2.378h-.013l-.714 2.378h-.438l-.69-2.378h-.01l-.71 2.378h-.486l.986-3.002zm3.564.02h.467v2.194c.278.246.582.447.917.447.424 0 .537-.34.537-.788v-1.855h.462v2.012c0 .75-.418 1.047-.886 1.047-.386 0-.72-.183-1.05-.46l-.057.384h-.39v-2.983zm2.742.188c.19-.12.506-.252.898-.252.613 0 1.106.284 1.106.877 0 1.008-1.41.78-1.41 1.443 0 .32.29.416.576.416.29 0 .518-.077.72-.165v.41c-.195.076-.455.14-.74.14-.663 0-1.01-.367-1.01-.82 0-.99 1.397-.783 1.397-1.433 0-.34-.29-.48-.64-.48a1.36 1.36 0 0 0-.745.222l-.152-.36zm3.323-.208h.4l1.144 3.002h-.48l-.848-2.384h-.012l-.873 2.384h-.486l1.157-3.002zm1.893.02h.462v2.982h-.462v-2.983zm.227 3.657c.183 0 .316.132.316.31a.3.3 0 0 1-.316.314.303.303 0 0 1-.31-.315.3.3 0 0 1 .31-.31m.907-3.115c0-.36.183-.58.562-.58.138 0 .296.032.416.088l-.1.366a.59.59 0 0 0-.184-.043c-.158 0-.234.07-.234.315v3.778h-.46v-3.923zm1.286 0c0-.36.183-.58.563-.58.14 0 .297.032.417.088l-.1.366a.604.604 0 0 0-.185-.043c-.158 0-.234.07-.234.315v3.778h-.46v-3.923zm2.48-.605c.334 0 .694.095.953.265l-.152.328a1.503 1.503 0 0 0-.733-.202c-.637 0-.985.473-.998 1.085h1.94v.113c0 .94-.43 1.534-1.187 1.534-.727 0-1.227-.625-1.227-1.533 0-.87.462-1.588 1.404-1.588m-.923 1.835c.005.498.29.908.745.908.474 0 .695-.454.7-.908h-1.446zM248.21 255.977a1.93 1.93 0 0 1 1.094-.315c.796 0 1.334.416 1.334 1.11 0 1.292-1.834 1.192-1.834 2.13 0 .45.38.613.752.613.317 0 .633-.082.892-.227v.435c-.19.095-.525.19-.904.19-.778 0-1.227-.467-1.227-1.054 0-1.243 1.834-1.123 1.834-2.12 0-.492-.39-.675-.84-.675a1.66 1.66 0 0 0-.904.278l-.196-.366zm2.98-.252h.46v2.983h-.46v-2.983zm.227 3.658c.183 0 .316.132.316.31a.302.302 0 0 1-.316.314.304.304 0 0 1-.31-.315.3.3 0 0 1 .31-.31m.903-3.657h.468v2.194c.278.245.582.447.917.447.423 0 .537-.34.537-.788v-1.855h.46v2.012c0 .75-.416 1.046-.883 1.046-.387 0-.722-.182-1.05-.46l-.058.385h-.392v-2.983zm4.003-1.495c.89 0 1.44.372 1.44.933 0 1.11-1.972.587-1.972 1.18 0 .107.046.214.16.34a1.26 1.26 0 0 1 .39-.063c.69 0 1.158.435 1.158 1.08 0 .283-.113.566-.34.768.087.057.19.082.29.082a.757.757 0 0 0 .17-.02l.114.367a1.03 1.03 0 0 1-.183.02.83.83 0 0 1-.614-.247c-.02-.02-.032-.02-.064-.006a1.333 1.333 0 0 1-.562.113c-.645 0-1.1-.46-1.1-1.06 0-.403.183-.718.46-.9-.258-.235-.315-.45-.315-.588 0-.158.083-.297.215-.373-.38-.183-.556-.466-.556-.77 0-.542.518-.857 1.31-.857m.036.366c-.537 0-.916.208-.916.567 0 .29.26.46.41.562.55-.164 1.442-.07 1.442-.612 0-.284-.303-.517-.936-.517m-.012 2.41c-.424 0-.677.295-.677.705 0 .417.28.682.678.682s.676-.29.676-.687c0-.454-.29-.7-.676-.7m3.45-1.28h.41c-.038.15-.057.43-.057 1.015v1.028c0 .713-.44 1.015-1.06 1.015-.33 0-.702-.08-1.05-.302l.177-.327c.21.126.462.246.822.246.372 0 .644-.203.644-.657v-.19l-.57-.018c-.303-.013-.543-.044-.745-.145-.305-.14-.507-.41-.507-.808 0-.574.405-.92.948-.92.374 0 .665.176.9.397l.087-.335zm-.114 1.476v-.756c-.14-.145-.417-.39-.79-.39-.342 0-.557.226-.557.554 0 .195.09.365.26.46.132.07.303.107.562.114l.524.02zm1.09-2.97h.47v1.54c.144-.064.334-.108.523-.108.866 0 1.51.6 1.51 1.57 0 .984-.568 1.55-1.516 1.55a2.86 2.86 0 0 1-.985-.18v-4.372zm.47 1.955v2.125c.163.05.32.076.504.076.594 0 1.05-.353 1.05-1.14 0-.714-.367-1.187-1.043-1.187-.196 0-.342.043-.512.125m3.745-.523c.84 0 1.384.687 1.384 1.557 0 .876-.55 1.563-1.378 1.563-.847 0-1.385-.687-1.385-1.564 0-.87.543-1.558 1.378-1.558m0 .397c-.55 0-.898.478-.898 1.16 0 .687.347 1.166.904 1.166.544 0 .89-.48.89-1.167 0-.682-.346-1.16-.896-1.16m1.862-.335h.468v2.194c.29.296.506.428.72.428a.542.542 0 0 0 .26-.063l.164.423a.693.693 0 0 1-.322.075c-.26 0-.512-.094-.84-.454l-.058.378h-.392v-2.983zm3.02-.063a1.8 1.8 0 0 1 .956.265l-.152.327a1.513 1.513 0 0 0-.733-.2c-.637 0-.985.472-.998 1.083h1.94v.114c0 .94-.43 1.533-1.188 1.533-.726 0-1.226-.624-1.226-1.532 0-.87.462-1.588 1.403-1.588m-.92 1.835c.005.498.29.908.744.908.475 0 .696-.454.702-.908h-1.447zM251.238 265.854a2.07 2.07 0 0 0-.992-.26c-.95 0-1.537.708-1.537 1.723 0 .978.606 1.722 1.58 1.722.423 0 .733-.102 1.024-.26v.442c-.21.12-.588.22-1.03.22-1.233 0-2.068-.952-2.068-2.163 0-1.218.74-2.088 1.985-2.088.38 0 .772.082 1.164.29l-.126.372zm2.362-.6h.41c-.037.152-.056.43-.056 1.016v1.028c0 .713-.443 1.016-1.062 1.016-.33 0-.702-.082-1.05-.303l.177-.327c.208.126.46.246.82.246.374 0 .646-.203.646-.657v-.19l-.57-.018c-.302-.013-.543-.044-.745-.145-.302-.14-.505-.41-.505-.807 0-.574.405-.92.95-.92.372 0 .662.175.896.396l.09-.335zm-.114 1.477v-.756c-.14-.145-.417-.39-.79-.39-.342 0-.557.226-.557.554 0 .195.088.366.26.46.13.07.302.107.56.114l.526.02zm1.113-1.475h.46v2.983h-.46v-2.983zm.227 3.658c.183 0 .316.132.316.31a.302.302 0 0 1-.316.314.303.303 0 0 1-.31-.315c0-.177.126-.31.31-.31m.903-3.657h.468v2.195c.29.296.506.428.72.428a.542.542 0 0 0 .26-.063l.164.423a.696.696 0 0 1-.322.076c-.26 0-.512-.095-.84-.455l-.058.378h-.392v-2.983zm1.897 0h.468v2.195c.278.245.582.447.917.447.423 0 .537-.34.537-.788v-1.855h.46v2.012c0 .75-.417 1.047-.885 1.047-.385 0-.72-.183-1.05-.46l-.056.384h-.393v-2.983zm2.743.19c.19-.12.506-.253.898-.253.613 0 1.106.284 1.106.876 0 1.01-1.41.782-1.41 1.445 0 .32.29.416.576.416.29 0 .518-.077.72-.165v.41a2.1 2.1 0 0 1-.74.14c-.663 0-1.01-.367-1.01-.82 0-.99 1.396-.783 1.396-1.433 0-.34-.29-.48-.638-.48a1.36 1.36 0 0 0-.746.22l-.152-.358z"/></g><path d="M0 .44h30.4V0H0v.44zM0 35.874h30.4v-.44H0v.44zM0 12.24h30.4v-.44H0v.44zM0 24.127h30.4v-.44H0v.44z"/><g clip-path="url(#a)" transform="matrix(1.25 0 0 -1.25 -309.844 339.456)"><path d="M249.196 246.195h.468v3.765h1.176l.14.39H248v-.39h1.196v-3.765zm2.808-.063c.84 0 1.384.687 1.384 1.558 0 .876-.55 1.564-1.378 1.564-.847 0-1.384-.688-1.384-1.564 0-.87.544-1.558 1.378-1.558m0 .397c-.55 0-.898.48-.898 1.16 0 .687.348 1.166.904 1.166.544 0 .892-.48.892-1.166 0-.68-.348-1.16-.898-1.16m2.428-.354h.41l.715 2.39h.013l.708-2.39h.405l.992 3.002h-.474l-.694-2.378h-.013l-.714 2.378h-.438l-.69-2.378h-.01l-.71 2.378h-.486l.986-3.002zm3.564.02h.467v2.194c.278.246.582.447.917.447.424 0 .537-.34.537-.788v-1.855h.462v2.012c0 .75-.418 1.047-.886 1.047-.386 0-.72-.183-1.05-.46l-.057.384h-.39v-2.983zm2.742.188c.19-.12.506-.252.898-.252.613 0 1.106.284 1.106.877 0 1.008-1.41.78-1.41 1.443 0 .32.29.416.576.416.29 0 .518-.077.72-.165v.41c-.195.076-.455.14-.74.14-.663 0-1.01-.367-1.01-.82 0-.99 1.397-.783 1.397-1.433 0-.34-.29-.48-.64-.48a1.36 1.36 0 0 0-.745.222l-.152-.36zm3.323-.208h.4l1.144 3.002h-.48l-.848-2.384h-.012l-.873 2.384h-.486l1.157-3.002zm1.893.02h.462v2.982h-.462v-2.983zm.227 3.657c.183 0 .316.132.316.31a.3.3 0 0 1-.316.314.303.303 0 0 1-.31-.315.3.3 0 0 1 .31-.31m.907-3.115c0-.36.183-.58.562-.58.138 0 .296.032.416.088l-.1.366a.59.59 0 0 0-.184-.043c-.158 0-.234.07-.234.315v3.778h-.46v-3.923zm1.286 0c0-.36.183-.58.563-.58.14 0 .297.032.417.088l-.1.366a.604.604 0 0 0-.185-.043c-.158 0-.234.07-.234.315v3.778h-.46v-3.923zm2.48-.605c.334 0 .694.095.953.265l-.152.328a1.503 1.503 0 0 0-.733-.202c-.637 0-.985.473-.998 1.085h1.94v.113c0 .94-.43 1.534-1.187 1.534-.727 0-1.227-.625-1.227-1.533 0-.87.462-1.588 1.404-1.588m-.923 1.835c.005.498.29.908.745.908.474 0 .695-.454.7-.908h-1.446zM248.21 255.977a1.93 1.93 0 0 1 1.094-.315c.796 0 1.334.416 1.334 1.11 0 1.292-1.834 1.192-1.834 2.13 0 .45.38.613.752.613.317 0 .633-.082.892-.227v.435c-.19.095-.525.19-.904.19-.778 0-1.227-.467-1.227-1.054 0-1.243 1.834-1.123 1.834-2.12 0-.492-.39-.675-.84-.675a1.66 1.66 0 0 0-.904.278l-.196-.366zm2.98-.252h.46v2.983h-.46v-2.983zm.227 3.658c.183 0 .316.132.316.31a.302.302 0 0 1-.316.314.304.304 0 0 1-.31-.315.3.3 0 0 1 .31-.31m.903-3.657h.468v2.194c.278.245.582.447.917.447.423 0 .537-.34.537-.788v-1.855h.46v2.012c0 .75-.416 1.046-.883 1.046-.387 0-.722-.182-1.05-.46l-.058.385h-.392v-2.983zm4.003-1.495c.89 0 1.44.372 1.44.933 0 1.11-1.972.587-1.972 1.18 0 .107.046.214.16.34a1.26 1.26 0 0 1 .39-.063c.69 0 1.158.435 1.158 1.08 0 .283-.113.566-.34.768.087.057.19.082.29.082a.757.757 0 0 0 .17-.02l.114.367a1.03 1.03 0 0 1-.183.02.83.83 0 0 1-.614-.247c-.02-.02-.032-.02-.064-.006a1.333 1.333 0 0 1-.562.113c-.645 0-1.1-.46-1.1-1.06 0-.403.183-.718.46-.9-.258-.235-.315-.45-.315-.588 0-.158.083-.297.215-.373-.38-.183-.556-.466-.556-.77 0-.542.518-.857 1.31-.857m.036.366c-.537 0-.916.208-.916.567 0 .29.26.46.41.562.55-.164 1.442-.07 1.442-.612 0-.284-.303-.517-.936-.517m-.012 2.41c-.424 0-.677.295-.677.705 0 .417.28.682.678.682s.676-.29.676-.687c0-.454-.29-.7-.676-.7m3.45-1.28h.41c-.038.15-.057.43-.057 1.015v1.028c0 .713-.44 1.015-1.06 1.015-.33 0-.702-.08-1.05-.302l.177-.327c.21.126.462.246.822.246.372 0 .644-.203.644-.657v-.19l-.57-.018c-.303-.013-.543-.044-.745-.145-.305-.14-.507-.41-.507-.808 0-.574.405-.92.948-.92.374 0 .665.176.9.397l.087-.335zm-.114 1.476v-.756c-.14-.145-.417-.39-.79-.39-.342 0-.557.226-.557.554 0 .195.09.365.26.46.132.07.303.107.562.114l.524.02zm1.09-2.97h.47v1.54c.144-.064.334-.108.523-.108.866 0 1.51.6 1.51 1.57 0 .984-.568 1.55-1.516 1.55a2.86 2.86 0 0 1-.985-.18v-4.372zm.47 1.955v2.125c.163.05.32.076.504.076.594 0 1.05-.353 1.05-1.14 0-.714-.367-1.187-1.043-1.187-.196 0-.342.043-.512.125m3.745-.523c.84 0 1.384.687 1.384 1.557 0 .876-.55 1.563-1.378 1.563-.847 0-1.385-.687-1.385-1.564 0-.87.543-1.558 1.378-1.558m0 .397c-.55 0-.898.478-.898 1.16 0 .687.347 1.166.904 1.166.544 0 .89-.48.89-1.167 0-.682-.346-1.16-.896-1.16m1.862-.335h.468v2.194c.29.296.506.428.72.428a.542.542 0 0 0 .26-.063l.164.423a.693.693 0 0 1-.322.075c-.26 0-.512-.094-.84-.454l-.058.378h-.392v-2.983zm3.02-.063a1.8 1.8 0 0 1 .956.265l-.152.327a1.513 1.513 0 0 0-.733-.2c-.637 0-.985.472-.998 1.083h1.94v.114c0 .94-.43 1.533-1.188 1.533-.726 0-1.226-.624-1.226-1.532 0-.87.462-1.588 1.403-1.588m-.92 1.835c.005.498.29.908.744.908.475 0 .696-.454.702-.908h-1.447zM251.238 265.854a2.07 2.07 0 0 0-.992-.26c-.95 0-1.537.708-1.537 1.723 0 .978.606 1.722 1.58 1.722.423 0 .733-.102 1.024-.26v.442c-.21.12-.588.22-1.03.22-1.233 0-2.068-.952-2.068-2.163 0-1.218.74-2.088 1.985-2.088.38 0 .772.082 1.164.29l-.126.372zm2.362-.6h.41c-.037.152-.056.43-.056 1.016v1.028c0 .713-.443 1.016-1.062 1.016-.33 0-.702-.082-1.05-.303l.177-.327c.208.126.46.246.82.246.374 0 .646-.203.646-.657v-.19l-.57-.018c-.302-.013-.543-.044-.745-.145-.302-.14-.505-.41-.505-.807 0-.574.405-.92.95-.92.372 0 .662.175.896.396l.09-.335zm-.114 1.477v-.756c-.14-.145-.417-.39-.79-.39-.342 0-.557.226-.557.554 0 .195.088.366.26.46.13.07.302.107.56.114l.526.02zm1.113-1.475h.46v2.983h-.46v-2.983zm.227 3.658c.183 0 .316.132.316.31a.302.302 0 0 1-.316.314.303.303 0 0 1-.31-.315c0-.177.126-.31.31-.31m.903-3.657h.468v2.195c.29.296.506.428.72.428a.542.542 0 0 0 .26-.063l.164.423a.696.696 0 0 1-.322.076c-.26 0-.512-.095-.84-.455l-.058.378h-.392v-2.983zm1.897 0h.468v2.195c.278.245.582.447.917.447.423 0 .537-.34.537-.788v-1.855h.46v2.012c0 .75-.417 1.047-.885 1.047-.385 0-.72-.183-1.05-.46l-.056.384h-.393v-2.983zm2.743.19c.19-.12.506-.253.898-.253.613 0 1.106.284 1.106.876 0 1.01-1.41.782-1.41 1.445 0 .32.29.416.576.416.29 0 .518-.077.72-.165v.41a2.1 2.1 0 0 1-.74.14c-.663 0-1.01-.367-1.01-.82 0-.99 1.396-.783 1.396-1.433 0-.34-.29-.48-.638-.48a1.36 1.36 0 0 0-.746.22l-.152-.358z"/></g><path d="M0 .44h30.4V0H0v.44zM0 35.874h30.4v-.44H0v.44zM0 12.24h30.4v-.44H0v.44zM0 24.127h30.4v-.44H0v.44z"/></g></svg>