<?xml version="1.0" encoding="UTF-8" standalone="no"?>
<svg
   xmlns:dc="http://purl.org/dc/elements/1.1/"
   xmlns:cc="http://creativecommons.org/ns#"
   xmlns:rdf="http://www.w3.org/1999/02/22-rdf-syntax-ns#"
   xmlns:svg="http://www.w3.org/2000/svg"
   xmlns="http://www.w3.org/2000/svg"
   viewBox="0 0 104.27997 73.684671"
   height="73.684669"
   width="104.27997"
   xml:space="preserve"
   version="1.1"
   id="svg2"><metadata
     id="metadata8"><rdf:RDF><cc:Work
         rdf:about=""><dc:format>image/svg+xml</dc:format><dc:type
           rdf:resource="http://purl.org/dc/dcmitype/StillImage" /><dc:title></dc:title></cc:Work></rdf:RDF></metadata><defs
     id="defs6"><clipPath
       id="clipPath16"
       clipPathUnits="userSpaceOnUse"><path
         id="path18"
         d="m 0,218.5 249.5,0 L 249.5,0 0,0 0,218.5 Z" /></clipPath><clipPath
       id="clipPath64"
       clipPathUnits="userSpaceOnUse"><path
         id="path66"
         d="m 221.353,119.034 -15.186,-4.029 c -3.412,-0.905 -4.12,-4.922 -0.341,-8.584 l 0,0 c 3.208,-3.108 7.583,-3.888 9.784,-1.087 l 0,0 7.267,11.823 c 0.331,0.564 0.251,1.099 -0.077,1.467 l 0,0 c -0.255,0.284 -0.649,0.451 -1.079,0.451 l 0,0 c -0.121,0 -0.244,-0.014 -0.368,-0.041" /></clipPath><linearGradient
       id="linearGradient72"
       spreadMethod="pad"
       gradientTransform="matrix(46.327576,-106.86475,-106.86475,-46.32756,178.5293,194.1875)"
       gradientUnits="userSpaceOnUse"
       y2="0"
       x2="1"
       y1="0"
       x1="0"><stop
         id="stop74"
         offset="0"
         style="stop-opacity:1;stop-color:#ffc63f" /><stop
         id="stop76"
         offset="0.63742988"
         style="stop-opacity:1;stop-color:#f58400" /><stop
         id="stop78"
         offset="1"
         style="stop-opacity:1;stop-color:#f58400" /></linearGradient><clipPath
       id="clipPath86"
       clipPathUnits="userSpaceOnUse"><path
         id="path88"
         d="m 214.699,210.126 -2.852,-1.367 c -3.026,-1.577 -4.65,-3.913 -5.221,-6.394 l 0,0 c -0.615,-2.68 -0.079,-5.436 0.921,-7.193 l 0,0 c 2.93,-5.148 22.07,-33.692 22.07,-33.692 l 0,0 c 0.598,-0.883 0.988,-2.005 0.972,-3.064 l 0,0 c -0.017,-0.985 -0.401,-1.909 -0.887,-2.667 l 0,0 -20.441,-31.412 c -0.316,-0.519 -0.32,-1.043 -0.082,-1.434 l 0,0 c 0.275,-0.453 0.85,-0.694 1.561,-0.514 l 0,0 16.174,4.492 c 0.992,0.293 1.787,0.672 2.435,1.198 l 0,0 c 0.541,0.439 0.973,0.976 1.386,1.601 l 0,0 15.947,25.165 c 1.737,2.795 1.487,5.315 -0.504,8.526 l 0,0 -28.199,45.91 c -0.41,0.61 -0.96,1.035 -1.647,1.138 l 0,0 c -0.104,0.016 -0.209,0.024 -0.317,0.024 l 0,0 c -0.409,0 -0.841,-0.113 -1.316,-0.317" /></clipPath><linearGradient
       id="linearGradient94"
       spreadMethod="pad"
       gradientTransform="matrix(46.331772,-106.87445,-106.87445,-46.331772,201.33984,204.08691)"
       gradientUnits="userSpaceOnUse"
       y2="0"
       x2="1"
       y1="0"
       x1="0"><stop
         id="stop96"
         offset="0"
         style="stop-opacity:1;stop-color:#ffc63f" /><stop
         id="stop98"
         offset="0.63742988"
         style="stop-opacity:1;stop-color:#f58400" /><stop
         id="stop100"
         offset="1"
         style="stop-opacity:1;stop-color:#f58400" /></linearGradient><clipPath
       id="clipPath108"
       clipPathUnits="userSpaceOnUse"><path
         id="path110"
         d="m 128.993,197.471 c -0.569,-0.141 -1.05,-0.502 -1.416,-1.024 l 0,0 -19.809,-31.865 c -1.993,-3.209 -2.241,-5.729 -0.505,-8.526 l 0,0 20.218,-32.409 c 0.441,-0.648 0.996,-1.099 1.639,-1.252 l 0,0 c 0.58,-0.139 1.203,-0.027 1.794,0.297 l 0,0 2.961,1.729 c 3.716,2.175 6.096,8.205 2.733,13.423 l 0,0 -11.745,18.121 c -1.882,2.899 -2.078,4.421 -0.08,7.454 l 0,0 11.531,17.567 c 1.967,3.006 2.407,5.97 1.795,8.529 l 0,0 c -0.629,2.626 -2.385,4.796 -4.7,6.2 l 0,0 -2.679,1.523 c -0.393,0.191 -0.803,0.297 -1.207,0.297 l 0,0 c -0.178,0 -0.356,-0.021 -0.53,-0.064" /></clipPath><linearGradient
       id="linearGradient116"
       spreadMethod="pad"
       gradientTransform="matrix(46.331253,-106.87323,-106.87323,-46.331253,123.72266,170.43896)"
       gradientUnits="userSpaceOnUse"
       y2="0"
       x2="1"
       y1="0"
       x1="0"><stop
         id="stop118"
         offset="0"
         style="stop-opacity:1;stop-color:#ffc63f" /><stop
         id="stop120"
         offset="0.63742988"
         style="stop-opacity:1;stop-color:#f58400" /><stop
         id="stop122"
         offset="1"
         style="stop-opacity:1;stop-color:#f58400" /></linearGradient><clipPath
       id="clipPath130"
       clipPathUnits="userSpaceOnUse"><path
         id="path132"
         d="m 0,218.5 249.5,0 L 249.5,0 0,0 0,218.5 Z" /></clipPath></defs><g
     transform="matrix(1.25,0,0,-1.25,-9.275519,124.38455)"
     id="g10"><g
       transform="matrix(0.34698999,0,0,0.34698999,4.8456054,26.486022)"
       id="g12"><g
         clip-path="url(#clipPath16)"
         id="g14"><g
           transform="translate(165.2021,115.395)"
           id="g20"><path
             id="path22"
             style="fill:#3d3935;fill-opacity:1;fill-rule:nonzero;stroke:none"
             d="m 0,0 c 1.493,0 2.305,0.652 2.305,2.225 0,1.568 -0.747,2.269 -2.275,2.267 -1.62,0 -2.264,-0.75 -2.264,-2.326 C -2.234,0.709 -1.488,0 0,0" /></g><g
           transform="translate(153.5898,85.3286)"
           id="g24"><path
             id="path26"
             style="fill:#3d3935;fill-opacity:1;fill-rule:nonzero;stroke:none"
             d="M 0,0 C 0.009,-0.162 0.037,-0.311 0.125,-0.428 0.262,-0.609 0.479,-0.717 0.71,-0.725 l 2.089,0 c 0.236,0.008 0.441,0.125 0.572,0.301 0.09,0.125 0.134,0.274 0.144,0.426 l 0,36.428 C 3.505,36.672 3.384,36.887 3.192,37.014 2.985,37.15 2.712,37.174 2.443,37.047 1.998,36.809 0.698,36.09 0.419,35.928 0.302,35.855 0.209,35.768 0.145,35.664 0.057,35.521 0.007,35.357 0,35.195 L 0,0 Z" /></g><g
           transform="translate(163.4883,85.3286)"
           id="g28"><path
             id="path30"
             style="fill:#3d3935;fill-opacity:1;fill-rule:nonzero;stroke:none"
             d="m 0,0 c 0.01,-0.16 0.051,-0.303 0.136,-0.42 0.135,-0.187 0.355,-0.299 0.591,-0.305 l 2.089,0 c 0.233,0.006 0.439,0.125 0.57,0.301 0.091,0.125 0.137,0.27 0.146,0.426 l 0,24.527 c -0.009,0.166 -0.066,0.33 -0.176,0.461 -0.13,0.156 -0.323,0.25 -0.54,0.264 l -2.089,0 C 0.529,25.24 0.341,25.17 0.205,25.031 0.08,24.904 0.01,24.729 0,24.529 L 0,0 Z" /></g><g
           transform="translate(91.7734,109.6411)"
           id="g32"><path
             id="path34"
             style="fill:#3d3935;fill-opacity:1;fill-rule:nonzero;stroke:none"
             d="m 0,0 c -0.008,0.143 -0.046,0.299 -0.144,0.43 -0.092,0.127 -0.234,0.232 -0.427,0.279 -1.53,0.379 -4.013,0.877 -6.689,0.879 -7.128,0 -9.079,-4.168 -9.079,-6.928 0,-3.137 2.471,-5.467 5.578,-6.764 l 2.949,-1.242 c 2.173,-0.922 5.154,-2.113 5.154,-5.037 0,-2.111 -1.391,-4.166 -6.224,-4.166 -2.926,0 -4.719,0.344 -6.117,0.746 -0.478,0.143 -0.916,-0.254 -0.916,-0.697 l 0,-1.613 c 0.009,-0.176 0.055,-0.317 0.138,-0.426 0.111,-0.147 0.273,-0.236 0.424,-0.279 1.429,-0.377 3.838,-0.871 6.86,-0.871 7.747,0 9.534,4.496 9.534,7.203 0,3.728 -2.888,6.056 -6.255,7.465 l -2.432,1.029 c -4.931,2.054 -5.191,3.679 -5.191,4.709 0,1.246 0.88,3.736 5.483,3.736 2.643,0 5.141,-0.492 6.549,-0.824 0.283,-0.068 0.478,0.008 0.605,0.133 0.142,0.144 0.192,0.353 0.2,0.509 L 0,0" /></g><g
           transform="translate(147.1709,107.2817)"
           id="g36"><path
             id="path38"
             style="fill:#3d3935;fill-opacity:1;fill-rule:nonzero;stroke:none"
             d="m 0,0 c -1.36,3.027 -5.09,3.951 -8.102,3.951 -3.034,0 -5.347,-0.623 -7.911,-1.883 -0.28,-0.136 -0.498,-0.295 -0.645,-0.466 -0.149,-0.174 -0.222,-0.366 -0.227,-0.567 l 0,-1.551 c 0.011,-0.293 0.142,-0.507 0.336,-0.625 0.202,-0.121 0.46,-0.142 0.677,-0.035 2.185,1.217 4.632,1.987 7.151,1.987 3.213,0 5.838,-1.082 5.872,-4.874 l 0,-2.38 -1.652,0 c -9.017,0 -14.555,-3.516 -14.555,-9.311 0,-3.278 1.688,-5.191 4.014,-6.278 0.521,0.929 1.068,1.844 1.638,2.748 -1.2,0.689 -2.021,1.826 -2.021,3.698 0,5.625 6.842,6.385 11.218,6.385 l 1.327,0 0.034,-10.66 c -1.685,-0.381 -3.471,-0.436 -5.223,-0.436 -1.821,0 -3.864,0.169 -5.335,1.013 -0.57,-0.904 -1.117,-1.819 -1.638,-2.748 2.126,-0.993 4.784,-1.298 7.196,-1.298 2.661,0 5.287,0.33 7.92,0.812 0.194,0.053 0.339,0.141 0.437,0.272 0.094,0.123 0.133,0.281 0.142,0.453 l 0,17.73 C 0.653,-2.65 0.55,-1.303 0,0" /></g><g
           transform="translate(191.1816,107.2817)"
           id="g40"><path
             id="path42"
             style="fill:#3d3935;fill-opacity:1;fill-rule:nonzero;stroke:none"
             d="m 0,0 c -1.359,3.027 -5.089,3.951 -8.101,3.951 -3.034,0 -5.348,-0.623 -7.911,-1.883 -0.28,-0.136 -0.498,-0.295 -0.646,-0.466 -0.148,-0.174 -0.221,-0.366 -0.226,-0.567 l 0,-1.551 c 0.01,-0.293 0.141,-0.507 0.336,-0.625 0.201,-0.121 0.46,-0.142 0.677,-0.035 2.185,1.217 4.632,1.987 7.151,1.987 3.213,0 5.837,-1.082 5.872,-4.874 l 0,-2.38 -1.653,0 c -9.016,0 -14.554,-3.516 -14.554,-9.311 0,-5.691 5.066,-7.287 9.779,-7.535 0.579,1.005 1.163,2.005 1.754,2.998 -0.184,-0.001 -0.368,-0.006 -0.55,-0.006 -3.305,0 -7.357,0.543 -7.357,4.711 0,5.625 6.843,6.385 11.22,6.385 l 1.326,0 0.035,-10.66 c -1.51,-0.342 -3.099,-0.417 -4.674,-0.43 -0.591,-0.993 -1.175,-1.993 -1.754,-2.998 0.482,-0.025 0.963,-0.041 1.431,-0.041 2.66,0 5.286,0.33 7.92,0.812 0.194,0.053 0.339,0.141 0.436,0.272 0.094,0.123 0.134,0.281 0.143,0.453 l 0,17.73 C 0.654,-2.65 0.549,-1.303 0,0" /></g><g
           transform="translate(48.3994,85.5278)"
           id="g44"><path
             id="path46"
             style="fill:#3d3935;fill-opacity:1;fill-rule:nonzero;stroke:none"
             d="m 0,0 c -0.083,0.292 -4.041,13.529 -7.396,24.206 -0.871,-1.248 -1.699,-2.494 -2.452,-3.741 l 2.694,-9.16 -12.642,0 6.261,21.701 3.687,-12.541 c 0.753,1.247 1.581,2.493 2.452,3.741 -1.821,5.799 -3.464,10.845 -4.211,12.646 -0.061,0.128 -0.155,0.238 -0.279,0.314 -0.123,0.074 -0.276,0.109 -0.418,0.117 l -2.434,0 c -0.14,-0.008 -0.294,-0.041 -0.426,-0.14 -0.104,-0.077 -0.189,-0.188 -0.258,-0.34 -2.164,-5.295 -11.436,-36.309 -11.58,-36.799 -0.061,-0.244 -0.03,-0.473 0.087,-0.643 0.121,-0.175 0.324,-0.283 0.57,-0.289 l 2.386,0 c 0.201,0.006 0.355,0.057 0.471,0.16 0.098,0.084 0.164,0.204 0.216,0.344 0.094,0.297 2.539,8.584 2.539,8.584 l 14.452,0 2.549,-8.601 c 0.047,-0.143 0.122,-0.252 0.224,-0.334 0.132,-0.1 0.298,-0.143 0.481,-0.151 l 2.31,0 c 0.325,0.008 0.529,0.129 0.639,0.299 C 0.047,-0.432 0.045,-0.182 0,0" /></g><g
           transform="translate(104.125,83.9517)"
           id="g48"><path
             id="path50"
             style="fill:#3d3935;fill-opacity:1;fill-rule:nonzero;stroke:none"
             d="m 0,0 c 0.81,0 1.617,0.049 2.413,0.156 0.448,0.061 0.88,0.115 1.31,0.248 0.189,0.059 0.361,0.186 0.469,0.352 0.075,0.115 0.109,0.242 0.12,0.387 l 0,0.752 0,0.781 C 4.301,2.896 4.202,3.1 4.032,3.234 3.872,3.363 3.662,3.414 3.428,3.373 2.378,3.152 1.365,3.033 0.266,3.033 c -3.311,0 -4.003,1.731 -4.003,4.705 l 0,15.692 6.674,0 c 0.193,0.009 0.386,0.088 0.523,0.232 0.125,0.127 0.197,0.297 0.205,0.492 l 0,1.748 C 3.657,26.104 3.583,26.277 3.456,26.404 3.319,26.543 3.13,26.617 2.937,26.627 l -6.69,0 0,6.328 c -0.009,0.244 -0.133,0.459 -0.328,0.588 -0.206,0.135 -0.479,0.16 -0.743,0.029 -0.447,-0.238 -1.746,-0.957 -2.026,-1.117 -0.13,-0.084 -0.232,-0.185 -0.298,-0.307 -0.071,-0.132 -0.1,-0.279 -0.104,-0.427 0,-0.28 -0.003,-24.092 -0.003,-24.092 C -7.255,2.539 -5.411,0 0,0" /></g><g
           transform="translate(126.9014,107.5454)"
           id="g52"><path
             id="path54"
             style="fill:#3d3935;fill-opacity:1;fill-rule:nonzero;stroke:none"
             d="m 0,0 c 0.154,0.154 0.228,0.363 0.235,0.525 l 0,1.905 C 0.229,2.576 0.186,2.756 0.069,2.906 c -0.1,0.131 -0.248,0.242 -0.453,0.295 -0.746,0.184 -1.49,0.322 -2.3,0.322 -4.112,0 -7.03,-2.541 -8.331,-6.332 l 0,5.12 c -0.008,0.189 -0.073,0.363 -0.194,0.492 -0.133,0.142 -0.318,0.22 -0.529,0.23 l -1.825,0 c -0.215,-0.01 -0.39,-0.076 -0.518,-0.191 -0.152,-0.139 -0.23,-0.332 -0.236,-0.531 l 0,-24.53 c 0.006,-0.197 0.076,-0.367 0.196,-0.492 0.137,-0.146 0.328,-0.225 0.53,-0.232 l 2.09,0 c 0.217,0.007 0.414,0.109 0.545,0.267 0.106,0.129 0.164,0.289 0.17,0.457 l 0,12.485 c 0,2.761 0.489,5.355 2.464,7.416 1.495,1.507 3.469,2.375 5.577,2.373 0.747,-0.002 1.393,-0.067 2.097,-0.233 C -0.366,-0.24 -0.148,-0.148 0,0" /></g><g
           transform="translate(51.7217,110.5786)"
           id="g56"><path
             id="path58"
             style="fill:#3d3935;fill-opacity:1;fill-rule:nonzero;stroke:none"
             d="M 0,0 C -0.218,-0.01 -0.399,-0.094 -0.523,-0.232 -0.649,-0.371 -0.712,-0.551 -0.72,-0.725 l 0,-14.05 c 0,-1.838 0,-4.108 0.647,-5.844 1.463,-4.217 5.773,-6.008 9.627,-6.008 1.943,0 4.053,0.432 5.839,1.41 4.211,2.379 4.502,6.547 4.502,11.256 l 0,13.236 c -0.011,0.186 -0.072,0.358 -0.187,0.485 -0.133,0.146 -0.325,0.23 -0.535,0.238 l -2.152,0 c -0.208,-0.01 -0.399,-0.092 -0.531,-0.236 -0.121,-0.133 -0.185,-0.305 -0.193,-0.487 0,-0.414 0.032,-15.021 0.032,-15.021 0,-3.9 -1.101,-7.74 -6.513,-7.74 -4.635,0 -7.034,2.377 -7.034,7.627 l 0,15.134 C 2.774,-0.572 2.732,-0.42 2.642,-0.295 2.517,-0.121 2.313,-0.01 2.057,0 L 0,0 Z" /></g></g></g><g
       transform="matrix(0.34698999,0,0,0.34698999,4.8456054,26.486022)"
       id="g60"><g
         clip-path="url(#clipPath64)"
         id="g62"><g
           id="g68"><g
             id="g70"><path
               id="path80"
               style="fill:url(#linearGradient72);stroke:none"
               d="m 221.353,119.034 -15.186,-4.029 c -3.412,-0.905 -4.12,-4.922 -0.341,-8.584 l 0,0 c 3.208,-3.108 7.583,-3.888 9.784,-1.087 l 0,0 7.267,11.823 c 0.331,0.564 0.251,1.099 -0.077,1.467 l 0,0 c -0.255,0.284 -0.649,0.451 -1.079,0.451 l 0,0 c -0.121,0 -0.244,-0.014 -0.368,-0.041" /></g></g></g></g><g
       transform="matrix(0.34698999,0,0,0.34698999,4.8456054,26.486022)"
       id="g82"><g
         clip-path="url(#clipPath86)"
         id="g84"><g
           id="g90"><g
             id="g92"><path
               id="path102"
               style="fill:url(#linearGradient94);stroke:none"
               d="m 214.699,210.126 -2.852,-1.367 c -3.026,-1.577 -4.65,-3.913 -5.221,-6.394 l 0,0 c -0.615,-2.68 -0.079,-5.436 0.921,-7.193 l 0,0 c 2.93,-5.148 22.07,-33.692 22.07,-33.692 l 0,0 c 0.598,-0.883 0.988,-2.005 0.972,-3.064 l 0,0 c -0.017,-0.985 -0.401,-1.909 -0.887,-2.667 l 0,0 -20.441,-31.412 c -0.316,-0.519 -0.32,-1.043 -0.082,-1.434 l 0,0 c 0.275,-0.453 0.85,-0.694 1.561,-0.514 l 0,0 16.174,4.492 c 0.992,0.293 1.787,0.672 2.435,1.198 l 0,0 c 0.541,0.439 0.973,0.976 1.386,1.601 l 0,0 15.947,25.165 c 1.737,2.795 1.487,5.315 -0.504,8.526 l 0,0 -28.199,45.91 c -0.41,0.61 -0.96,1.035 -1.647,1.138 l 0,0 c -0.104,0.016 -0.209,0.024 -0.317,0.024 l 0,0 c -0.409,0 -0.841,-0.113 -1.316,-0.317" /></g></g></g></g><g
       transform="matrix(0.34698999,0,0,0.34698999,4.8456054,26.486022)"
       id="g104"><g
         clip-path="url(#clipPath108)"
         id="g106"><g
           id="g112"><g
             id="g114"><path
               id="path124"
               style="fill:url(#linearGradient116);stroke:none"
               d="m 128.993,197.471 c -0.569,-0.141 -1.05,-0.502 -1.416,-1.024 l 0,0 -19.809,-31.865 c -1.993,-3.209 -2.241,-5.729 -0.505,-8.526 l 0,0 20.218,-32.409 c 0.441,-0.648 0.996,-1.099 1.639,-1.252 l 0,0 c 0.58,-0.139 1.203,-0.027 1.794,0.297 l 0,0 2.961,1.729 c 3.716,2.175 6.096,8.205 2.733,13.423 l 0,0 -11.745,18.121 c -1.882,2.899 -2.078,4.421 -0.08,7.454 l 0,0 11.531,17.567 c 1.967,3.006 2.407,5.97 1.795,8.529 l 0,0 c -0.629,2.626 -2.385,4.796 -4.7,6.2 l 0,0 -2.679,1.523 c -0.393,0.191 -0.803,0.297 -1.207,0.297 l 0,0 c -0.178,0 -0.356,-0.021 -0.53,-0.064" /></g></g></g></g><g
       transform="matrix(0.34698999,0,0,0.34698999,4.8456054,26.486022)"
       id="g126"><g
         clip-path="url(#clipPath130)"
         id="g128"><g
           transform="translate(66.7363,47.8066)"
           id="g134"><path
             id="path136"
             style="fill:#3d3935;fill-opacity:1;fill-rule:nonzero;stroke:none"
             d="m 0,0 c 0,-2.395 -0.141,-4.449 -2.42,-5.742 -1.323,-0.76 -2.645,-0.76 -3.181,-0.76 -2.308,0 -4.447,0.984 -5.235,3.012 -0.394,1.011 -0.424,2.222 -0.424,3.349 l 0,7.082 c 0.006,0.09 0.037,0.184 0.103,0.256 0.065,0.073 0.159,0.116 0.272,0.119 l 1.805,0 C -8.948,7.313 -8.842,7.254 -8.776,7.164 -8.729,7.1 -8.708,7.021 -8.703,6.941 l 0.005,-7.336 c 0,-1.605 0.17,-3.855 3.153,-3.855 2.731,0 2.983,2.055 2.983,3.687 l 0,7.504 c 0.003,0.09 0.038,0.184 0.103,0.256 0.065,0.073 0.158,0.116 0.272,0.119 l 1.81,0 C -0.243,7.313 -0.137,7.254 -0.073,7.164 -0.024,7.1 -0.005,7.021 0,6.941 L 0,0 Z" /></g><g
           transform="translate(44.1797,47.8066)"
           id="g138"><path
             id="path140"
             style="fill:#3d3935;fill-opacity:1;fill-rule:nonzero;stroke:none"
             d="m 0,0 c 0,-2.395 -0.139,-4.449 -2.42,-5.742 -1.322,-0.76 -2.645,-0.76 -3.182,-0.76 -2.307,0 -4.446,0.984 -5.235,3.012 -0.394,1.011 -0.421,2.222 -0.421,3.349 l 0,7.082 c 0.003,0.09 0.036,0.184 0.101,0.256 0.065,0.073 0.159,0.116 0.273,0.119 l 1.804,0 C -8.946,7.313 -8.841,7.254 -8.775,7.164 -8.728,7.1 -8.708,7.021 -8.703,6.941 l 0.007,-7.336 c 0,-1.605 0.168,-3.855 3.152,-3.855 2.731,0 2.983,2.055 2.983,3.687 l 0,7.504 c 0.005,0.09 0.037,0.184 0.102,0.256 0.065,0.073 0.159,0.116 0.273,0.119 l 1.811,0 C -0.243,7.313 -0.138,7.254 -0.072,7.164 -0.024,7.1 -0.003,7.021 0,6.941 L 0,0 Z" /></g><g
           transform="translate(166.2969,43.6465)"
           id="g142"><path
             id="path144"
             style="fill:#ffab00;fill-opacity:1;fill-rule:nonzero;stroke:none"
             d="m 0,0 c -0.604,-0.129 -0.953,-0.148 -1.343,-0.148 -1.83,0 -2.28,0.818 -2.28,2.253 l 0,7.235 3.421,0 C -0.101,9.344 0,9.385 0.072,9.459 c 0.064,0.066 0.1,0.154 0.106,0.256 l 0,1.387 c -0.006,0.103 -0.042,0.195 -0.11,0.259 -0.07,0.075 -0.169,0.112 -0.27,0.116 l -3.421,0 0,3.486 c -0.005,0.125 -0.068,0.238 -0.171,0.304 -0.106,0.069 -0.251,0.087 -0.386,0.016 l -1.796,-1.086 c -0.067,-0.046 -0.121,-0.101 -0.155,-0.166 -0.036,-0.07 -0.051,-0.147 -0.053,-0.224 l 0,-11.139 c 0,-1.662 0.056,-3.463 1.773,-4.391 0.984,-0.535 2.196,-0.535 2.533,-0.535 0.486,0 0.917,0.029 1.351,0.084 0.233,0.029 0.456,0.059 0.679,0.129 0.099,0.029 0.188,0.096 0.244,0.184 0.04,0.058 0.058,0.119 0.063,0.195 l 0,0.896 0,0.407 C 0.454,-0.246 0.402,-0.143 0.315,-0.072 0.23,-0.006 0.122,0.021 0,0" /></g><g
           transform="translate(162.6738,55.123)"
           id="g146"><path
             id="path148"
             style="fill:#ffab00;fill-opacity:1;fill-rule:nonzero;stroke:none"
             d="M 0,0 0,3.486 C -0.005,3.611 -0.068,3.725 -0.171,3.79 -0.277,3.859 -0.422,3.877 -0.557,3.807 L -2.353,2.721 C -2.42,2.675 -2.474,2.619 -2.508,2.555 -2.544,2.484 -2.559,2.407 -2.561,2.33 l 0,-11.139" /></g><g
           transform="translate(53.3545,43.6465)"
           id="g150"><path
             id="path152"
             style="fill:#3d3935;fill-opacity:1;fill-rule:nonzero;stroke:none"
             d="m 0,0 c -0.601,-0.129 -0.953,-0.148 -1.342,-0.148 -1.829,0 -2.279,0.818 -2.279,2.253 l 0,7.235 3.422,0 C -0.099,9.344 0,9.385 0.072,9.459 0.138,9.525 0.175,9.613 0.18,9.715 l 0,1.387 C 0.175,11.205 0.136,11.297 0.07,11.361 0,11.436 -0.099,11.473 -0.199,11.477 l -3.422,0 0,3.486 c -0.004,0.125 -0.069,0.238 -0.17,0.304 -0.107,0.069 -0.252,0.087 -0.387,0.016 l -1.796,-1.086 c -0.069,-0.046 -0.12,-0.101 -0.156,-0.166 -0.037,-0.07 -0.05,-0.147 -0.054,-0.224 l 0,-11.139 c 0,-1.662 0.058,-3.463 1.776,-4.391 0.984,-0.535 2.193,-0.535 2.533,-0.535 0.486,0 0.916,0.029 1.349,0.084 0.232,0.029 0.456,0.059 0.681,0.129 0.097,0.029 0.188,0.096 0.244,0.184 0.039,0.058 0.056,0.119 0.061,0.195 l 0,0.896 0,0.407 C 0.455,-0.246 0.404,-0.143 0.315,-0.072 0.231,-0.006 0.122,0.021 0,0" /></g><g
           transform="translate(72.1367,47.6367)"
           id="g154"><path
             id="path156"
             style="fill:#3d3935;fill-opacity:1;fill-rule:nonzero;stroke:none"
             d="m 0,0 c 0,1.941 0.311,3.631 1.746,4.617 0.931,0.647 1.829,0.676 2.224,0.676 0.474,0 0.837,-0.063 1.117,-0.141 0.145,-0.033 0.26,0.014 0.337,0.092 0.081,0.08 0.117,0.19 0.122,0.274 l 0,1.658 C 5.543,7.25 5.52,7.354 5.461,7.432 5.408,7.5 5.332,7.557 5.225,7.584 4.837,7.682 4.449,7.742 4.029,7.742 1.892,7.742 0.535,6.422 -0.139,4.451 l 0,2.662 c -0.005,0.098 -0.039,0.188 -0.1,0.254 -0.071,0.074 -0.167,0.115 -0.278,0.119 l -1.652,0 C -2.281,7.482 -2.371,7.449 -2.438,7.389 -2.518,7.316 -2.559,7.215 -2.561,7.113 l 0,-12.754 c 0.002,-0.103 0.04,-0.189 0.102,-0.255 0.072,-0.075 0.171,-0.118 0.277,-0.122 l 1.812,0 c 0.112,0.004 0.214,0.057 0.283,0.141 0.056,0.066 0.084,0.15 0.087,0.236 L 0,0 Z" /></g><g
           transform="translate(127.1807,41.998)"
           id="g158"><path
             id="path160"
             style="fill:#ffab00;fill-opacity:1;fill-rule:nonzero;stroke:none"
             d="m 0,0 c 0.005,-0.084 0.024,-0.158 0.07,-0.219 0.071,-0.097 0.184,-0.154 0.307,-0.158 l 1.783,0 c 0.121,0.004 0.229,0.064 0.297,0.156 0.048,0.065 0.072,0.139 0.075,0.221 l 0,12.752 c -0.003,0.086 -0.034,0.172 -0.09,0.238 -0.069,0.082 -0.17,0.131 -0.282,0.137 l -1.783,0 C 0.272,13.121 0.176,13.084 0.105,13.014 0.04,12.945 0.005,12.855 0,12.752 L 0,0 Z" /></g><g
           transform="translate(124.1953,61.1816)"
           id="g162"><path
             id="path164"
             style="fill:#ffab00;fill-opacity:1;fill-rule:nonzero;stroke:none"
             d="M 0,0 C -0.005,0.127 -0.068,0.238 -0.171,0.305 -0.277,0.375 -0.423,0.392 -0.557,0.32 L -2.352,-0.764 C -2.42,-0.811 -2.474,-0.867 -2.508,-0.932 -2.544,-1 -2.56,-1.078 -2.561,-1.154 l 0,-18.032 c 0.003,-0.103 0.04,-0.189 0.102,-0.255 0.07,-0.075 0.171,-0.118 0.275,-0.122 l 1.812,0 c 0.114,0.004 0.217,0.057 0.284,0.141 0.055,0.067 0.085,0.151 0.088,0.236 L 0,0 Z" /></g><g
           transform="translate(128.4727,57.377)"
           id="g166"><path
             id="path168"
             style="fill:#ffab00;fill-opacity:1;fill-rule:nonzero;stroke:none"
             d="m 0,0 c -1.097,0 -1.52,0.506 -1.52,1.547 0,1.015 0.481,1.465 1.466,1.465 1.068,0 1.52,-0.422 1.52,-1.492 C 1.466,0.506 1.014,0 0,0" /></g><g
           transform="translate(154.624,41.998)"
           id="g170"><path
             id="path172"
             style="fill:#ffab00;fill-opacity:1;fill-rule:nonzero;stroke:none"
             d="m 0,0 c 0.005,-0.084 0.027,-0.158 0.07,-0.219 0.071,-0.097 0.185,-0.154 0.307,-0.158 l 1.785,0 c 0.121,0.004 0.229,0.064 0.295,0.156 0.048,0.065 0.072,0.139 0.075,0.221 l 0,12.752 C 2.529,12.838 2.5,12.924 2.442,12.99 2.376,13.072 2.274,13.121 2.162,13.127 l -1.785,0 C 0.275,13.121 0.178,13.084 0.107,13.014 0.042,12.945 0.005,12.855 0,12.752 L 0,0 Z" /></g><g
           transform="translate(155.9189,57.377)"
           id="g174"><path
             id="path176"
             style="fill:#ffab00;fill-opacity:1;fill-rule:nonzero;stroke:none"
             d="m 0,0 c -1.098,0 -1.521,0.506 -1.521,1.547 0,1.015 0.479,1.465 1.464,1.465 1.071,0 1.52,-0.422 1.52,-1.492 C 1.463,0.506 1.014,0 0,0" /></g><g
           transform="translate(104.2969,49.1016)"
           id="g178"><path
             id="path180"
             style="fill:#ffab00;fill-opacity:1;fill-rule:nonzero;stroke:none"
             d="m 0,0 c 0,-1.887 -0.17,-4.279 -1.408,-5.799 -0.76,-0.9 -2.168,-1.998 -4.955,-1.998 -3.829,0 -5.404,2.447 -5.882,3.883 -0.253,0.789 -0.395,1.605 -0.395,3.322 l 0,12.659 c 0.003,0.074 0.028,0.151 0.077,0.21 0.054,0.064 0.135,0.104 0.239,0.108 l 2.04,0 c 0.097,-0.004 0.178,-0.044 0.232,-0.108 0.055,-0.06 0.083,-0.138 0.087,-0.21 l 0,-12.518 c 0,-1.885 0.253,-2.899 0.844,-3.658 0.958,-1.241 2.364,-1.241 2.872,-1.241 1.153,0 2.138,0.34 2.813,1.268 0.704,0.984 0.733,2.336 0.733,3.519 l 0,12.63 c 0.004,0.074 0.026,0.151 0.077,0.21 0.054,0.064 0.134,0.104 0.238,0.108 l 2.069,0 c 0.097,-0.004 0.177,-0.044 0.232,-0.108 0.055,-0.06 0.083,-0.138 0.087,-0.21 L 0,0 Z" /></g><g
           transform="translate(118.7637,41.9902)"
           id="g182"><path
             id="path184"
             style="fill:#ffab00;fill-opacity:1;fill-rule:nonzero;stroke:none"
             d="m 0,0 c -0.003,-0.086 -0.033,-0.172 -0.091,-0.24 -0.068,-0.082 -0.168,-0.131 -0.281,-0.137 l -1.813,0 c -0.101,0.006 -0.199,0.043 -0.269,0.115 C -2.52,-0.195 -2.557,-0.104 -2.562,0 l 0,7.533 c 0,2.252 -0.928,3.574 -2.815,3.574 -0.365,0 -1.209,-0.084 -1.97,-0.703 C -8.698,9.307 -8.728,7.477 -8.728,5.9 l 0,-5.9 C -8.73,-0.086 -8.76,-0.172 -8.817,-0.24 -8.884,-0.322 -8.985,-0.371 -9.098,-0.377 l -1.811,0 c -0.105,0.006 -0.201,0.043 -0.273,0.115 -0.065,0.067 -0.099,0.158 -0.106,0.262 l 0,12.76 c 0.007,0.103 0.041,0.193 0.106,0.261 0.072,0.071 0.168,0.108 0.273,0.114 l 1.699,0 c 0.112,-0.006 0.213,-0.055 0.28,-0.137 0.057,-0.066 0.087,-0.152 0.09,-0.238 l 0,-2.272 c 1.184,2.731 3.293,2.955 4.224,2.955 0.477,0 1.772,-0.056 2.872,-0.873 C -0.057,11.305 0,9.391 0,7.504 L 0,0 Z" /></g><g
           transform="translate(135.1455,52.5625)"
           id="g186"><path
             id="path188"
             style="fill:#ffab00;fill-opacity:1;fill-rule:nonzero;stroke:none"
             d="m 0,0 c 0.619,1.576 2.055,2.871 4.053,2.871 1.098,0 3.097,-0.338 3.773,-3.012 0.562,1.268 1.661,3.012 4.334,3.012 0.563,0 2.364,-0.113 3.489,-1.633 0.902,-1.209 0.902,-2.926 0.902,-4.334 l 0,-7.476 c -0.004,-0.086 -0.033,-0.172 -0.091,-0.241 -0.066,-0.082 -0.167,-0.13 -0.28,-0.136 l -1.812,0 c -0.104,0.006 -0.201,0.043 -0.272,0.115 -0.065,0.066 -0.102,0.158 -0.107,0.262 l 0,7.533 c 0,1.154 -0.027,2.252 -0.927,2.982 -0.649,0.508 -1.379,0.565 -1.633,0.565 -0.563,0 -1.576,-0.17 -2.365,-1.324 -0.703,-1.041 -0.76,-2.082 -0.76,-3.266 l 0,-6.49 c -0.003,-0.086 -0.034,-0.172 -0.091,-0.241 -0.068,-0.082 -0.167,-0.13 -0.281,-0.136 l -1.812,0 c -0.102,0.006 -0.2,0.043 -0.27,0.115 -0.066,0.066 -0.103,0.158 -0.108,0.262 l 0,7.138 c 0,2.702 -0.816,3.942 -2.533,3.942 C 1.83,0.508 1.014,-0.563 0.788,-0.9 0.084,-1.941 0.084,-3.039 0.084,-4.25 l 0,-6.322 c -0.004,-0.086 -0.034,-0.172 -0.091,-0.241 -0.067,-0.082 -0.168,-0.13 -0.28,-0.136 l -1.812,0 c -0.104,0.006 -0.202,0.043 -0.272,0.115 -0.066,0.066 -0.101,0.158 -0.106,0.262 l 0,12.76 c 0.005,0.103 0.04,0.193 0.106,0.261 0.07,0.071 0.168,0.108 0.272,0.114 l 1.7,0 c 0.112,-0.006 0.213,-0.055 0.28,-0.137 0.057,-0.067 0.087,-0.153 0.09,-0.238 L 0,0 Z" /></g><g
           transform="translate(172.8643,55.4629)"
           id="g190"><path
             id="path192"
             style="fill:#ffab00;fill-opacity:1;fill-rule:nonzero;stroke:none"
             d="m 0,0 c -4.024,0 -6.024,-3.463 -6.024,-7.037 0,-2.984 1.492,-7.117 7.291,-7.117 1.109,0 2.424,0.133 3.402,0.476 0.073,0.028 0.136,0.074 0.181,0.137 0.046,0.062 0.067,0.137 0.072,0.221 l 0,1.246 c -0.005,0.111 -0.052,0.217 -0.134,0.287 -0.065,0.057 -0.151,0.09 -0.243,0.09 -0.041,0 -0.081,-0.006 -0.116,-0.02 -0.872,-0.279 -1.821,-0.416 -2.743,-0.416 -3.264,0 -4.838,1.803 -5.092,4.223 l 3.524,0 0,1.717 -3.552,0 C -3.406,-5.688 -3.152,-2 0.028,-2 2.167,-2 3.151,-3.998 3.151,-5.574 l 0,-0.619 -3.033,0 0,-1.717 5.024,0 c 0.1,0.004 0.189,0.039 0.258,0.099 0.057,0.055 0.099,0.125 0.115,0.207 0.103,0.543 0.115,1.096 0.115,1.665 C 5.63,-2.59 3.434,0 0,0" /></g><g
           transform="translate(83.6885,55.4629)"
           id="g194"><path
             id="path196"
             style="fill:#3d3935;fill-opacity:1;fill-rule:nonzero;stroke:none"
             d="m 0,0 c -4.026,0 -6.024,-3.463 -6.024,-7.037 0,-2.984 1.492,-7.117 7.292,-7.117 1.108,0 2.423,0.133 3.399,0.476 0.074,0.028 0.139,0.074 0.183,0.137 0.044,0.062 0.067,0.137 0.07,0.221 l 0,1.246 c -0.003,0.111 -0.051,0.217 -0.134,0.287 -0.065,0.057 -0.15,0.09 -0.243,0.09 -0.04,0 -0.078,-0.006 -0.115,-0.02 -0.871,-0.279 -1.821,-0.416 -2.741,-0.416 -3.267,0 -4.84,1.803 -5.093,4.223 l 3.7,0 0,1.717 -3.73,0 C -3.406,-5.688 -3.153,-2 0.027,-2 2.168,-2 3.152,-3.998 3.152,-5.574 l 0,-0.619 -2.858,0 0,-1.717 4.848,0 c 0.099,0.004 0.189,0.039 0.256,0.099 0.059,0.055 0.1,0.125 0.115,0.207 0.104,0.543 0.115,1.096 0.115,1.665 C 5.628,-2.59 3.435,0 0,0" /></g><g
           transform="translate(191.665,61.4863)"
           id="g198"><path
             id="path200"
             style="fill:#ffab00;fill-opacity:1;fill-rule:nonzero;stroke:none"
             d="M 0,0 C -0.108,0.07 -0.252,0.087 -0.386,0.016 L -2.183,-1.068 C -2.25,-1.115 -2.304,-1.172 -2.337,-1.236 -2.374,-1.305 -2.39,-1.383 -2.391,-1.459 l 0,-6.648 c -0.506,0.703 -1.52,2.054 -3.828,2.054 -2.956,0 -5.771,-2.447 -5.771,-7.037 0,-3.369 1.605,-6.517 4.869,-6.995 0.108,0.754 0.204,1.513 0.274,2.286 -1.782,0.606 -2.552,2.858 -2.552,4.598 0,4.023 2.307,4.98 3.631,4.98 2.562,0 3.49,-2.871 3.49,-4.812 0,-0.309 -0.141,-4.926 -3.604,-4.926 -0.35,0 -0.67,0.06 -0.965,0.16 -0.07,-0.773 -0.166,-1.532 -0.274,-2.286 0.28,-0.041 0.568,-0.069 0.873,-0.069 2.675,0 3.633,1.857 4.056,2.73 l 0,-2.066 c 0.002,-0.104 0.038,-0.19 0.099,-0.256 0.071,-0.074 0.172,-0.117 0.278,-0.121 l 1.614,0 c 0.114,0.004 0.216,0.056 0.282,0.14 0.056,0.067 0.087,0.151 0.09,0.237 l 0,19.185 C 0.166,-0.178 0.103,-0.066 0,0" /></g><g
           transform="translate(10.1689,62.5801)"
           id="g202"><path
             id="path204"
             style="fill:#ffab00;fill-opacity:1;fill-rule:nonzero;stroke:none"
             d="m 0,0 c -0.168,0.041 -0.344,0.012 -0.511,-0.069 l -0.785,-0.446 c -0.677,-0.411 -1.192,-1.048 -1.377,-1.817 -0.18,-0.75 -0.051,-1.619 0.527,-2.498 l 3.378,-5.15 c 0.586,-0.889 0.529,-1.334 -0.023,-2.184 l -3.44,-5.311 c -0.987,-1.529 -0.29,-3.296 0.8,-3.933 l 0.867,-0.508 c 0.174,-0.094 0.355,-0.129 0.527,-0.086 0.187,0.043 0.35,0.176 0.479,0.365 l 5.926,9.498 c 0.508,0.819 0.436,1.559 -0.148,2.5 L 0.414,-0.301 C 0.307,-0.148 0.166,-0.043 0,0" /></g><g
           transform="translate(24.5,41.9922)"
           id="g206"><path
             id="path208"
             style="fill:#3d3935;fill-opacity:1;fill-rule:nonzero;stroke:none"
             d="m 0,0 c -0.005,-0.102 -0.043,-0.197 -0.115,-0.27 -0.067,-0.066 -0.156,-0.105 -0.261,-0.107 l -1.927,0 c -0.101,0.002 -0.189,0.039 -0.257,0.106 -0.073,0.072 -0.116,0.169 -0.119,0.271 l 0,19.16 c 0.005,0.1 0.044,0.199 0.116,0.27 0.066,0.065 0.156,0.104 0.26,0.109 l 9.062,0 c 0.101,-0.007 0.198,-0.045 0.27,-0.117 0.066,-0.066 0.104,-0.156 0.108,-0.26 l 0,-1.652 C 7.133,17.408 7.097,17.32 7.031,17.253 6.959,17.179 6.86,17.141 6.759,17.137 l -6.759,0 0,-6.373 6.206,0 c 0.099,-0.006 0.197,-0.043 0.27,-0.116 0.065,-0.066 0.104,-0.156 0.107,-0.259 l 0,-1.477 C 6.58,8.811 6.541,8.721 6.478,8.654 6.405,8.58 6.305,8.539 6.206,8.535 L 0,8.535 0,0 Z" /></g></g></g></g></svg>