<?xml version="1.0" encoding="UTF-8" standalone="no"?>
<svg
   xmlns:dc="http://purl.org/dc/elements/1.1/"
   xmlns:cc="http://creativecommons.org/ns#"
   xmlns:rdf="http://www.w3.org/1999/02/22-rdf-syntax-ns#"
   xmlns:svg="http://www.w3.org/2000/svg"
   xmlns="http://www.w3.org/2000/svg"
   xmlns:xlink="http://www.w3.org/1999/xlink"
   xmlns:sodipodi="http://sodipodi.sourceforge.net/DTD/sodipodi-0.dtd"
   xmlns:inkscape="http://www.inkscape.org/namespaces/inkscape"
   version="1.1"
   id="svg4698"
   viewBox="0 0 144.29518 88.467602"
   height="88.467598"
   width="144.29518"
   inkscape:version="0.91 r13725"
   sodipodi:docname="flags-original.svg">
  <sodipodi:namedview
     pagecolor="#ffffff"
     bordercolor="#666666"
     borderopacity="1"
     objecttolerance="10"
     gridtolerance="10"
     guidetolerance="10"
     inkscape:pageopacity="0"
     inkscape:pageshadow="2"
     inkscape:window-width="640"
     inkscape:window-height="480"
     id="namedview18"
     showgrid="false"
     inkscape:zoom="3.854961"
     inkscape:cx="28.035296"
     inkscape:cy="67.418236"
     inkscape:current-layer="layer1"
     fit-margin-top="1"
     fit-margin-left="1"
     fit-margin-right="1"
     fit-margin-bottom="1" />
  <defs
     id="defs4700">
    <polygon
       id="Star7"
       points="3.9049537,8.1087198 0,4 -3.9049537,8.1087198 -3.1273259,2.4939592 -8.7743512,2.0026884 -3.8997116,-0.89008374 -7.0364833,-5.6114082 -1.735535,-3.6038755 0,-9 0,-9 1.735535,-3.6038755 7.0364833,-5.6114082 3.8997116,-0.89008374 8.7743512,2.0026884 3.1273259,2.4939592 " />
    <polygon
       id="Star5"
       points="-5.2900673,7.2811529 -3.8042261,1.236068 -8.5595086,-2.7811529 -2.351141,-3.236068 0,-9 0,-9 2.351141,-3.236068 8.5595086,-2.7811529 3.8042261,1.236068 5.2900673,7.2811529 0,4 " />
  </defs>
  <metadata
     id="metadata4703">
    <rdf:RDF>
      <cc:Work
         rdf:about="">
        <dc:format>image/svg+xml</dc:format>
        <dc:type
           rdf:resource="http://purl.org/dc/dcmitype/StillImage" />
        <dc:title></dc:title>
      </cc:Work>
    </rdf:RDF>
  </metadata>
  <g
     transform="translate(-25.408394,-71.984661)"
     id="layer1">
    <g
       id="g16225">
      <g
         id="layer1-4"
         transform="matrix(0.11299013,-0.01331247,0.01331247,0.11299013,26.408386,80.972143)">
        <rect
           width="600"
           height="70"
           x="0"
           y="330"
           style="opacity:1;fill:#008700;fill-opacity:1;stroke:none"
           id="rect2160" />
        <rect
           width="600"
           height="70"
           x="0"
           y="0"
           style="opacity:1;fill:#008700;fill-opacity:1;stroke:none"
           id="rect3198" />
        <rect
           width="600"
           height="20"
           x="0"
           y="70"
           style="opacity:1;fill:#000000;fill-opacity:1;stroke:none"
           id="rect3200" />
        <rect
           width="600"
           height="20"
           x="0"
           y="310"
           style="opacity:1;fill:#000000;fill-opacity:1;stroke:none"
           id="rect4171" />
        <rect
           width="600"
           height="220"
           x="0"
           y="90"
           style="opacity:1;fill:#0032ff;fill-opacity:1;stroke:none"
           id="rect4173" />
        <path
           inkscape:connector-curvature="0"
           d="m 290,95 c -100,30 -95,105 -63,174 l -38,36 69,-25 0,-92 c 22,-33 62,-33 84,0 l 0,92 69,25 -38,-36 C 405,200 410,125 310,95 l -10,43 -10,-43 z"
           style="opacity:1;fill:#ffffff;fill-opacity:1;stroke:none"
           id="path5162" />
        <path
           inkscape:connector-curvature="0"
           d="m 147.70136,41.916072 -6.63549,4.346686 2.02263,7.67023 -6.18442,-4.967532 -6.6698,4.293871 2.81331,-7.416789 -6.14479,-5.016473 7.92315,0.383704 2.8721,-7.394221 2.08346,7.653931 7.91985,0.446593 z"
           transform="matrix(3.6439588,-0.1980871,0.1934751,3.8308938,-208.3274,65.732436)"
           style="opacity:1;fill:#ffffff;fill-opacity:1;stroke:none;stroke-opacity:1"
           id="path6829" />
      </g>
      <g
         id="g5472"
         transform="matrix(1.0470155,0.14691901,-0.17365087,1.1146543,-55.388391,-3.0689525)">
        <rect
           id="rect4146"
           height="39.42857"
           width="65.714287"
           x="156.21629"
           y="47.640305" />
        <rect
           id="rect4148"
           y="67.354584"
           height="19.714285"
           width="65.714287"
           style="fill:#fe0000;fill-opacity:1"
           x="156.21629" />
        <ellipse
           transform="matrix(0.99996841,0.00794904,0.00853045,0.99996362,0,0)"
           ry="9.1772003"
           rx="9.8484449"
           id="circle4150"
           cx="188.51759"
           cy="65.858459"
           style="fill:#fdfc01;fill-opacity:1" />
      </g>
    </g>
    <g
       id="g16210"
       transform="matrix(0.00273094,0,0,0.00273094,56.264173,118.16045)">
      <path
         id="path16190"
         style="fill:#00008b"
         d="m 0,0 30240,0 0,15120 L 0,15120 0,0 Z"
         inkscape:connector-curvature="0" />
      <use
         xlink:href="#Star7"
         style="fill:#ffffff"
         id="Commonwealth_Star"
         transform="matrix(252,0,0,252,7560,11340)"
         x="0"
         y="0"
         width="100%"
         height="100%" />
      <use
         xlink:href="#Star7"
         style="fill:#ffffff"
         id="Star_Alpha_Crucis"
         transform="matrix(120,0,0,120,22680,12600)"
         x="0"
         y="0"
         width="100%"
         height="100%" />
      <use
         xlink:href="#Star7"
         style="fill:#ffffff"
         id="Star_Beta_Crucis"
         transform="matrix(120,0,0,120,18900,6615)"
         x="0"
         y="0"
         width="100%"
         height="100%" />
      <use
         xlink:href="#Star7"
         style="fill:#ffffff"
         id="Star_Gamma_Crucis"
         transform="matrix(120,0,0,120,22680,2520)"
         x="0"
         y="0"
         width="100%"
         height="100%" />
      <use
         xlink:href="#Star7"
         style="fill:#ffffff"
         id="Star_Delta_Crucis"
         transform="matrix(120,0,0,120,26040,5607)"
         x="0"
         y="0"
         width="100%"
         height="100%" />
      <use
         xlink:href="#Star5"
         style="fill:#ffffff"
         id="Star_Epsilon_Crucis"
         transform="matrix(70,0,0,70,24192,8190)"
         x="0"
         y="0"
         width="100%"
         height="100%" />
      <path
         style="fill:#ffffff"
         id="White_Cross"
         d="m 6300,0 2520,0 0,2520 6300,0 0,2520 -6300,0 0,2520 -2520,0 0,-2520 -6300,0 0,-2520 6300,0 0,-2520 z"
         inkscape:connector-curvature="0" />
      <path
         style="fill:#ffffff"
         id="White_Diagonal"
         d="M 0,0 1690.4674,0 15120,6714.7663 15120,7560 13429.533,7560 0,845.2337 0,0 Z"
         inkscape:connector-curvature="0" />
      <use
         xlink:href="#White_Diagonal"
         style="fill:#ffffff"
         id="White_Diagonal_Flipped"
         transform="matrix(-1,0,0,1,15120,0)"
         x="0"
         y="0"
         width="100%"
         height="100%" />
      <path
         style="fill:#ff0000"
         id="Red_Cross"
         d="m 6804,0 1512,0 0,3024 6804,0 0,1512 -6804,0 0,3024 -1512,0 0,-3024 -6804,0 0,-1512 6804,0 0,-3024 z"
         inkscape:connector-curvature="0" />
      <path
         style="fill:#ff0000"
         id="Red_Diagonals"
         d="M 0,0 5040,2520 3913.0217,2520 0,563.48913 0,0 Z M 15120,0 13993.022,0 8953.0217,2520 10080,2520 15120,0 Z"
         inkscape:connector-curvature="0" />
      <use
         xlink:href="#Red_Diagonals"
         style="fill:#ff0000"
         id="Red_Diagonals_Rotated"
         transform="matrix(-1,0,0,-1,15120,7560)"
         x="0"
         y="0"
         width="100%"
         height="100%" />
    </g>
  </g>
</svg>
