<?xml version="1.0" encoding="UTF-8" standalone="no"?>
<svg
   xmlns:dc="http://purl.org/dc/elements/1.1/"
   xmlns:cc="http://creativecommons.org/ns#"
   xmlns:rdf="http://www.w3.org/1999/02/22-rdf-syntax-ns#"
   xmlns:svg="http://www.w3.org/2000/svg"
   xmlns="http://www.w3.org/2000/svg"
   viewBox="0 0 417.46025 171.19167"
   height="171.19167"
   width="417.46027"
   xml:space="preserve"
   version="1.1"
   id="svg2"><metadata
     id="metadata8"><rdf:RDF><cc:Work
         rdf:about=""><dc:format>image/svg+xml</dc:format><dc:type
           rdf:resource="http://purl.org/dc/dcmitype/StillImage" /><dc:title></dc:title></cc:Work></rdf:RDF></metadata><defs
     id="defs6"><clipPath
       id="clipPath20"
       clipPathUnits="userSpaceOnUse"><path
         id="path22"
         d="m 0,595.275 841.89,0 L 841.89,0 0,0 0,595.275 Z" /></clipPath><clipPath
       id="clipPath144"
       clipPathUnits="userSpaceOnUse"><path
         id="path146"
         d="m 309.646,341.407 -54.109,-54.495 c -2.507,-2.517 -2.495,-6.595 0.035,-9.099 l 0,0 c 2.522,-2.51 6.602,-2.497 9.111,0.021 l 0,0 54.109,54.49 c 2.505,2.517 2.494,6.596 -0.031,9.104 l 0,0 c -1.257,1.248 -2.901,1.872 -4.546,1.872 l 0,0 c -1.655,0 -3.309,-0.631 -4.569,-1.893" /></clipPath><linearGradient
       id="linearGradient152"
       spreadMethod="pad"
       gradientTransform="matrix(66.997559,0,0,-66.997559,253.66553,309.61914)"
       gradientUnits="userSpaceOnUse"
       y2="0"
       x2="1"
       y1="0"
       x1="0"><stop
         id="stop154"
         offset="0"
         style="stop-opacity:1;stop-color:#ffffff" /><stop
         id="stop156"
         offset="1"
         style="stop-opacity:1;stop-color:#c8c7c7" /></linearGradient><clipPath
       id="clipPath164"
       clipPathUnits="userSpaceOnUse"><path
         id="path166"
         d="m 357.901,280.145 -54.107,-54.483 c -2.509,-2.531 -2.495,-6.609 0.035,-9.113 l 0,0 c 2.522,-2.504 6.602,-2.497 9.113,0.035 l 0,0 54.103,54.474 c 2.509,2.519 2.497,6.596 -0.028,9.114 l 0,0 c -1.256,1.245 -2.899,1.867 -4.543,1.867 l 0,0 c -1.655,0 -3.311,-0.631 -4.573,-1.894" /></clipPath><linearGradient
       id="linearGradient172"
       spreadMethod="pad"
       gradientTransform="matrix(66.996582,0,0,-66.996582,301.92236,248.3584)"
       gradientUnits="userSpaceOnUse"
       y2="0"
       x2="1"
       y1="0"
       x1="0"><stop
         id="stop174"
         offset="0"
         style="stop-opacity:1;stop-color:#ffffff" /><stop
         id="stop176"
         offset="1"
         style="stop-opacity:1;stop-color:#c8c7c7" /></linearGradient><clipPath
       id="clipPath184"
       clipPathUnits="userSpaceOnUse"><path
         id="path186"
         d="m 346.322,305.133 -54.107,-54.475 c -2.509,-2.531 -2.495,-6.617 0.032,-9.113 l 0,0 c 2.519,-2.518 6.607,-2.496 9.114,0.029 l 0,0 54.108,54.475 c 2.506,2.521 2.492,6.617 -0.035,9.12 l 0,0 c -1.256,1.244 -2.9,1.867 -4.543,1.867 l 0,0 c -1.656,0 -3.311,-0.633 -4.569,-1.903" /></clipPath><linearGradient
       id="linearGradient192"
       spreadMethod="pad"
       gradientTransform="matrix(66.996582,0,0,-66.996582,290.34229,273.35156)"
       gradientUnits="userSpaceOnUse"
       y2="0"
       x2="1"
       y1="0"
       x1="0"><stop
         id="stop194"
         offset="0"
         style="stop-opacity:1;stop-color:#ffffff" /><stop
         id="stop196"
         offset="1"
         style="stop-opacity:1;stop-color:#c8c7c7" /></linearGradient><clipPath
       id="clipPath204"
       clipPathUnits="userSpaceOnUse"><path
         id="path206"
         d="m 347.969,343.425 -83.697,-84.271 c -2.506,-2.517 -2.492,-6.611 0.033,-9.113 l 0,0 c 2.524,-2.511 6.601,-2.496 9.107,0.028 l 0,0 83.7,84.276 c 2.508,2.525 2.49,6.597 -0.029,9.114 l 0,0 c -1.26,1.243 -2.903,1.866 -4.545,1.866 l 0,0 c -1.655,0 -3.309,-0.633 -4.569,-1.9" /></clipPath><linearGradient
       id="linearGradient212"
       spreadMethod="pad"
       gradientTransform="matrix(96.581055,0,0,-96.581055,262.40186,296.74512)"
       gradientUnits="userSpaceOnUse"
       y2="0"
       x2="1"
       y1="0"
       x1="0"><stop
         id="stop214"
         offset="0"
         style="stop-opacity:1;stop-color:#ffffff" /><stop
         id="stop216"
         offset="1"
         style="stop-opacity:1;stop-color:#c8c7c7" /></linearGradient><clipPath
       id="clipPath224"
       clipPathUnits="userSpaceOnUse"><path
         id="path226"
         d="m 0,595.275 841.89,0 L 841.89,0 0,0 0,595.275 Z" /></clipPath></defs><g
     transform="matrix(1.25,0,0,-1.25,-317.08198,439.53913)"
     id="g10"><g
       transform="translate(396.1206,346.3599)"
       id="g12"><path
         id="path14"
         style="fill:#231f20;fill-opacity:1;fill-rule:nonzero;stroke:none"
         d="m 0,0 -3.197,0 0,2.521 9.664,0 0,-2.521 -3.037,0 -0.16,-22.903 3.197,0 0,-2.511 -9.664,0 0,2.511 3.037,0 L 0,0 Z" /></g><g
       id="g16"><g
         clip-path="url(#clipPath20)"
         id="g18"><g
           transform="translate(417.4854,323.4565)"
           id="g24"><path
             id="path26"
             style="fill:#231f20;fill-opacity:1;fill-rule:nonzero;stroke:none"
             d="m 0,0 2.638,0 c 0,3.193 0.153,6.547 0.153,9.856 0,1.998 -0.077,5.991 -4.669,5.991 -2.91,0 -6.101,-1.761 -6.101,-7.346 L -8.059,0 l 2.991,0 0,-2.511 -8.938,0 0,2.511 2.631,0 0.163,15.562 -3.313,0 0,2.52 6.58,0 c 0,-0.8 -0.034,-1.921 -0.114,-2.478 l -0.319,-2.074 0.08,0 c 0.872,3.114 4.189,5.032 7.302,5.032 5.665,0 7.063,-3.836 7.063,-7.743 C 6.067,7.303 5.907,3.193 5.907,0 l 3.031,0 0,-2.511 L 0,-2.511 0,0 Z" /></g><g
           transform="translate(441.165,323.4565)"
           id="g28"><path
             id="path30"
             style="fill:#231f20;fill-opacity:1;fill-rule:nonzero;stroke:none"
             d="m 0,0 2.634,0 c 0,3.193 0.16,6.547 0.16,9.856 0,1.998 -0.08,5.991 -4.669,5.991 -2.91,0 -6.104,-1.761 -6.104,-7.346 L -8.059,0 l 2.994,0 0,-2.511 -8.938,0 0,2.511 2.631,0 0.16,15.562 -3.31,0 0,2.52 6.58,0 c 0,-0.8 -0.037,-1.921 -0.117,-2.478 l -0.316,-2.074 0.077,0 c 0.875,3.114 4.193,5.032 7.302,5.032 5.665,0 7.063,-3.836 7.063,-7.743 C 6.067,7.303 5.911,3.193 5.911,0 l 3.027,0 0,-2.511 L 0,-2.511 0,0 Z" /></g><g
           transform="translate(459.6729,323.1802)"
           id="g32"><path
             id="path34"
             style="fill:#231f20;fill-opacity:1;fill-rule:nonzero;stroke:none"
             d="m 0,0 c 4.393,0 6.544,3.59 6.544,8.059 0,4.468 -2.151,8.064 -6.544,8.064 -4.389,0 -6.543,-3.596 -6.543,-8.064 C -6.543,3.59 -4.389,0 0,0 m 0,18.838 c 6.267,0 9.977,-4.317 9.977,-10.22 0,-6.544 -3.71,-11.335 -9.977,-11.335 -6.264,0 -9.974,4.309 -9.974,10.216 0,6.547 3.71,11.339 9.974,11.339" /></g><g
           transform="translate(468.667,341.5386)"
           id="g36"><path
             id="path38"
             style="fill:#231f20;fill-opacity:1;fill-rule:nonzero;stroke:none"
             d="m 0,0 8.458,0 0,-2.521 -2.471,0 4.745,-13.21 c 0.204,-0.553 0.321,-1.153 0.444,-1.748 l 0.073,0 c 0.123,0.595 0.243,1.195 0.442,1.748 l 4.872,13.21 -2.677,0 0,2.521 8.218,0 0,-2.521 -2.271,0 -7.105,-18.072 -3.271,0 L 2.312,-2.521 0,-2.521 0,0 Z" /></g><g
           transform="translate(503.7656,330.4028)"
           id="g40"><path
             id="path42"
             style="fill:#231f20;fill-opacity:1;fill-rule:nonzero;stroke:none"
             d="m 0,0 c -4.869,0 -9.777,0 -9.777,-3.873 0,-2.314 1.755,-3.553 3.869,-3.553 C -3.67,-7.426 0,-6.187 0,0 m -9.298,5.068 -2.954,0 0,4.946 c 2.275,0.919 4.713,1.601 7.223,1.601 5.308,0 8.145,-1.961 8.145,-7.429 0,-1.795 -0.243,-7.419 -0.243,-11.132 l 2.954,0 0,-2.511 -5.907,0 0,0.836 c 0,1.195 0.239,2.83 0.399,3.627 l -0.08,0 C -1,-8.302 -3.031,-9.939 -6.667,-9.939 c -2.351,0 -6.38,0.881 -6.38,5.91 0,5.744 6.144,6.3 13.047,6.3 L 0,3.75 c 0,3.873 -1.473,5.344 -4.709,5.344 -1.159,0 -3.117,-0.194 -4.589,-0.836 l 0,-3.19 z" /></g><g
           transform="translate(508.2871,341.5386)"
           id="g44"><path
             id="path46"
             style="fill:#231f20;fill-opacity:1;fill-rule:nonzero;stroke:none"
             d="M 0,0 3.316,0 3.47,5.028 6.746,5.222 6.587,0 l 6.467,0 0,-2.521 -6.507,0 c -0.08,-3.427 -0.163,-6.9 -0.163,-10.333 0,-2.95 0,-5.504 3.153,-5.504 1.679,0 3.197,0.476 4.072,0.836 l -0.123,-2.594 c -1.035,-0.52 -2.95,-0.959 -4.622,-0.959 -5.747,0 -5.747,4.112 -5.747,6.742 0,2.515 0.119,8.818 0.156,11.812 L 0,-2.521 0,0 Z" /></g><g
           transform="translate(526.3955,351.6313)"
           id="g48"><path
             id="path50"
             style="fill:#231f20;fill-opacity:1;fill-rule:nonzero;stroke:none"
             d="m 0,0 c 1.358,0 2.478,-1.119 2.478,-2.475 0,-1.357 -1.12,-2.47 -2.478,-2.47 -1.358,0 -2.471,1.113 -2.471,2.47 C -2.471,-1.119 -1.358,0 0,0 m -1.238,-12.613 -3.75,0 0,2.52 7.026,0 -0.163,-18.082 3.273,0 0,-2.511 -9.817,0 0,2.511 3.277,0 0.154,15.562 z" /></g><g
           transform="translate(529.6191,341.5386)"
           id="g52"><path
             id="path54"
             style="fill:#231f20;fill-opacity:1;fill-rule:nonzero;stroke:none"
             d="m 0,0 8.465,0 0,-2.521 -2.478,0 4.748,-13.21 c 0.207,-0.553 0.321,-1.153 0.441,-1.748 l 0.079,0 c 0.12,0.595 0.24,1.195 0.439,1.748 l 4.872,13.21 -2.673,0 0,2.521 8.218,0 0,-2.521 -2.274,0 -7.104,-18.072 -3.269,0 L 2.317,-2.521 0,-2.521 0,0 Z" /></g><g
           transform="translate(565.7295,333.4692)"
           id="g56"><path
             id="path58"
             style="fill:#231f20;fill-opacity:1;fill-rule:nonzero;stroke:none"
             d="M 0,0 C 0,3.237 -2.035,6.027 -5.468,6.027 -8.978,6.027 -11.372,3.4 -11.575,0 L 0,0 Z m -11.575,-2.514 c 0.123,-4.225 1.958,-7.775 7.825,-7.775 2.231,0 4.469,0.673 6.184,1.555 l -0.117,-2.834 c -1.518,-0.762 -4.709,-1.438 -6.786,-1.438 -6.507,0 -10.536,3.553 -10.536,10.735 0,6.068 3.27,10.82 9.537,10.82 8.142,0 8.901,-7.387 8.901,-11.063 l -15.008,0 z" /></g><g
           transform="translate(399.4707,301.1587)"
           id="g60"><path
             id="path62"
             style="fill:#231f20;fill-opacity:1;fill-rule:nonzero;stroke:none"
             d="m 0,0 3.316,0 c 3.55,0 6.301,1.559 6.301,5.549 0,4.068 -2.911,4.988 -6.584,4.988 l -2.953,0 L 0,0 Z m -6.547,13.051 9.344,0 c 5.021,0 10.253,-0.76 10.253,-7.187 0,-4.628 -3.234,-7.182 -6.544,-7.542 l 0,-0.084 C 7.502,-1.798 8.781,-2.637 10.1,-4.909 l 2.354,-4.072 c 1.752,-2.914 1.991,-3.393 3.629,-3.393 l 1.239,0 0,-2.511 -1.638,0 c -2.874,0 -3.709,0.316 -5.228,2.674 L 7.785,-7.622 C 5.308,-3.39 4.672,-2.514 2.194,-2.514 l -2.194,0 -0.08,-9.86 3.233,0 0,-2.511 -9.7,0 0,2.511 3.037,0 0.16,22.911 -3.197,0 0,2.514 z" /></g><g
           transform="translate(430.752,298.8052)"
           id="g64"><path
             id="path66"
             style="fill:#231f20;fill-opacity:1;fill-rule:nonzero;stroke:none"
             d="M 0,0 C 0,3.232 -2.038,6.023 -5.471,6.023 -8.98,6.023 -11.375,3.393 -11.575,0 L 0,0 Z m -11.575,-2.518 c 0.12,-4.225 1.955,-7.779 7.822,-7.779 2.234,0 4.469,0.673 6.185,1.556 l -0.12,-2.834 c -1.519,-0.759 -4.709,-1.439 -6.781,-1.439 -6.507,0 -10.536,3.553 -10.536,10.737 0,6.066 3.271,10.818 9.534,10.818 8.142,0 8.901,-7.383 8.901,-11.059 l -15.005,0 z" /></g><g
           transform="translate(449.916,301.1587)"
           id="g68"><path
             id="path70"
             style="fill:#231f20;fill-opacity:1;fill-rule:nonzero;stroke:none"
             d="m 0,0 -2.953,0 -0.16,2.91 c -0.76,0.644 -2.678,0.76 -3.63,0.76 -2.078,0 -4.748,-0.68 -4.748,-3.15 0,-2.235 1.991,-2.914 5.028,-3.433 5.228,-0.88 7.419,-2.478 7.419,-5.867 0,-3.67 -2.475,-6.588 -8.418,-6.588 -2.238,0 -5.788,0.563 -7.066,1.243 l -0.158,5.265 2.952,0 0.163,-3.07 c 1.235,-0.6 3.309,-0.924 4.669,-0.924 2.15,0 4.744,0.924 4.744,3.434 0,2.039 -2.111,2.757 -4.349,3.234 -5.504,1.195 -8.262,2.157 -8.262,6.186 0,3.314 2.199,6.187 8.106,6.187 1.712,0 4.908,-0.559 6.5,-1.238 L 0,0 Z" /></g><g
           transform="translate(466.6523,298.8052)"
           id="g72"><path
             id="path74"
             style="fill:#231f20;fill-opacity:1;fill-rule:nonzero;stroke:none"
             d="M 0,0 C 0,3.232 -2.034,6.023 -5.464,6.023 -8.98,6.023 -11.371,3.393 -11.571,0 L 0,0 Z m -11.571,-2.518 c 0.12,-4.225 1.958,-7.779 7.822,-7.779 2.234,0 4.469,0.673 6.184,1.556 l -0.117,-2.834 c -1.515,-0.759 -4.713,-1.439 -6.787,-1.439 -6.503,0 -10.532,3.553 -10.532,10.737 0,6.066 3.27,10.818 9.537,10.818 8.142,0 8.898,-7.383 8.898,-11.059 l -15.005,0 z" /></g><g
           transform="translate(484.0117,295.7305)"
           id="g76"><path
             id="path78"
             style="fill:#231f20;fill-opacity:1;fill-rule:nonzero;stroke:none"
             d="m 0,0 c -4.868,0 -9.776,0 -9.776,-3.871 0,-2.315 1.757,-3.555 3.872,-3.555 C -3.673,-7.426 0,-6.186 0,0 m -9.297,5.066 -2.957,0 0,4.954 c 2.277,0.913 4.708,1.596 7.226,1.596 5.307,0 8.141,-1.958 8.141,-7.43 0,-1.791 -0.243,-7.415 -0.243,-11.131 l 2.957,0 0,-2.512 -5.907,0 0,0.836 c 0,1.195 0.24,2.83 0.399,3.637 l -0.079,0 c -1.236,-3.317 -3.273,-4.955 -6.907,-4.955 -2.354,0 -6.383,0.878 -6.383,5.91 0,5.744 6.144,6.304 13.05,6.304 L 0,3.75 c 0,3.874 -1.479,5.348 -4.709,5.348 -1.158,0 -3.113,-0.196 -4.588,-0.836 l 0,-3.196 z" /></g><g
           transform="translate(493.4883,304.3491)"
           id="g80"><path
             id="path82"
             style="fill:#231f20;fill-opacity:1;fill-rule:nonzero;stroke:none"
             d="m 0,0 -3.516,0 0,2.515 6.787,0 0,-1.114 c 0,-1.201 -0.237,-3.635 -0.44,-5.314 l 0.12,0 c 0.799,3.037 1.875,6.79 6.983,6.79 0.283,0 1.915,-0.163 2.082,-0.323 l -0.324,-2.95 c -0.559,0.196 -1.438,0.319 -2.234,0.319 -4.229,0 -6.107,-4.149 -6.187,-7.781 l -0.161,-7.706 3.477,0 0,-2.512 -9.663,0 0,2.512 2.914,0 L 0,0 Z" /></g><g
           transform="translate(520.8779,286.793)"
           id="g84"><path
             id="path86"
             style="fill:#231f20;fill-opacity:1;fill-rule:nonzero;stroke:none"
             d="m 0,0 c -1.595,-0.482 -3.673,-1.002 -5.947,-1.002 -8.142,0 -10.733,5.395 -10.733,10.78 0,7.858 5.704,10.775 10.293,10.775 2.275,0 4.549,-0.283 6.663,-1.039 l 0,-5.388 -2.95,0 0,3.23 c -0.88,0.324 -2.511,0.483 -3.433,0.483 -5.948,0 -7.143,-4.715 -7.143,-8.061 0,-1.116 0.156,-8.063 7.822,-8.063 2.034,0 3.673,0.56 5.584,1.156 L 0,0 Z" /></g><g
           transform="translate(524.9434,314.4497)"
           id="g88"><path
             id="path90"
             style="fill:#231f20;fill-opacity:1;fill-rule:nonzero;stroke:none"
             d="m 0,0 -3.989,0 0,2.51 7.266,0 -0.044,-10.813 c 0,-0.915 -0.236,-2.949 -0.395,-3.829 l 0.076,0 c 0.879,3.111 4.192,5.028 7.303,5.028 5.668,0 7.066,-3.833 7.066,-7.742 0,-3.512 -0.16,-7.621 -0.16,-10.819 l 3.03,0 0,-2.511 -8.937,0 0,2.511 2.631,0 c 0,3.198 0.166,6.547 0.166,9.86 0,1.998 -0.08,5.988 -4.669,5.988 -2.916,0 -6.111,-1.762 -6.111,-7.346 l -0.123,-8.502 3.037,0 0,-2.511 -9.256,0 0,2.511 2.953,0 L 0,0 Z" /></g><g
           transform="translate(402.0278,277.0234)"
           id="g92"><path
             id="path94"
             style="fill:#231f20;fill-opacity:1;fill-rule:nonzero;stroke:none"
             d="m 0,0 -2.994,0 c -0.043,-3.912 -0.083,-7.785 -0.083,-14.322 0,-3.473 0.24,-5.432 1.399,-6.864 1.115,-1.398 3.153,-2.001 6.024,-2.001 2.794,0 4.951,0.679 6.223,2.359 1.159,1.512 1.202,3.912 1.246,7.701 L 11.888,0 l -3.47,0 0,2.514 9.657,0 0,-2.514 -3.07,0 -0.08,-15.125 c 0,-3.189 -0.36,-5.508 -2.198,-7.738 -1.595,-1.959 -4.549,-3.041 -8.498,-3.041 -4.868,0 -7.542,1.246 -9.181,3.474 -1.315,1.797 -1.555,3.756 -1.555,8.424 0,4.549 0.04,9.736 0.08,14.006 l -3.23,0 0,2.514 L 0,2.514 0,0 Z" /></g><g
           transform="translate(433.4727,254.1191)"
           id="g96"><path
             id="path98"
             style="fill:#231f20;fill-opacity:1;fill-rule:nonzero;stroke:none"
             d="m 0,0 2.627,0 c 0,3.191 0.167,6.541 0.167,9.854 0,1.998 -0.08,5.988 -4.672,5.988 -2.914,0 -6.107,-1.758 -6.107,-7.344 L -8.062,0 l 2.991,0 0,-2.518 -8.938,0 0,2.518 2.634,0 0.156,15.563 -3.309,0 0,2.509 6.587,0 c 0,-0.795 -0.044,-1.914 -0.121,-2.47 l -0.32,-2.075 0.077,0 c 0.879,3.114 4.193,5.028 7.303,5.028 5.667,0 7.066,-3.832 7.066,-7.742 C 6.064,7.301 5.904,3.191 5.904,0 l 3.034,0 0,-2.518 L 0,-2.518 0,0 Z" /></g><g
           transform="translate(447.4951,282.291)"
           id="g100"><path
             id="path102"
             style="fill:#231f20;fill-opacity:1;fill-rule:nonzero;stroke:none"
             d="m 0,0 c 1.358,0 2.478,-1.119 2.478,-2.477 0,-1.351 -1.12,-2.47 -2.478,-2.47 -1.358,0 -2.471,1.119 -2.471,2.47 C -2.471,-1.119 -1.358,0 0,0 m -1.235,-12.609 -3.753,0 0,2.509 7.026,0 -0.16,-18.072 3.27,0 0,-2.517 -9.817,0 0,2.517 3.273,0 0.161,15.563 z" /></g><g
           transform="translate(450.7187,272.1914)"
           id="g104"><path
             id="path106"
             style="fill:#231f20;fill-opacity:1;fill-rule:nonzero;stroke:none"
             d="m 0,0 8.465,0 0,-2.51 -2.478,0 4.748,-13.211 c 0.203,-0.558 0.321,-1.152 0.441,-1.754 l 0.079,0 c 0.12,0.602 0.24,1.196 0.44,1.754 l 4.871,13.211 -2.673,0 0,2.51 8.218,0 0,-2.51 -2.274,0 -7.104,-18.08 -3.269,0 L 2.317,-2.51 0,-2.51 0,0 Z" /></g><g
           transform="translate(486.8291,264.1328)"
           id="g108"><path
             id="path110"
             style="fill:#231f20;fill-opacity:1;fill-rule:nonzero;stroke:none"
             d="m 0,0 c 0,3.236 -2.031,6.027 -5.462,6.027 -3.516,0 -5.913,-2.632 -6.11,-6.027 L 0,0 Z m -11.572,-2.514 c 0.124,-4.226 1.958,-7.783 7.822,-7.783 2.238,0 4.469,0.68 6.188,1.559 l -0.121,-2.836 c -1.514,-0.756 -4.709,-1.44 -6.786,-1.44 -6.5,0 -10.536,3.557 -10.536,10.737 0,6.066 3.276,10.818 9.543,10.818 8.139,0 8.895,-7.383 8.895,-11.055 l -15.005,0 z" /></g><g
           transform="translate(493.5654,269.6816)"
           id="g112"><path
             id="path114"
             style="fill:#231f20;fill-opacity:1;fill-rule:nonzero;stroke:none"
             d="m 0,0 -3.513,0 0,2.51 6.786,0 0,-1.112 c 0,-1.199 -0.24,-3.632 -0.439,-5.312 l 0.116,0 c 0.803,3.035 1.878,6.787 6.987,6.787 0.283,0 1.915,-0.156 2.078,-0.32 l -0.321,-2.949 c -0.562,0.195 -1.441,0.316 -2.234,0.316 -4.229,0 -6.106,-4.15 -6.187,-7.779 l -0.16,-7.704 3.47,0 0,-2.517 -9.656,0 0,2.517 2.913,0 L 0,0 Z" /></g><g
           transform="translate(519.9717,266.4902)"
           id="g116"><path
             id="path118"
             style="fill:#231f20;fill-opacity:1;fill-rule:nonzero;stroke:none"
             d="m 0,0 -2.953,0 -0.16,2.91 c -0.759,0.641 -2.677,0.76 -3.63,0.76 -2.077,0 -4.752,-0.68 -4.752,-3.152 0,-2.233 1.995,-2.914 5.028,-3.434 5.232,-0.873 7.427,-2.475 7.427,-5.867 0,-3.668 -2.479,-6.588 -8.426,-6.588 -2.234,0 -5.783,0.562 -7.062,1.246 l -0.157,5.262 2.951,0 0.163,-3.069 c 1.232,-0.601 3.31,-0.918 4.665,-0.918 2.155,0 4.749,0.918 4.749,3.43 0,2.035 -2.115,2.754 -4.346,3.231 -5.512,1.199 -8.266,2.158 -8.266,6.189 0,3.314 2.199,6.184 8.106,6.184 1.712,0 4.908,-0.559 6.5,-1.239 L 0,0 Z" /></g><g
           transform="translate(525.9424,282.291)"
           id="g120"><path
             id="path122"
             style="fill:#231f20;fill-opacity:1;fill-rule:nonzero;stroke:none"
             d="m 0,0 c 1.359,0 2.478,-1.119 2.478,-2.477 0,-1.351 -1.119,-2.47 -2.478,-2.47 -1.354,0 -2.471,1.119 -2.471,2.47 C -2.471,-1.119 -1.354,0 0,0 m -1.235,-12.609 -3.753,0 0,2.509 7.026,0 -0.16,-18.072 3.27,0 0,-2.517 -9.816,0 0,2.517 3.276,0 0.157,15.563 z" /></g><g
           transform="translate(529.7227,272.1914)"
           id="g124"><path
             id="path126"
             style="fill:#231f20;fill-opacity:1;fill-rule:nonzero;stroke:none"
             d="M 0,0 3.313,0 3.473,5.035 6.746,5.232 6.583,0 l 6.467,0 0,-2.51 -6.507,0 c -0.08,-3.433 -0.16,-6.906 -0.16,-10.338 0,-2.953 0,-5.507 3.157,-5.507 1.679,0 3.19,0.48 4.069,0.839 l -0.12,-2.593 c -1.039,-0.516 -2.954,-0.963 -4.629,-0.963 -5.747,0 -5.747,4.117 -5.747,6.75 0,2.513 0.12,8.818 0.16,11.812 L 0,-2.51 0,0 Z" /></g><g
           transform="translate(547.834,282.291)"
           id="g128"><path
             id="path130"
             style="fill:#231f20;fill-opacity:1;fill-rule:nonzero;stroke:none"
             d="m 0,0 c 1.355,0 2.471,-1.119 2.471,-2.477 0,-1.351 -1.116,-2.47 -2.471,-2.47 -1.358,0 -2.478,1.119 -2.478,2.47 C -2.478,-1.119 -1.358,0 0,0 m -1.238,-12.609 -3.754,0 0,2.509 7.023,0 -0.16,-18.072 3.277,0 0,-2.517 -9.817,0 0,2.517 3.271,0 0.16,15.563 z" /></g><g
           transform="translate(567.5078,264.1328)"
           id="g132"><path
             id="path134"
             style="fill:#231f20;fill-opacity:1;fill-rule:nonzero;stroke:none"
             d="m 0,0 c 0,3.236 -2.031,6.027 -5.462,6.027 -3.517,0 -5.914,-2.632 -6.11,-6.027 L 0,0 Z m -11.572,-2.514 c 0.12,-4.226 1.958,-7.783 7.822,-7.783 2.238,0 4.469,0.68 6.188,1.559 l -0.121,-2.836 c -1.515,-0.756 -4.712,-1.44 -6.786,-1.44 -6.501,0 -10.536,3.557 -10.536,10.737 0,6.066 3.276,10.818 9.543,10.818 8.139,0 8.895,-7.383 8.895,-11.055 l -15.005,0 z" /></g><g
           transform="translate(586.6748,266.4902)"
           id="g136"><path
             id="path138"
             style="fill:#231f20;fill-opacity:1;fill-rule:nonzero;stroke:none"
             d="m 0,0 -2.95,0 -0.16,2.91 c -0.759,0.641 -2.678,0.76 -3.633,0.76 -2.074,0 -4.745,-0.68 -4.745,-3.152 0,-2.233 1.991,-2.914 5.021,-3.434 5.228,-0.873 7.426,-2.475 7.426,-5.867 0,-3.668 -2.475,-6.588 -8.418,-6.588 -2.238,0 -5.791,0.562 -7.066,1.246 l -0.161,5.262 2.955,0 0.156,-3.069 c 1.239,-0.601 3.316,-0.918 4.676,-0.918 2.15,0 4.745,0.918 4.745,3.43 0,2.035 -2.115,2.754 -4.346,3.231 -5.508,1.199 -8.265,2.158 -8.265,6.189 0,3.314 2.198,6.184 8.098,6.184 1.719,0 4.908,-0.559 6.507,-1.239 L 0,0 Z" /></g></g></g><g
       id="g140"><g
         clip-path="url(#clipPath144)"
         id="g142"><g
           id="g148"><g
             id="g150"><path
               id="path158"
               style="fill:url(#linearGradient152);stroke:none"
               d="m 309.646,341.407 -54.109,-54.495 c -2.507,-2.517 -2.495,-6.595 0.035,-9.099 l 0,0 c 2.522,-2.51 6.602,-2.497 9.111,0.021 l 0,0 54.109,54.49 c 2.505,2.517 2.494,6.596 -0.031,9.104 l 0,0 c -1.257,1.248 -2.901,1.872 -4.546,1.872 l 0,0 c -1.655,0 -3.309,-0.631 -4.569,-1.893" /></g></g></g></g><g
       id="g160"><g
         clip-path="url(#clipPath164)"
         id="g162"><g
           id="g168"><g
             id="g170"><path
               id="path178"
               style="fill:url(#linearGradient172);stroke:none"
               d="m 357.901,280.145 -54.107,-54.483 c -2.509,-2.531 -2.495,-6.609 0.035,-9.113 l 0,0 c 2.522,-2.504 6.602,-2.497 9.113,0.035 l 0,0 54.103,54.474 c 2.509,2.519 2.497,6.596 -0.028,9.114 l 0,0 c -1.256,1.245 -2.899,1.867 -4.543,1.867 l 0,0 c -1.655,0 -3.311,-0.631 -4.573,-1.894" /></g></g></g></g><g
       id="g180"><g
         clip-path="url(#clipPath184)"
         id="g182"><g
           id="g188"><g
             id="g190"><path
               id="path198"
               style="fill:url(#linearGradient192);stroke:none"
               d="m 346.322,305.133 -54.107,-54.475 c -2.509,-2.531 -2.495,-6.617 0.032,-9.113 l 0,0 c 2.519,-2.518 6.607,-2.496 9.114,0.029 l 0,0 54.108,54.475 c 2.506,2.521 2.492,6.617 -0.035,9.12 l 0,0 c -1.256,1.244 -2.9,1.867 -4.543,1.867 l 0,0 c -1.656,0 -3.311,-0.633 -4.569,-1.903" /></g></g></g></g><g
       id="g200"><g
         clip-path="url(#clipPath204)"
         id="g202"><g
           id="g208"><g
             id="g210"><path
               id="path218"
               style="fill:url(#linearGradient212);stroke:none"
               d="m 347.969,343.425 -83.697,-84.271 c -2.506,-2.517 -2.492,-6.611 0.033,-9.113 l 0,0 c 2.524,-2.511 6.601,-2.496 9.107,0.028 l 0,0 83.7,84.276 c 2.508,2.525 2.49,6.597 -0.029,9.114 l 0,0 c -1.26,1.243 -2.903,1.866 -4.545,1.866 l 0,0 c -1.655,0 -3.309,-0.633 -4.569,-1.9" /></g></g></g></g><g
       id="g220"><g
         clip-path="url(#clipPath224)"
         id="g222"><g
           transform="translate(341.9375,346.5127)"
           id="g228"><path
             id="path230"
             style="fill:#d91920;fill-opacity:1;fill-rule:nonzero;stroke:none"
             d="m 0,0 c -2.521,2.512 -6.602,2.494 -9.11,-0.025 l -54.105,-54.482 c -2.506,-2.51 -2.495,-6.611 0.034,-9.107 2.522,-2.51 6.603,-2.502 9.11,0.029 L 0.036,-9.11 C 2.546,-6.585 2.532,-2.509 0,0" /></g><g
           transform="translate(376.7886,308.3423)"
           id="g232"><path
             id="path234"
             style="fill:#d91920;fill-opacity:1;fill-rule:nonzero;stroke:none"
             d="M 0,0 C -2.518,2.51 -6.603,2.488 -9.108,-0.029 L -63.221,-54.51 c -2.51,-2.518 -2.494,-6.604 0.036,-9.121 2.525,-2.504 6.596,-2.491 9.107,0.035 L 0.033,-9.114 C 2.54,-6.6 2.527,-2.515 0,0" /></g><g
           transform="translate(349.604,317.585)"
           id="g236"><path
             id="path238"
             style="fill:#d91920;fill-opacity:1;fill-rule:nonzero;stroke:none"
             d="m 0,0 c -2.525,2.496 -6.602,2.489 -9.11,-0.05 l -63.261,-63.681 c -2.503,-2.526 -2.491,-6.604 0.032,-9.122 2.525,-2.496 6.609,-2.49 9.114,0.049 L 0.028,-9.122 C 2.537,-6.588 2.532,-2.518 0,0" /></g></g></g></g></svg>