<?xml version="1.0" encoding="UTF-8" standalone="no"?>
<svg
   xmlns:dc="http://purl.org/dc/elements/1.1/"
   xmlns:cc="http://creativecommons.org/ns#"
   xmlns:rdf="http://www.w3.org/1999/02/22-rdf-syntax-ns#"
   xmlns:svg="http://www.w3.org/2000/svg"
   xmlns="http://www.w3.org/2000/svg"
   version="1.1"
   id="svg7598"
   viewBox="0 0 30.39876 35.873751"
   height="10.12437mm"
   width="8.5792055mm">
  <defs
     id="defs7600">
    <clipPath
       id="clipPath1100"
       clipPathUnits="userSpaceOnUse">
      <path
         id="path1102"
         d="m 0,0 841.89,0 0,595.276 L 0,595.276 0,0 Z" />
    </clipPath>
    <clipPath
       id="clipPath960"
       clipPathUnits="userSpaceOnUse">
      <path
         id="path962"
         d="m 91.492,335.732 110.316,0 0,46.021 -110.316,0 0,-46.021 z" />
    </clipPath>
    <clipPath
       id="clipPath348"
       clipPathUnits="userSpaceOnUse">
      <path
         id="path350"
         d="m 0,0 841.89,0 0,595.276 L 0,595.276 0,0 Z" />
    </clipPath>
    <clipPath
       id="clipPath208"
       clipPathUnits="userSpaceOnUse">
      <path
         id="path210"
         d="m 99.713,240.803 100.346,0 0,44.788 -100.346,0 0,-44.788 z" />
    </clipPath>
  </defs>
  <metadata
     id="metadata7603">
    <rdf:RDF>
      <cc:Work
         rdf:about="">
        <dc:format>image/svg+xml</dc:format>
        <dc:type
           rdf:resource="http://purl.org/dc/dcmitype/StillImage" />
        <dc:title></dc:title>
      </cc:Work>
    </rdf:RDF>
  </metadata>
  <g
     transform="translate(-666.8736,-320.07533)"
     id="layer1">
    <g
       style="fill:#ffffff"
       id="g344"
       transform="matrix(1.25,0,0,-1.25,357.02986,659.53158)">
      <g
         style="fill:#ffffff"
         clip-path="url(#clipPath348)"
         id="g346">
        <g
           style="fill:#ffffff"
           transform="translate(249.1962,246.195)"
           id="g352">
          <path
             id="path354"
             style="fill:#ffffff;fill-opacity:1;fill-rule:nonzero;stroke:none"
             d="m 0,0 0.468,0 0,3.765 1.176,0 0.139,0.391 -2.978,0 0,-0.391 L 0,3.765 0,0 Z m 2.808,-0.063 c 0.841,0 1.384,0.687 1.384,1.558 0,0.876 -0.55,1.564 -1.378,1.564 -0.847,0 -1.384,-0.688 -1.384,-1.564 0,-0.871 0.544,-1.558 1.378,-1.558 m 0,0.397 c -0.55,0 -0.898,0.48 -0.898,1.161 0,0.687 0.348,1.166 0.904,1.166 0.544,0 0.892,-0.479 0.892,-1.166 0,-0.681 -0.348,-1.161 -0.898,-1.161 m 2.428,-0.353 0.411,0 0.714,2.39 0.013,0 0.708,-2.39 0.405,0 0.992,3.002 -0.474,0 -0.695,-2.378 -0.013,0 -0.714,2.378 -0.437,0 -0.689,-2.378 -0.012,0 -0.708,2.378 -0.487,0 0.986,-3.002 z M 8.8,0 l 0.467,0 0,2.195 c 0.278,0.246 0.582,0.447 0.917,0.447 0.424,0 0.537,-0.34 0.537,-0.788 l 0,-1.854 0.462,0 0,2.012 c 0,0.75 -0.417,1.047 -0.885,1.047 -0.386,0 -0.721,-0.183 -1.05,-0.461 L 9.191,2.983 8.8,2.983 8.8,0 Z m 2.742,0.189 c 0.19,-0.12 0.506,-0.252 0.898,-0.252 0.613,0 1.106,0.284 1.106,0.877 0,1.009 -1.409,0.782 -1.409,1.444 0,0.321 0.29,0.416 0.575,0.416 0.291,0 0.518,-0.076 0.721,-0.164 l 0,0.41 c -0.196,0.076 -0.456,0.139 -0.74,0.139 -0.664,0 -1.011,-0.366 -1.011,-0.82 0,-0.99 1.397,-0.782 1.397,-1.432 0,-0.34 -0.291,-0.479 -0.639,-0.479 -0.335,0 -0.575,0.114 -0.746,0.221 l -0.152,-0.36 z m 3.323,-0.208 0.398,0 1.145,3.002 -0.481,0 -0.847,-2.384 -0.012,0 -0.873,2.384 -0.487,0 1.157,-3.002 z M 16.757,0 l 0.462,0 0,2.983 -0.462,0 0,-2.983 z m 0.227,3.658 c 0.183,0 0.316,0.132 0.316,0.309 0,0.183 -0.126,0.315 -0.316,0.315 -0.183,0 -0.31,-0.138 -0.31,-0.315 0,-0.177 0.127,-0.309 0.31,-0.309 m 0.907,-3.116 c 0,-0.359 0.183,-0.58 0.562,-0.58 0.139,0 0.297,0.032 0.417,0.088 L 18.769,0.416 C 18.725,0.397 18.637,0.372 18.586,0.372 c -0.158,0 -0.234,0.07 -0.234,0.315 l 0,3.778 -0.461,0 0,-3.923 z m 1.286,0 c 0,-0.359 0.183,-0.58 0.563,-0.58 0.139,0 0.297,0.032 0.417,0.088 L 20.056,0.416 C 20.011,0.397 19.923,0.372 19.872,0.372 c -0.158,0 -0.234,0.07 -0.234,0.315 l 0,3.778 -0.461,0 0,-3.923 z m 2.479,-0.605 c 0.335,0 0.695,0.095 0.954,0.265 L 22.458,0.53 C 22.256,0.416 22.003,0.328 21.725,0.328 c -0.638,0 -0.986,0.473 -0.999,1.085 l 1.941,0 0,0.113 c 0,0.94 -0.43,1.533 -1.188,1.533 -0.727,0 -1.227,-0.625 -1.227,-1.533 0,-0.87 0.462,-1.589 1.404,-1.589 m -0.923,1.835 c 0.006,0.498 0.29,0.908 0.746,0.908 0.474,0 0.695,-0.454 0.701,-0.908 l -1.447,0 z" />
        </g>
        <g
           style="fill:#ffffff"
           transform="translate(248.2101,255.9773)"
           id="g356">
          <path
             id="path358"
             style="fill:#ffffff;fill-opacity:1;fill-rule:nonzero;stroke:none"
             d="m 0,0 c 0.247,-0.17 0.62,-0.315 1.094,-0.315 0.796,0 1.334,0.416 1.334,1.11 0,1.292 -1.834,1.192 -1.834,2.131 0,0.448 0.38,0.612 0.752,0.612 0.317,0 0.633,-0.082 0.892,-0.227 l 0,0.435 C 2.048,3.841 1.713,3.935 1.334,3.935 0.556,3.935 0.107,3.469 0.107,2.882 0.107,1.64 1.941,1.76 1.941,0.763 1.941,0.271 1.549,0.088 1.1,0.088 0.714,0.088 0.398,0.233 0.196,0.366 L 0,0 Z m 2.979,-0.252 0.462,0 0,2.983 -0.462,0 0,-2.983 z m 0.228,3.658 c 0.183,0 0.316,0.132 0.316,0.309 0,0.182 -0.126,0.315 -0.316,0.315 -0.183,0 -0.31,-0.139 -0.31,-0.315 0,-0.177 0.127,-0.309 0.31,-0.309 m 0.903,-3.658 0.468,0 0,2.194 C 4.856,2.188 5.16,2.39 5.495,2.39 5.918,2.39 6.032,2.05 6.032,1.602 l 0,-1.854 0.461,0 0,2.012 c 0,0.75 -0.417,1.046 -0.884,1.046 -0.386,0 -0.721,-0.182 -1.05,-0.46 l -0.057,0.385 -0.392,0 0,-2.983 z m 4.003,-1.495 c 0.891,0 1.441,0.372 1.441,0.933 0,1.11 -1.973,0.587 -1.973,1.18 0,0.107 0.045,0.214 0.159,0.34 0.113,-0.037 0.246,-0.063 0.391,-0.063 0.69,0 1.157,0.435 1.157,1.079 0,0.284 -0.113,0.567 -0.341,0.769 0.088,0.057 0.19,0.082 0.291,0.082 0.057,0 0.113,-0.006 0.17,-0.019 L 9.522,2.92 C 9.491,2.926 9.415,2.939 9.339,2.939 9.067,2.939 8.871,2.838 8.726,2.693 8.707,2.674 8.694,2.674 8.662,2.687 8.536,2.743 8.359,2.8 8.1,2.8 7.455,2.8 7,2.34 7,1.741 7,1.337 7.183,1.022 7.461,0.839 7.202,0.605 7.145,0.391 7.145,0.252 7.145,0.095 7.228,-0.044 7.36,-0.12 6.981,-0.303 6.804,-0.586 6.804,-0.889 c 0,-0.543 0.518,-0.858 1.309,-0.858 m 0.037,0.366 c -0.537,0 -0.916,0.208 -0.916,0.567 0,0.291 0.259,0.461 0.411,0.562 0.55,-0.164 1.441,-0.07 1.441,-0.612 0,-0.284 -0.303,-0.517 -0.936,-0.517 M 8.138,1.028 c -0.424,0 -0.677,0.296 -0.677,0.706 0,0.416 0.279,0.681 0.677,0.681 0.398,0 0.676,-0.29 0.676,-0.687 0,-0.454 -0.291,-0.7 -0.676,-0.7 m 3.449,-1.28 0.411,0 c -0.038,0.151 -0.057,0.429 -0.057,1.015 l 0,1.028 c 0,0.713 -0.442,1.015 -1.061,1.015 -0.329,0 -0.702,-0.081 -1.05,-0.302 l 0.177,-0.328 c 0.209,0.126 0.462,0.246 0.822,0.246 0.373,0 0.645,-0.202 0.645,-0.656 l 0,-0.189 -0.569,-0.019 C 10.601,1.545 10.361,1.514 10.159,1.413 9.855,1.274 9.653,1.003 9.653,0.605 c 0,-0.574 0.405,-0.92 0.948,-0.92 0.373,0 0.664,0.176 0.898,0.397 l 0.088,-0.334 z m -0.113,1.476 0,-0.757 C 11.335,0.322 11.057,0.076 10.683,0.076 c -0.341,0 -0.556,0.227 -0.556,0.555 0,0.195 0.089,0.365 0.259,0.46 0.133,0.069 0.304,0.107 0.563,0.114 l 0.525,0.019 z m 1.091,-2.971 0.468,0 0,1.539 c 0.145,-0.063 0.335,-0.107 0.524,-0.107 0.866,0 1.511,0.599 1.511,1.57 0,0.984 -0.569,1.551 -1.517,1.551 -0.322,0 -0.67,-0.063 -0.986,-0.182 l 0,-4.371 z m 0.468,1.955 0,2.125 c 0.164,0.051 0.322,0.076 0.505,0.076 0.594,0 1.05,-0.353 1.05,-1.141 0,-0.713 -0.367,-1.186 -1.043,-1.186 -0.196,0 -0.342,0.044 -0.512,0.126 m 3.745,-0.523 c 0.84,0 1.384,0.687 1.384,1.557 0,0.877 -0.55,1.564 -1.378,1.564 -0.847,0 -1.385,-0.687 -1.385,-1.564 0,-0.87 0.544,-1.557 1.379,-1.557 m 0,0.397 c -0.551,0 -0.898,0.479 -0.898,1.16 0,0.688 0.347,1.167 0.904,1.167 0.544,0 0.891,-0.479 0.891,-1.167 0,-0.681 -0.347,-1.16 -0.897,-1.16 m 1.862,-0.334 0.468,0 0,2.194 c 0.291,0.297 0.506,0.429 0.721,0.429 0.107,0 0.183,-0.025 0.259,-0.063 l 0.164,0.423 c -0.075,0.044 -0.202,0.075 -0.322,0.075 -0.259,0 -0.512,-0.094 -0.841,-0.454 l -0.057,0.379 -0.392,0 0,-2.983 z m 3.021,-0.063 c 0.336,0 0.696,0.094 0.955,0.265 L 22.464,0.277 C 22.262,0.164 22.009,0.076 21.731,0.076 c -0.638,0 -0.986,0.473 -0.999,1.084 l 1.941,0 0,0.114 c 0,0.94 -0.43,1.532 -1.189,1.532 -0.726,0 -1.226,-0.624 -1.226,-1.532 0,-0.87 0.462,-1.589 1.403,-1.589 M 20.739,1.52 c 0.006,0.498 0.29,0.908 0.745,0.908 0.475,0 0.696,-0.454 0.702,-0.908 l -1.447,0 z" />
        </g>
        <g
           style="fill:#ffffff"
           transform="translate(251.2381,265.8542)"
           id="g360">
          <path
             id="path362"
             style="fill:#ffffff;fill-opacity:1;fill-rule:nonzero;stroke:none"
             d="m 0,0 c -0.284,-0.151 -0.607,-0.259 -0.992,-0.259 -0.949,0 -1.537,0.707 -1.537,1.722 0,0.978 0.607,1.722 1.581,1.722 0.423,0 0.733,-0.101 1.024,-0.259 l 0,0.442 c -0.209,0.12 -0.588,0.22 -1.031,0.22 -1.232,0 -2.067,-0.952 -2.067,-2.163 0,-1.217 0.74,-2.087 1.985,-2.087 0.38,0 0.771,0.082 1.163,0.29 L 0,0 Z m 2.362,-0.599 0.411,0 C 2.735,-0.448 2.716,-0.17 2.716,0.416 l 0,1.028 C 2.716,2.157 2.273,2.46 1.654,2.46 1.325,2.46 0.952,2.378 0.604,2.157 L 0.781,1.829 c 0.209,0.126 0.462,0.246 0.822,0.246 0.373,0 0.645,-0.202 0.645,-0.656 L 2.248,1.23 1.679,1.211 C 1.376,1.198 1.135,1.167 0.933,1.066 0.63,0.927 0.427,0.656 0.427,0.259 c 0,-0.574 0.405,-0.921 0.949,-0.921 0.373,0 0.663,0.176 0.897,0.397 l 0.089,-0.334 z m -0.114,1.476 0,-0.757 c -0.139,-0.145 -0.417,-0.391 -0.79,-0.391 -0.342,0 -0.557,0.227 -0.557,0.555 0,0.195 0.089,0.366 0.26,0.46 0.132,0.07 0.303,0.107 0.562,0.114 l 0.525,0.019 z m 1.113,-1.476 0.462,0 0,2.983 -0.462,0 0,-2.983 z m 0.228,3.658 c 0.183,0 0.316,0.132 0.316,0.309 0,0.183 -0.127,0.315 -0.316,0.315 -0.184,0 -0.31,-0.139 -0.31,-0.315 0,-0.177 0.126,-0.309 0.31,-0.309 m 0.903,-3.658 0.468,0 0,2.195 c 0.291,0.296 0.506,0.428 0.721,0.428 0.107,0 0.183,-0.025 0.259,-0.063 L 6.104,2.384 C 6.028,2.428 5.902,2.46 5.782,2.46 5.523,2.46 5.27,2.365 4.941,2.005 l -0.057,0.379 -0.392,0 0,-2.983 z m 1.897,0 0.468,0 0,2.195 c 0.278,0.245 0.582,0.447 0.917,0.447 0.423,0 0.537,-0.34 0.537,-0.788 l 0,-1.854 0.461,0 0,2.012 c 0,0.75 -0.417,1.047 -0.885,1.047 -0.385,0 -0.72,-0.183 -1.049,-0.461 l -0.057,0.385 -0.392,0 0,-2.983 z m 2.743,0.189 c 0.19,-0.12 0.506,-0.252 0.898,-0.252 0.613,0 1.106,0.284 1.106,0.876 0,1.009 -1.41,0.782 -1.41,1.445 0,0.321 0.291,0.416 0.576,0.416 0.29,0 0.518,-0.076 0.72,-0.164 l 0,0.41 C 10.826,2.396 10.567,2.46 10.283,2.46 9.619,2.46 9.271,2.094 9.271,1.64 c 0,-0.99 1.397,-0.782 1.397,-1.432 0,-0.34 -0.291,-0.479 -0.638,-0.479 -0.335,0 -0.576,0.113 -0.746,0.22 L 9.132,-0.41 Z" />
        </g>
      </g>
    </g>
    <path
       id="path364"
       style="fill:#ffffff;fill-opacity:1;fill-rule:nonzero;stroke:none"
       d="m 666.8736,320.51533 30.39876,0 0,-0.44 -30.39875,0 0,0.44 z" />
    <path
       id="path366"
       style="fill:#ffffff;fill-opacity:1;fill-rule:nonzero;stroke:none"
       d="m 666.8736,355.94908 30.39876,0 0,-0.44 -30.39875,0 0,0.44 z" />
    <path
       id="path368"
       style="fill:#ffffff;fill-opacity:1;fill-rule:nonzero;stroke:none"
       d="m 666.8736,332.31408 30.39876,0 0,-0.44 -30.39875,0 0,0.44 z" />
    <path
       id="path370"
       style="fill:#ffffff;fill-opacity:1;fill-rule:nonzero;stroke:none"
       d="m 666.8736,344.20283 30.39876,0 0,-0.44 -30.39875,0 0,0.44 z" />
    <g
       style="fill:#ffffff"
       transform="matrix(1.25,0,0,-1.25,357.02986,659.53158)"
       id="g9167">
      <g
         style="fill:#ffffff"
         id="g9169"
         clip-path="url(#clipPath348)">
        <g
           style="fill:#ffffff"
           id="g9171"
           transform="translate(249.1962,246.195)">
          <path
             d="m 0,0 0.468,0 0,3.765 1.176,0 0.139,0.391 -2.978,0 0,-0.391 L 0,3.765 0,0 Z m 2.808,-0.063 c 0.841,0 1.384,0.687 1.384,1.558 0,0.876 -0.55,1.564 -1.378,1.564 -0.847,0 -1.384,-0.688 -1.384,-1.564 0,-0.871 0.544,-1.558 1.378,-1.558 m 0,0.397 c -0.55,0 -0.898,0.48 -0.898,1.161 0,0.687 0.348,1.166 0.904,1.166 0.544,0 0.892,-0.479 0.892,-1.166 0,-0.681 -0.348,-1.161 -0.898,-1.161 m 2.428,-0.353 0.411,0 0.714,2.39 0.013,0 0.708,-2.39 0.405,0 0.992,3.002 -0.474,0 -0.695,-2.378 -0.013,0 -0.714,2.378 -0.437,0 -0.689,-2.378 -0.012,0 -0.708,2.378 -0.487,0 0.986,-3.002 z M 8.8,0 l 0.467,0 0,2.195 c 0.278,0.246 0.582,0.447 0.917,0.447 0.424,0 0.537,-0.34 0.537,-0.788 l 0,-1.854 0.462,0 0,2.012 c 0,0.75 -0.417,1.047 -0.885,1.047 -0.386,0 -0.721,-0.183 -1.05,-0.461 L 9.191,2.983 8.8,2.983 8.8,0 Z m 2.742,0.189 c 0.19,-0.12 0.506,-0.252 0.898,-0.252 0.613,0 1.106,0.284 1.106,0.877 0,1.009 -1.409,0.782 -1.409,1.444 0,0.321 0.29,0.416 0.575,0.416 0.291,0 0.518,-0.076 0.721,-0.164 l 0,0.41 c -0.196,0.076 -0.456,0.139 -0.74,0.139 -0.664,0 -1.011,-0.366 -1.011,-0.82 0,-0.99 1.397,-0.782 1.397,-1.432 0,-0.34 -0.291,-0.479 -0.639,-0.479 -0.335,0 -0.575,0.114 -0.746,0.221 l -0.152,-0.36 z m 3.323,-0.208 0.398,0 1.145,3.002 -0.481,0 -0.847,-2.384 -0.012,0 -0.873,2.384 -0.487,0 1.157,-3.002 z M 16.757,0 l 0.462,0 0,2.983 -0.462,0 0,-2.983 z m 0.227,3.658 c 0.183,0 0.316,0.132 0.316,0.309 0,0.183 -0.126,0.315 -0.316,0.315 -0.183,0 -0.31,-0.138 -0.31,-0.315 0,-0.177 0.127,-0.309 0.31,-0.309 m 0.907,-3.116 c 0,-0.359 0.183,-0.58 0.562,-0.58 0.139,0 0.297,0.032 0.417,0.088 L 18.769,0.416 C 18.725,0.397 18.637,0.372 18.586,0.372 c -0.158,0 -0.234,0.07 -0.234,0.315 l 0,3.778 -0.461,0 0,-3.923 z m 1.286,0 c 0,-0.359 0.183,-0.58 0.563,-0.58 0.139,0 0.297,0.032 0.417,0.088 L 20.056,0.416 C 20.011,0.397 19.923,0.372 19.872,0.372 c -0.158,0 -0.234,0.07 -0.234,0.315 l 0,3.778 -0.461,0 0,-3.923 z m 2.479,-0.605 c 0.335,0 0.695,0.095 0.954,0.265 L 22.458,0.53 C 22.256,0.416 22.003,0.328 21.725,0.328 c -0.638,0 -0.986,0.473 -0.999,1.085 l 1.941,0 0,0.113 c 0,0.94 -0.43,1.533 -1.188,1.533 -0.727,0 -1.227,-0.625 -1.227,-1.533 0,-0.87 0.462,-1.589 1.404,-1.589 m -0.923,1.835 c 0.006,0.498 0.29,0.908 0.746,0.908 0.474,0 0.695,-0.454 0.701,-0.908 l -1.447,0 z"
             style="fill:#ffffff;fill-opacity:1;fill-rule:nonzero;stroke:none"
             id="path9173" />
        </g>
        <g
           style="fill:#ffffff"
           id="g9175"
           transform="translate(248.2101,255.9773)">
          <path
             d="m 0,0 c 0.247,-0.17 0.62,-0.315 1.094,-0.315 0.796,0 1.334,0.416 1.334,1.11 0,1.292 -1.834,1.192 -1.834,2.131 0,0.448 0.38,0.612 0.752,0.612 0.317,0 0.633,-0.082 0.892,-0.227 l 0,0.435 C 2.048,3.841 1.713,3.935 1.334,3.935 0.556,3.935 0.107,3.469 0.107,2.882 0.107,1.64 1.941,1.76 1.941,0.763 1.941,0.271 1.549,0.088 1.1,0.088 0.714,0.088 0.398,0.233 0.196,0.366 L 0,0 Z m 2.979,-0.252 0.462,0 0,2.983 -0.462,0 0,-2.983 z m 0.228,3.658 c 0.183,0 0.316,0.132 0.316,0.309 0,0.182 -0.126,0.315 -0.316,0.315 -0.183,0 -0.31,-0.139 -0.31,-0.315 0,-0.177 0.127,-0.309 0.31,-0.309 m 0.903,-3.658 0.468,0 0,2.194 C 4.856,2.188 5.16,2.39 5.495,2.39 5.918,2.39 6.032,2.05 6.032,1.602 l 0,-1.854 0.461,0 0,2.012 c 0,0.75 -0.417,1.046 -0.884,1.046 -0.386,0 -0.721,-0.182 -1.05,-0.46 l -0.057,0.385 -0.392,0 0,-2.983 z m 4.003,-1.495 c 0.891,0 1.441,0.372 1.441,0.933 0,1.11 -1.973,0.587 -1.973,1.18 0,0.107 0.045,0.214 0.159,0.34 0.113,-0.037 0.246,-0.063 0.391,-0.063 0.69,0 1.157,0.435 1.157,1.079 0,0.284 -0.113,0.567 -0.341,0.769 0.088,0.057 0.19,0.082 0.291,0.082 0.057,0 0.113,-0.006 0.17,-0.019 L 9.522,2.92 C 9.491,2.926 9.415,2.939 9.339,2.939 9.067,2.939 8.871,2.838 8.726,2.693 8.707,2.674 8.694,2.674 8.662,2.687 8.536,2.743 8.359,2.8 8.1,2.8 7.455,2.8 7,2.34 7,1.741 7,1.337 7.183,1.022 7.461,0.839 7.202,0.605 7.145,0.391 7.145,0.252 7.145,0.095 7.228,-0.044 7.36,-0.12 6.981,-0.303 6.804,-0.586 6.804,-0.889 c 0,-0.543 0.518,-0.858 1.309,-0.858 m 0.037,0.366 c -0.537,0 -0.916,0.208 -0.916,0.567 0,0.291 0.259,0.461 0.411,0.562 0.55,-0.164 1.441,-0.07 1.441,-0.612 0,-0.284 -0.303,-0.517 -0.936,-0.517 M 8.138,1.028 c -0.424,0 -0.677,0.296 -0.677,0.706 0,0.416 0.279,0.681 0.677,0.681 0.398,0 0.676,-0.29 0.676,-0.687 0,-0.454 -0.291,-0.7 -0.676,-0.7 m 3.449,-1.28 0.411,0 c -0.038,0.151 -0.057,0.429 -0.057,1.015 l 0,1.028 c 0,0.713 -0.442,1.015 -1.061,1.015 -0.329,0 -0.702,-0.081 -1.05,-0.302 l 0.177,-0.328 c 0.209,0.126 0.462,0.246 0.822,0.246 0.373,0 0.645,-0.202 0.645,-0.656 l 0,-0.189 -0.569,-0.019 C 10.601,1.545 10.361,1.514 10.159,1.413 9.855,1.274 9.653,1.003 9.653,0.605 c 0,-0.574 0.405,-0.92 0.948,-0.92 0.373,0 0.664,0.176 0.898,0.397 l 0.088,-0.334 z m -0.113,1.476 0,-0.757 C 11.335,0.322 11.057,0.076 10.683,0.076 c -0.341,0 -0.556,0.227 -0.556,0.555 0,0.195 0.089,0.365 0.259,0.46 0.133,0.069 0.304,0.107 0.563,0.114 l 0.525,0.019 z m 1.091,-2.971 0.468,0 0,1.539 c 0.145,-0.063 0.335,-0.107 0.524,-0.107 0.866,0 1.511,0.599 1.511,1.57 0,0.984 -0.569,1.551 -1.517,1.551 -0.322,0 -0.67,-0.063 -0.986,-0.182 l 0,-4.371 z m 0.468,1.955 0,2.125 c 0.164,0.051 0.322,0.076 0.505,0.076 0.594,0 1.05,-0.353 1.05,-1.141 0,-0.713 -0.367,-1.186 -1.043,-1.186 -0.196,0 -0.342,0.044 -0.512,0.126 m 3.745,-0.523 c 0.84,0 1.384,0.687 1.384,1.557 0,0.877 -0.55,1.564 -1.378,1.564 -0.847,0 -1.385,-0.687 -1.385,-1.564 0,-0.87 0.544,-1.557 1.379,-1.557 m 0,0.397 c -0.551,0 -0.898,0.479 -0.898,1.16 0,0.688 0.347,1.167 0.904,1.167 0.544,0 0.891,-0.479 0.891,-1.167 0,-0.681 -0.347,-1.16 -0.897,-1.16 m 1.862,-0.334 0.468,0 0,2.194 c 0.291,0.297 0.506,0.429 0.721,0.429 0.107,0 0.183,-0.025 0.259,-0.063 l 0.164,0.423 c -0.075,0.044 -0.202,0.075 -0.322,0.075 -0.259,0 -0.512,-0.094 -0.841,-0.454 l -0.057,0.379 -0.392,0 0,-2.983 z m 3.021,-0.063 c 0.336,0 0.696,0.094 0.955,0.265 L 22.464,0.277 C 22.262,0.164 22.009,0.076 21.731,0.076 c -0.638,0 -0.986,0.473 -0.999,1.084 l 1.941,0 0,0.114 c 0,0.94 -0.43,1.532 -1.189,1.532 -0.726,0 -1.226,-0.624 -1.226,-1.532 0,-0.87 0.462,-1.589 1.403,-1.589 M 20.739,1.52 c 0.006,0.498 0.29,0.908 0.745,0.908 0.475,0 0.696,-0.454 0.702,-0.908 l -1.447,0 z"
             style="fill:#ffffff;fill-opacity:1;fill-rule:nonzero;stroke:none"
             id="path9177" />
        </g>
        <g
           style="fill:#ffffff"
           id="g9179"
           transform="translate(251.2381,265.8542)">
          <path
             d="m 0,0 c -0.284,-0.151 -0.607,-0.259 -0.992,-0.259 -0.949,0 -1.537,0.707 -1.537,1.722 0,0.978 0.607,1.722 1.581,1.722 0.423,0 0.733,-0.101 1.024,-0.259 l 0,0.442 c -0.209,0.12 -0.588,0.22 -1.031,0.22 -1.232,0 -2.067,-0.952 -2.067,-2.163 0,-1.217 0.74,-2.087 1.985,-2.087 0.38,0 0.771,0.082 1.163,0.29 L 0,0 Z m 2.362,-0.599 0.411,0 C 2.735,-0.448 2.716,-0.17 2.716,0.416 l 0,1.028 C 2.716,2.157 2.273,2.46 1.654,2.46 1.325,2.46 0.952,2.378 0.604,2.157 L 0.781,1.829 c 0.209,0.126 0.462,0.246 0.822,0.246 0.373,0 0.645,-0.202 0.645,-0.656 L 2.248,1.23 1.679,1.211 C 1.376,1.198 1.135,1.167 0.933,1.066 0.63,0.927 0.427,0.656 0.427,0.259 c 0,-0.574 0.405,-0.921 0.949,-0.921 0.373,0 0.663,0.176 0.897,0.397 l 0.089,-0.334 z m -0.114,1.476 0,-0.757 c -0.139,-0.145 -0.417,-0.391 -0.79,-0.391 -0.342,0 -0.557,0.227 -0.557,0.555 0,0.195 0.089,0.366 0.26,0.46 0.132,0.07 0.303,0.107 0.562,0.114 l 0.525,0.019 z m 1.113,-1.476 0.462,0 0,2.983 -0.462,0 0,-2.983 z m 0.228,3.658 c 0.183,0 0.316,0.132 0.316,0.309 0,0.183 -0.127,0.315 -0.316,0.315 -0.184,0 -0.31,-0.139 -0.31,-0.315 0,-0.177 0.126,-0.309 0.31,-0.309 m 0.903,-3.658 0.468,0 0,2.195 c 0.291,0.296 0.506,0.428 0.721,0.428 0.107,0 0.183,-0.025 0.259,-0.063 L 6.104,2.384 C 6.028,2.428 5.902,2.46 5.782,2.46 5.523,2.46 5.27,2.365 4.941,2.005 l -0.057,0.379 -0.392,0 0,-2.983 z m 1.897,0 0.468,0 0,2.195 c 0.278,0.245 0.582,0.447 0.917,0.447 0.423,0 0.537,-0.34 0.537,-0.788 l 0,-1.854 0.461,0 0,2.012 c 0,0.75 -0.417,1.047 -0.885,1.047 -0.385,0 -0.72,-0.183 -1.049,-0.461 l -0.057,0.385 -0.392,0 0,-2.983 z m 2.743,0.189 c 0.19,-0.12 0.506,-0.252 0.898,-0.252 0.613,0 1.106,0.284 1.106,0.876 0,1.009 -1.41,0.782 -1.41,1.445 0,0.321 0.291,0.416 0.576,0.416 0.29,0 0.518,-0.076 0.72,-0.164 l 0,0.41 C 10.826,2.396 10.567,2.46 10.283,2.46 9.619,2.46 9.271,2.094 9.271,1.64 c 0,-0.99 1.397,-0.782 1.397,-1.432 0,-0.34 -0.291,-0.479 -0.638,-0.479 -0.335,0 -0.576,0.113 -0.746,0.22 L 9.132,-0.41 Z"
             style="fill:#ffffff;fill-opacity:1;fill-rule:nonzero;stroke:none"
             id="path9181" />
        </g>
      </g>
    </g>
    <path
       d="m 666.8736,320.51533 30.39876,0 0,-0.44 -30.39875,0 0,0.44 z"
       style="fill:#ffffff;fill-opacity:1;fill-rule:nonzero;stroke:none"
       id="path9183" />
    <path
       d="m 666.8736,355.94908 30.39876,0 0,-0.44 -30.39875,0 0,0.44 z"
       style="fill:#ffffff;fill-opacity:1;fill-rule:nonzero;stroke:none"
       id="path9185" />
    <path
       d="m 666.8736,332.31408 30.39876,0 0,-0.44 -30.39875,0 0,0.44 z"
       style="fill:#ffffff;fill-opacity:1;fill-rule:nonzero;stroke:none"
       id="path9187" />
    <path
       d="m 666.8736,344.20283 30.39876,0 0,-0.44 -30.39875,0 0,0.44 z"
       style="fill:#ffffff;fill-opacity:1;fill-rule:nonzero;stroke:none"
       id="path9189" />
  </g>
</svg>
