<?xml version="1.0" encoding="UTF-8" standalone="no"?>
<svg
   xmlns:dc="http://purl.org/dc/elements/1.1/"
   xmlns:cc="http://creativecommons.org/ns#"
   xmlns:rdf="http://www.w3.org/1999/02/22-rdf-syntax-ns#"
   xmlns:svg="http://www.w3.org/2000/svg"
   xmlns="http://www.w3.org/2000/svg"
   width="34.435593mm"
   height="14.724838mm"
   viewBox="0 0 122.01588 52.174624"
   id="svg7598"
   version="1.1">
  <defs
     id="defs7600">
    <clipPath
       clipPathUnits="userSpaceOnUse"
       id="clipPath1100">
      <path
         d="m 0,0 841.89,0 0,595.276 L 0,595.276 0,0 Z"
         id="path1102" />
    </clipPath>
    <clipPath
       clipPathUnits="userSpaceOnUse"
       id="clipPath960">
      <path
         d="m 91.492,335.732 110.316,0 0,46.021 -110.316,0 0,-46.021 z"
         id="path962" />
    </clipPath>
  </defs>
  <metadata
     id="metadata7603">
    <rdf:RDF>
      <cc:Work
         rdf:about="">
        <dc:format>image/svg+xml</dc:format>
        <dc:type
           rdf:resource="http://purl.org/dc/dcmitype/StillImage" />
        <dc:title></dc:title>
      </cc:Work>
    </rdf:RDF>
  </metadata>
  <g
     id="layer1"
     transform="translate(20.902775,-17.70346)">
    <g
       transform="matrix(1.25,0,0,-1.25,-147.91115,491.81646)"
       id="g956">
      <g
         id="g958"
         clip-path="url(#clipPath960)">
        <g
           id="g964"
           transform="translate(126.1436,364.2924)">
          <path
             d="m 0,0 c 0,1.302 -0.024,1.539 -1.574,1.763 l 0,0.178 4.072,0 0,-0.178 C 1.078,1.574 1.041,1.219 1.041,0 l 0,-4.236 C 1.054,-6.533 0.782,-7.042 -1.787,-8.141 L -1.881,-7.94 C -0.142,-7.124 0,-5.846 0,-3.717 L 0,0 Z"
             style="fill:#231f20;fill-opacity:1;fill-rule:nonzero;stroke:none"
             id="path966" />
        </g>
        <g
           id="g968"
           transform="translate(130.6216,361.5589)">
          <path
             d="m 0,0 c -0.201,-0.592 -0.723,-1.824 -0.723,-2.391 0,-0.722 0.817,-0.722 1.35,-0.805 l 0,-0.177 -3.243,0 0,0.177 c 1.054,0.284 1.16,0.521 1.527,1.445 L 0.247,1.74 0.958,3.668 c 0.106,0.309 0.26,0.592 0.13,0.817 0.32,0.13 0.615,0.342 0.864,0.638 l 2.603,-6.934 c 0.319,-0.864 0.522,-1.207 1.468,-1.385 l 0,-0.177 -3.479,0 0,0.177 c 0.414,0.095 0.911,0.226 0.911,0.758 0,0.497 -0.45,1.609 -0.757,2.438 L 0,0 Z M 1.313,3.621 0.2,0.545 l 2.344,0 -1.231,3.076 z"
             style="fill:#231f20;fill-opacity:1;fill-rule:nonzero;stroke:none"
             id="path970" />
        </g>
        <g
           id="g972"
           transform="translate(142.3714,359.9137)">
          <path
             d="m 0,0 2.142,4.71 c 0.296,0.65 0.462,1.243 0.201,1.42 l 0.025,0.19 2.601,0 0,-0.178 C 4.213,5.988 3.752,5.704 3.799,4.876 l 0.26,-4.308 c 0.13,-1.645 0.13,-1.906 1.395,-2.119 l 0,-0.177 -3.891,0 0,0.177 c 0.911,0.143 1.49,0.249 1.431,1.29 l -0.32,5.172 -0.023,0 -3.017,-6.639 -0.13,0 -2.805,6.367 -0.023,0 c -0.19,-1.81 -0.285,-3.124 -0.368,-4.957 -0.023,-0.462 -0.011,-0.996 1.421,-1.233 l 0,-0.177 -3.301,0 0,0.177 c 1.053,0.178 1.159,0.687 1.325,1.645 l 0.438,3.326 0.154,1.609 c 0.071,0.782 -0.604,1.054 -1.302,1.113 l 0,0.178 2.556,0 0.011,-0.131 C -2.65,5.918 -2.331,5.207 -2.247,5.018 L 0,0 Z"
             style="fill:#231f20;fill-opacity:1;fill-rule:nonzero;stroke:none"
             id="path974" />
        </g>
        <g
           id="g976"
           transform="translate(148.3139,358.3629)">
          <path
             d="m 0,0 c 1.42,0.19 1.432,0.545 1.465,1.764 l 0,4.166 C 1.432,7.149 1.42,7.504 0,7.692 l 0,0.178 6.354,0 -0.142,-1.822 -0.177,0 C 5.952,7.574 4.851,7.587 3.657,7.587 l -1.149,0 0,-3.373 1.23,0 c 0.888,0 1.563,0.071 1.693,1.088 l 0.178,0 0,-2.639 -0.178,0 C 5.277,3.704 4.626,3.717 3.738,3.717 l -1.23,0 0,-1.941 c 0,-0.698 -0.165,-1.668 1.775,-1.668 1.492,0 2.225,0.566 2.52,2.058 l 0.177,0 C 6.969,1.267 6.816,0.533 6.579,-0.177 L 0,-0.177 0,0 Z"
             style="fill:#231f20;fill-opacity:1;fill-rule:nonzero;stroke:none"
             id="path978" />
        </g>
        <g
           id="g980"
           transform="translate(160.7156,364.1503)">
          <path
             d="m 0,0 -0.189,0 c -0.189,0.959 -0.497,1.882 -1.668,1.882 -0.759,0 -1.385,-0.521 -1.385,-1.302 0,-2.047 3.727,-1.976 3.727,-4.367 0,-1.526 -1.515,-2.32 -2.875,-2.32 -0.723,0 -1.48,0.213 -2.082,0.604 l -0.344,2.012 0.212,0 c 0.296,-1.137 1.089,-2.261 2.391,-2.261 0.875,0 1.563,0.521 1.563,1.444 0,2.107 -3.621,1.917 -3.621,4.284 0,1.385 1.372,2.26 2.637,2.26 0.604,0 1.208,-0.177 1.729,-0.46 L 0,0 Z"
             style="fill:#231f20;fill-opacity:1;fill-rule:nonzero;stroke:none"
             id="path982" />
        </g>
        <g
           id="g984"
           transform="translate(171.1906,363.7952)">
          <path
             d="m 0,0 -0.178,0 c -0.225,1.337 -1.007,2.295 -2.426,2.295 -2.166,0 -3.385,-1.774 -3.385,-3.81 0,-2.332 1.786,-3.952 3.504,-3.952 1.548,0 2.164,1.136 2.697,2.414 L 0.379,-3.124 C 0.235,-3.847 0.011,-4.556 -0.273,-5.243 -1.03,-5.609 -1.847,-5.751 -2.688,-5.751 c -2.474,0 -4.674,1.42 -4.674,4.094 0,2.107 1.645,4.237 4.77,4.237 0.899,0 1.81,-0.178 2.592,-0.639 L 0,0 Z"
             style="fill:#231f20;fill-opacity:1;fill-rule:nonzero;stroke:none"
             id="path986" />
        </g>
        <g
           id="g988"
           transform="translate(180.8482,362.209)">
          <path
             d="m 0,0 c 0,-2.544 -1.846,-4.164 -4.331,-4.164 -2.496,0 -4.332,1.62 -4.332,4.175 0,2.522 1.847,4.156 4.32,4.156 C -1.313,4.167 0,2.107 0,0 m -7.29,0.296 c 0,-1.834 0.97,-4.177 3.101,-4.177 1.951,0 2.817,1.988 2.817,3.68 -0.036,2.096 -1.255,4.083 -3.066,4.083 -2.036,0 -2.852,-1.987 -2.852,-3.586"
             style="fill:#231f20;fill-opacity:1;fill-rule:nonzero;stroke:none"
             id="path990" />
        </g>
        <g
           id="g992"
           transform="translate(190.3522,362.209)">
          <path
             d="m 0,0 c 0,-2.544 -1.846,-4.164 -4.331,-4.164 -2.497,0 -4.331,1.62 -4.331,4.175 0,2.522 1.846,4.156 4.32,4.156 C -1.313,4.167 0,2.107 0,0 m -7.29,0.296 c 0,-1.834 0.971,-4.177 3.101,-4.177 1.954,0 2.817,1.988 2.817,3.68 -0.036,2.096 -1.255,4.083 -3.066,4.083 -2.034,0 -2.852,-1.987 -2.852,-3.586"
             style="fill:#231f20;fill-opacity:1;fill-rule:nonzero;stroke:none"
             id="path994" />
        </g>
        <g
           id="g996"
           transform="translate(193.0784,360.1266)">
          <path
             d="m 0,0 c 0.035,-1.219 0.047,-1.574 1.574,-1.763 l 0,-0.178 -4.084,0 0,0.178 c 1.422,0.189 1.433,0.544 1.468,1.763 l 0,4.166 C -1.077,5.385 -1.088,5.74 -2.51,5.928 l 0,0.179 3.763,0 0,-0.179 C 0.047,5.74 0.035,5.385 0,4.166 L 0,0 Z m 5.349,6.107 0,-0.179 C 4,5.787 3.1,4.639 2.224,3.728 L 1.112,2.544 3.515,-0.106 C 4.237,-0.899 5.089,-1.609 6.141,-1.904 L 6.082,-2.083 c -2.059,0.166 -2.39,0.225 -3.503,1.444 L 0.165,1.989 2.07,4.059 c 1.243,1.396 1.006,1.787 0.213,1.869 l 0,0.179 3.066,0 z"
             style="fill:#231f20;fill-opacity:1;fill-rule:nonzero;stroke:none"
             id="path998" />
        </g>
        <g
           id="g1000"
           transform="translate(133.8122,355.1261)">
          <path
             d="m 0,0 0,-0.177 c -1.077,-0.118 -1.148,-0.782 -1.195,-2.344 l -0.072,-2.591 c -0.034,-1.528 -0.685,-3.077 -3.313,-3.077 -3.668,0 -3.289,2.651 -3.289,3.597 l 0,2.651 c -0.037,1.22 -0.048,1.574 -1.468,1.764 l 0,0.177 4.083,0 0,-0.177 c -1.551,-0.225 -1.574,-0.462 -1.574,-1.764 l 0,-2.426 c 0,-0.225 -0.379,-3.278 2.863,-3.278 2.557,0 2.308,2.438 2.308,3.882 l 0,1.242 c 0,1.503 -0.118,2.189 -1.774,2.344 L -3.431,0 0,0 Z"
             style="fill:#231f20;fill-opacity:1;fill-rule:nonzero;stroke:none"
             id="path1002" />
        </g>
        <g
           id="g1004"
           transform="translate(142.0467,348.937)">
          <path
             d="m 0,0 -0.059,4.32 c -0.012,1.124 -0.319,1.456 -1.656,1.692 l 0,0.177 3.228,0 0,-0.177 C 0.697,5.905 0.544,5.455 0.45,4.686 0.284,3.385 0.343,0.532 0.402,-2.047 L 0.249,-2.084 c -1.894,2.237 -4,4.309 -6,6.463 l 0,-2.179 c 0,-2.934 -0.071,-3.537 1.645,-3.88 l 0,-0.179 -3.537,0 0,0.179 c 1.597,0.165 1.537,1.255 1.537,3.94 l 0,1.775 c 0,1.184 -0.189,1.646 -1.692,1.977 l 0,0.177 1.953,0 L 0,0 Z"
             style="fill:#231f20;fill-opacity:1;fill-rule:nonzero;stroke:none"
             id="path1006" />
        </g>
        <g
           id="g1008"
           transform="translate(146.574,349.0189)">
          <path
             d="m 0,0 c 0.035,-1.218 0.049,-1.574 1.468,-1.763 l 0,-0.178 -3.976,0 0,0.178 c 1.419,0.189 1.432,0.545 1.467,1.763 l 0,4.166 C -1.076,5.386 -1.089,5.74 -2.508,5.93 l 0,0.177 3.976,0 0,-0.177 C 0.049,5.74 0.035,5.386 0,4.166 L 0,0 Z"
             style="fill:#231f20;fill-opacity:1;fill-rule:nonzero;stroke:none"
             id="path1010" />
        </g>
        <g
           id="g1012"
           transform="translate(157.1892,355.1261)">
          <path
             d="m 0,0 0,-0.177 c -1.113,-0.095 -1.456,-1.03 -2.189,-2.746 l -2.262,-5.396 -0.164,0 -2.674,6.401 c -0.356,0.866 -0.628,1.623 -1.681,1.741 l 0,0.177 3.751,0 0,-0.177 C -6.888,-0.343 -6.343,-1.29 -6.036,-2.036 l 1.893,-4.568 1.398,3.35 c 1.016,2.426 1.206,2.816 -0.592,3.077 L -3.337,0 0,0 Z"
             style="fill:#231f20;fill-opacity:1;fill-rule:nonzero;stroke:none"
             id="path1014" />
        </g>
        <g
           id="g1016"
           transform="translate(157.2956,347.2569)">
          <path
             d="m 0,0 c 1.421,0.188 1.433,0.544 1.468,1.762 l 0,4.166 C 1.433,7.148 1.421,7.502 0,7.692 l 0,0.177 6.356,0 -0.142,-1.822 -0.178,0 C 5.953,7.574 4.852,7.585 3.657,7.585 l -1.147,0 0,-3.372 1.231,0 c 0.885,0 1.562,0.07 1.691,1.088 l 0.179,0 0,-2.639 -0.179,0 C 5.279,3.703 4.626,3.714 3.741,3.714 l -1.231,0 0,-1.94 c 0,-0.697 -0.166,-1.668 1.775,-1.668 1.49,0 2.225,0.568 2.52,2.059 l 0.178,0 C 6.971,1.265 6.817,0.532 6.581,-0.179 L 0,-0.179 0,0 Z"
             style="fill:#231f20;fill-opacity:1;fill-rule:nonzero;stroke:none"
             id="path1018" />
        </g>
        <g
           id="g1020"
           transform="translate(166.2053,352.6888)">
          <path
             d="m 0,0 c 0,1.81 -0.059,2.082 -1.385,2.201 l 0,0.165 2.888,0.095 C 4.485,2.556 4.722,1.1 4.722,0.532 4.722,-0.462 4.107,-1.03 3.255,-1.41 l 0.059,-0.082 c 0.911,-1.597 2.047,-3.633 4,-4.036 L 7.278,-5.704 c -1.255,0.059 -2.177,0.022 -2.864,0.733 -0.781,0.816 -1.396,1.857 -1.644,2.368 -0.474,0.981 -0.9,0.696 -1.728,0.84 l 0,-1.907 c 0,-1.301 0.022,-1.537 1.644,-1.762 l 0,-0.179 -4.153,0 0,0.179 C -0.048,-5.244 -0.036,-4.888 0,-3.67 L 0,0 Z m 1.042,-1.563 c 1.136,0.011 2.461,0.533 2.461,1.846 0,1.386 -1.219,1.942 -2.461,1.93 l 0,-3.776 z"
             style="fill:#231f20;fill-opacity:1;fill-rule:nonzero;stroke:none"
             id="path1022" />
        </g>
        <g
           id="g1024"
           transform="translate(177.9975,353.0432)">
          <path
             d="m 0,0 -0.189,0 c -0.189,0.959 -0.498,1.883 -1.668,1.883 -0.758,0 -1.384,-0.521 -1.384,-1.303 0,-2.047 3.726,-1.976 3.726,-4.368 0,-1.525 -1.515,-2.318 -2.875,-2.318 -0.722,0 -1.48,0.213 -2.084,0.604 l -0.342,2.01 0.212,0 c 0.297,-1.136 1.089,-2.259 2.392,-2.259 0.875,0 1.56,0.519 1.56,1.442 0,2.107 -3.619,1.918 -3.619,4.286 0,1.385 1.371,2.259 2.637,2.259 0.604,0 1.208,-0.177 1.729,-0.461 L 0,0 Z"
             style="fill:#231f20;fill-opacity:1;fill-rule:nonzero;stroke:none"
             id="path1026" />
        </g>
        <g
           id="g1028"
           transform="translate(181.458,349.0189)">
          <path
             d="m 0,0 c 0.035,-1.218 0.048,-1.574 1.468,-1.763 l 0,-0.178 -3.978,0 0,0.178 c 1.422,0.189 1.433,0.545 1.469,1.763 l 0,4.166 C -1.077,5.386 -1.088,5.74 -2.51,5.93 l 0,0.177 3.978,0 0,-0.177 C 0.048,5.74 0.035,5.386 0,4.166 L 0,0 Z"
             style="fill:#231f20;fill-opacity:1;fill-rule:nonzero;stroke:none"
             id="path1030" />
        </g>
        <g
           id="g1032"
           transform="translate(190.7406,355.4927)">
          <path
             d="M 0,0 0.094,0 0.26,-2.213 0.094,-2.248 c -0.414,1.468 -1.064,1.526 -2.425,1.526 l -0.712,0 0,-5.467 c 0,-1.467 0.072,-1.858 1.658,-2.047 l 0,-0.179 -4.355,0 0,0.179 c 1.586,0.189 1.656,0.58 1.656,2.047 l 0,5.467 -0.708,0 c -1.363,0 -2.013,-0.058 -2.428,-1.526 L -7.384,-2.213 -7.22,0 l 0.095,0 0.119,-0.106 c 0.296,-0.273 0.344,-0.261 0.733,-0.261 l 5.421,0 c 0.39,0 0.437,-0.012 0.734,0.261 L 0,0 Z"
             style="fill:#231f20;fill-opacity:1;fill-rule:nonzero;stroke:none"
             id="path1034" />
        </g>
        <g
           id="g1036"
           transform="translate(198.814,355.1261)">
          <path
             d="M 0,0 0,-0.177 C -1.03,-0.26 -1.538,-0.828 -2.036,-1.681 l -1.396,-2.768 0,-1.339 c 0.024,-1.36 0.047,-1.845 1.562,-2.081 l 0,-0.179 -4.166,0 0,0.179 c 1.515,0.236 1.54,0.721 1.562,2.081 l 0,0.948 -1.23,2.686 c -0.45,0.994 -0.77,1.835 -1.965,1.977 l 0,0.177 3.267,0 0,-0.177 c -0.971,-0.131 -0.841,-0.521 -0.461,-1.35 l 1.182,-2.556 1.03,1.953 c 0.733,1.373 0.639,1.822 -0.389,1.953 L -3.04,0 0,0 Z"
             style="fill:#231f20;fill-opacity:1;fill-rule:nonzero;stroke:none"
             id="path1038" />
        </g>
        <path
           d="m 125.892,344.744 72.172,0 0,-0.241 -72.172,0 0,0.241 z"
           style="fill:#231f20;fill-opacity:1;fill-rule:nonzero;stroke:none"
           id="path1040" />
        <g
           id="g1042"
           transform="translate(127.1128,342.0509)">
          <path
             d="m 0,0 0.715,0 1.935,-4.431 -0.815,0 -0.446,1.063 -2.081,0 -0.452,-1.063 -0.792,0 L 0,0 Z m 1.105,-2.684 -0.76,1.76 -0.753,-1.76 1.513,0 z"
             style="fill:#231f20;fill-opacity:1;fill-rule:nonzero;stroke:none"
             id="path1044" />
        </g>
        <g
           id="g1046"
           transform="translate(130.4184,339.4877)">
          <path
             d="m 0,0 0,2.532 0.773,0 0,-2.502 c 0,-0.816 0.421,-1.257 1.112,-1.257 0.685,0 1.106,0.415 1.106,1.227 l 0,2.532 0.772,0 0,-2.494 C 3.763,-1.277 3.022,-1.937 1.872,-1.937 0.729,-1.937 0,-1.277 0,0"
             style="fill:#231f20;fill-opacity:1;fill-rule:nonzero;stroke:none"
             id="path1048" />
        </g>
        <g
           id="g1050"
           transform="translate(135.0746,338.2611)">
          <path
             d="m 0,0 0.466,0.553 c 0.42,-0.363 0.842,-0.571 1.388,-0.571 0.477,0 0.778,0.22 0.778,0.553 l 0,0.013 C 2.632,0.861 2.458,1.032 1.64,1.219 0.704,1.446 0.176,1.723 0.176,2.533 l 0,0.013 c 0,0.754 0.629,1.275 1.502,1.275 0.64,0 1.149,-0.195 1.596,-0.553 L 2.86,2.683 C 2.463,2.979 2.068,3.136 1.665,3.136 1.212,3.136 0.949,2.904 0.949,2.614 l 0,-0.011 C 0.949,2.263 1.15,2.112 1.991,1.911 2.922,1.684 3.406,1.351 3.406,0.623 l 0,-0.014 C 3.406,-0.214 2.758,-0.703 1.835,-0.703 1.163,-0.703 0.528,-0.47 0,0"
             style="fill:#231f20;fill-opacity:1;fill-rule:nonzero;stroke:none"
             id="path1052" />
        </g>
        <g
           id="g1054"
           transform="translate(140.5044,341.303)">
          <path
             d="m 0,0 -1.396,0 0,0.716 3.57,0 0,-0.716 -1.395,0 0,-3.683 L 0,-3.683 0,0 Z"
             style="fill:#231f20;fill-opacity:1;fill-rule:nonzero;stroke:none"
             id="path1056" />
        </g>
        <g
           id="g1058"
           transform="translate(143.6217,342.0192)">
          <path
             d="M 0,0 1.96,0 C 2.513,0 2.947,-0.164 3.229,-0.439 3.462,-0.68 3.593,-1.006 3.593,-1.388 l 0,-0.013 c 0,-0.722 -0.433,-1.157 -1.048,-1.334 l 1.188,-1.664 -0.912,0 -1.081,1.533 -0.969,0 0,-1.533 L 0,-4.399 0,0 Z m 1.903,-2.182 c 0.553,0 0.905,0.292 0.905,0.737 l 0,0.013 c 0,0.471 -0.339,0.729 -0.911,0.729 l -1.126,0 0,-1.479 1.132,0 z"
             style="fill:#231f20;fill-opacity:1;fill-rule:nonzero;stroke:none"
             id="path1060" />
        </g>
        <g
           id="g1062"
           transform="translate(149.848,342.0509)">
          <path
             d="m 0,0 0.716,0 1.936,-4.431 -0.816,0 -0.447,1.063 -2.08,0 -0.452,-1.063 -0.792,0 L 0,0 Z m 1.106,-2.684 -0.76,1.76 -0.754,-1.76 1.514,0 z"
             style="fill:#231f20;fill-opacity:1;fill-rule:nonzero;stroke:none"
             id="path1064" />
        </g>
        <g
           id="g1066"
           transform="translate(153.3795,342.0192)">
          <path
             d="m 0,0 0.774,0 0,-3.694 2.312,0 0,-0.705 L 0,-4.399 0,0 Z"
             style="fill:#231f20;fill-opacity:1;fill-rule:nonzero;stroke:none"
             id="path1068" />
        </g>
        <path
           d="m 157.44,342.019 0.773,0 0,-4.399 -0.773,0 0,4.399 z"
           style="fill:#231f20;fill-opacity:1;fill-rule:nonzero;stroke:none"
           id="path1070" />
        <g
           id="g1072"
           transform="translate(161.0719,342.0509)">
          <path
             d="m 0,0 0.716,0 1.935,-4.431 -0.815,0 -0.447,1.063 -2.08,0 -0.452,-1.063 -0.792,0 L 0,0 Z m 1.106,-2.684 -0.76,1.76 -0.754,-1.76 1.514,0 z"
             style="fill:#231f20;fill-opacity:1;fill-rule:nonzero;stroke:none"
             id="path1074" />
        </g>
        <g
           id="g1076"
           transform="translate(118.4277,359.4947)">
          <path
             d="m 0,0 c -0.589,-0.34 -1.43,-0.552 -2.365,-0.552 -0.936,0 -1.777,0.212 -2.366,0.551 -0.589,0.34 -1.431,0.552 -2.365,0.552 -0.935,0 -1.779,-0.212 -2.366,-0.552 -0.59,-0.339 -1.431,-0.551 -2.367,-0.551 -0.934,0 -1.776,0.212 -2.364,0.551 -0.59,0.34 -1.431,0.552 -2.367,0.552 -0.087,0 -0.174,-0.004 -0.261,-0.007 l 0,-2.19 c 0,-0.331 0.012,-0.65 0.031,-0.964 0.076,0.003 0.153,0.007 0.23,0.007 0.936,0 1.777,-0.213 2.367,-0.553 0.588,-0.339 1.43,-0.551 2.364,-0.551 0.936,0 1.777,0.212 2.367,0.551 0.587,0.34 1.431,0.553 2.366,0.553 0.934,0 1.776,-0.213 2.365,-0.553 0.589,-0.339 1.43,-0.551 2.366,-0.551 0.935,0 1.776,0.212 2.365,0.552 0.589,0.339 1.43,0.552 2.364,0.552 0.08,0 0.156,-0.004 0.232,-0.007 0.019,0.314 0.03,0.633 0.03,0.964 l 0,2.19 C 2.54,0.547 2.455,0.551 2.364,0.551 1.43,0.551 0.589,0.339 0,0"
             style="fill:#176fc1;fill-opacity:1;fill-rule:nonzero;stroke:none"
             id="path1078" />
        </g>
        <g
           id="g1080"
           transform="translate(116.0625,352.6331)">
          <path
             d="M 0,0 C -0.936,0 -1.778,0.212 -2.366,0.551 -2.955,0.89 -3.797,1.104 -4.731,1.104 -5.666,1.104 -6.509,0.89 -7.097,0.551 -7.687,0.212 -8.528,0 -9.464,0 c -0.934,-0.001 -1.776,0.212 -2.364,0.551 -0.524,0.302 -1.247,0.503 -2.057,0.543 0.414,-1.387 1.028,-2.553 1.752,-3.547 0.107,-0.048 0.21,-0.096 0.305,-0.151 0.588,-0.339 1.43,-0.552 2.364,-0.552 0.936,0 1.777,0.213 2.367,0.552 0.588,0.34 1.431,0.553 2.366,0.553 0.934,0 1.776,-0.212 2.365,-0.553 0.588,-0.339 1.43,-0.552 2.366,-0.552 0.935,0 1.776,0.213 2.365,0.552 0.095,0.056 0.199,0.104 0.305,0.152 0.725,0.993 1.336,2.159 1.751,3.546 C 3.611,1.054 2.888,0.853 2.365,0.551 1.776,0.212 0.935,0 0,0"
             style="fill:#176fc1;fill-opacity:1;fill-rule:nonzero;stroke:none"
             id="path1082" />
        </g>
        <g
           id="g1084"
           transform="translate(113.6964,346.8747)">
          <path
             d="M 0,0 C -0.589,0.338 -1.431,0.552 -2.365,0.552 -3.3,0.552 -4.143,0.338 -4.731,0 c -0.284,-0.164 -0.626,-0.296 -1.008,-0.391 1.356,-0.907 2.61,-1.573 3.374,-2.212 0.764,0.639 2.017,1.305 3.373,2.212 C 0.626,-0.296 0.284,-0.164 0,0"
             style="fill:#176fc1;fill-opacity:1;fill-rule:nonzero;stroke:none"
             id="path1086" />
        </g>
        <g
           id="g1088"
           transform="translate(118.4277,365.8046)">
          <path
             d="m 0,0 c -0.589,-0.34 -1.43,-0.553 -2.365,-0.553 -0.936,0 -1.777,0.213 -2.366,0.553 -0.589,0.338 -1.431,0.551 -2.365,0.551 -0.935,0 -1.779,-0.213 -2.366,-0.551 -0.59,-0.34 -1.431,-0.553 -2.367,-0.553 -0.934,0 -1.776,0.213 -2.364,0.553 -0.59,0.338 -1.431,0.551 -2.367,0.551 -0.087,0 -0.174,-0.003 -0.261,-0.007 l 0,-3.155 c 0.087,0.003 0.174,0.006 0.261,0.006 0.936,0 1.777,-0.211 2.367,-0.55 0.588,-0.341 1.43,-0.553 2.364,-0.553 0.936,0 1.777,0.212 2.367,0.553 0.587,0.339 1.431,0.55 2.366,0.55 0.934,0 1.776,-0.211 2.365,-0.55 0.589,-0.341 1.43,-0.553 2.366,-0.553 0.935,0 1.776,0.212 2.365,0.553 0.589,0.339 1.43,0.55 2.364,0.55 0.091,0 0.176,-0.003 0.262,-0.006 l 0,3.155 C 2.54,0.548 2.455,0.551 2.364,0.551 1.43,0.551 0.589,0.338 0,0"
             style="fill:#176fc1;fill-opacity:1;fill-rule:nonzero;stroke:none"
             id="path1090" />
        </g>
        <g
           id="g1092"
           transform="translate(111.3313,372.2834)">
          <path
             d="m 0,0 c -1.761,0 -3.188,-1.427 -3.188,-3.188 0,-0.158 0.016,-0.314 0.038,-0.466 0.293,0.088 0.558,0.2 0.784,0.33 0.588,0.338 1.431,0.551 2.366,0.551 0.934,0 1.776,-0.213 2.365,-0.551 0.227,-0.131 0.492,-0.242 0.785,-0.331 0.022,0.153 0.038,0.308 0.038,0.467 C 3.188,-1.427 1.761,0 0,0 m -4.345,-0.936 c -0.063,-0.01 -0.126,-0.027 -0.191,-0.039 -0.168,-0.029 -0.328,-0.033 -0.489,-0.027 -0.166,0.006 -0.361,0.045 -0.471,0.117 -0.028,-0.166 0.177,-0.385 0.351,-0.503 0.12,-0.081 0.245,-0.151 0.378,-0.195 0.053,-0.019 0.105,-0.028 0.156,-0.047 0.16,-0.056 0.317,-0.158 0.44,-0.268 0.162,-0.142 0.295,-0.323 0.419,-0.482 0.099,0.465 0.285,0.902 0.538,1.288 -0.168,0.06 -0.35,0.125 -0.548,0.156 -0.176,0.027 -0.384,0.031 -0.583,0 m 11.627,-2.252 -3.5,0.627 c 0.035,-0.204 0.057,-0.414 0.057,-0.627 0,-0.213 -0.022,-0.421 -0.057,-0.626 l 3.5,0.626 z m -11.068,0.627 -3.497,-0.627 3.499,-0.626 c -0.032,0.205 -0.056,0.413 -0.056,0.626 0,0.213 0.024,0.423 0.054,0.627 m 8.45,0.853 c 0.039,0.053 0.07,0.11 0.109,0.162 0.097,0.141 0.207,0.256 0.324,0.366 0.122,0.112 0.288,0.223 0.418,0.251 C 5.416,-0.794 5.116,-0.782 4.909,-0.823 4.768,-0.85 4.634,-0.888 4.504,-0.951 4.454,-0.976 4.411,-1.006 4.36,-1.03 4.208,-1.102 4.026,-1.141 3.859,-1.151 3.646,-1.165 3.423,-1.131 3.223,-1.105 l -0.003,0 c 0.252,-0.388 0.437,-0.823 0.535,-1.292 0.163,0.077 0.334,0.16 0.496,0.278 0.144,0.104 0.294,0.249 0.413,0.411 m -6.848,1.674 -2.2,1.232 1.227,-2.202 c 0.266,0.38 0.594,0.709 0.973,0.97 m 5.34,-0.97 1.227,2.202 -2.199,-1.232 c 0.378,-0.261 0.707,-0.59 0.972,-0.97 M 0.645,0.593 0,7.007 -0.646,0.593 c 0.211,0.034 0.425,0.058 0.646,0.058 0.219,0 0.434,-0.024 0.645,-0.058 m -2.882,0.724 c 0.024,-0.049 0.055,-0.094 0.079,-0.144 0.071,-0.153 0.112,-0.335 0.121,-0.5 0.013,-0.215 -0.02,-0.437 -0.046,-0.636 l 0,-0.004 C -1.696,0.285 -1.259,0.47 -0.792,0.569 -0.868,0.731 -0.95,0.904 -1.069,1.064 -1.174,1.209 -1.319,1.358 -1.48,1.475 -1.533,1.514 -1.589,1.546 -1.643,1.584 -1.783,1.683 -1.897,1.792 -2.009,1.909 -2.12,2.031 -2.232,2.198 -2.258,2.328 -2.394,2.228 -2.405,1.929 -2.365,1.722 -2.337,1.579 -2.299,1.445 -2.237,1.317 M 2.252,0.573 c 0.027,0.176 0.03,0.385 0,0.584 C 2.243,1.221 2.223,1.284 2.212,1.348 2.184,1.517 2.179,1.674 2.184,1.837 2.191,2.001 2.228,2.199 2.302,2.309 2.137,2.335 1.918,2.131 1.8,1.956 1.718,1.835 1.649,1.713 1.604,1.577 1.586,1.528 1.575,1.473 1.558,1.423 1.501,1.263 1.399,1.105 1.29,0.981 1.147,0.823 0.967,0.687 0.806,0.566 c 0,0 0,-0.001 -0.001,-0.001 0.467,-0.101 0.903,-0.286 1.291,-0.539 0.06,0.169 0.123,0.351 0.156,0.547"
             style="fill:#e7b20f;fill-opacity:1;fill-rule:nonzero;stroke:none"
             id="path1094" />
        </g>
      </g>
    </g>
    <g
       transform="matrix(1.25,0,0,-1.25,-147.91115,491.81646)"
       id="g1096">
      <g
         id="g1098"
         clip-path="url(#clipPath1100)" />
    </g>
  </g>
</svg>
