<?xml version="1.0" encoding="UTF-8" standalone="no"?>
<svg
   xmlns:dc="http://purl.org/dc/elements/1.1/"
   xmlns:cc="http://creativecommons.org/ns#"
   xmlns:rdf="http://www.w3.org/1999/02/22-rdf-syntax-ns#"
   xmlns:svg="http://www.w3.org/2000/svg"
   xmlns="http://www.w3.org/2000/svg"
   version="1.1"
   id="svg7598"
   viewBox="0 0 213.49312 52.17775"
   height="14.72572mm"
   width="60.252502mm">
  <defs
     id="defs7600">
    <clipPath
       id="clipPath1100"
       clipPathUnits="userSpaceOnUse">
      <path
         id="path1102"
         d="m 0,0 841.89,0 0,595.276 L 0,595.276 0,0 Z" />
    </clipPath>
    <clipPath
       id="clipPath960"
       clipPathUnits="userSpaceOnUse">
      <path
         id="path962"
         d="m 91.492,335.732 110.316,0 0,46.021 -110.316,0 0,-46.021 z" />
    </clipPath>
    <clipPath
       id="clipPath348"
       clipPathUnits="userSpaceOnUse">
      <path
         id="path350"
         d="m 0,0 841.89,0 0,595.276 L 0,595.276 0,0 Z" />
    </clipPath>
    <clipPath
       id="clipPath208"
       clipPathUnits="userSpaceOnUse">
      <path
         id="path210"
         d="m 99.713,240.803 100.346,0 0,44.788 -100.346,0 0,-44.788 z" />
    </clipPath>
  </defs>
  <metadata
     id="metadata7603">
    <rdf:RDF>
      <cc:Work
         rdf:about="">
        <dc:format>image/svg+xml</dc:format>
        <dc:type
           rdf:resource="http://purl.org/dc/dcmitype/StillImage" />
        <dc:title></dc:title>
      </cc:Work>
    </rdf:RDF>
  </metadata>
  <g
     transform="translate(-483.77923,-303.7892)"
     id="layer1">
    <g
       style="fill:#ffffff"
       id="g204"
       transform="matrix(1.25,0,0,-1.25,357.02986,659.53158)">
      <g
         style="fill:#ffffff"
         clip-path="url(#clipPath208)"
         id="g206">
        <g
           style="fill:#ffffff"
           transform="translate(125.9381,269.5952)"
           id="g212">
          <path
             id="path214"
             style="fill:#ffffff;fill-opacity:1;fill-rule:nonzero;stroke:none"
             d="m 0,0 c 0,1.302 -0.024,1.539 -1.574,1.763 l 0,0.178 4.072,0 0,-0.178 C 1.078,1.574 1.041,1.219 1.041,0 l 0,-4.237 C 1.054,-6.533 0.782,-7.042 -1.787,-8.142 l -0.095,0.201 C -0.142,-7.124 0,-5.847 0,-3.717 L 0,0 Z" />
        </g>
        <g
           style="fill:#ffffff"
           transform="translate(130.4164,266.8616)"
           id="g216">
          <path
             id="path218"
             style="fill:#ffffff;fill-opacity:1;fill-rule:nonzero;stroke:none"
             d="m 0,0 c -0.201,-0.592 -0.724,-1.824 -0.724,-2.391 0,-0.722 0.818,-0.722 1.351,-0.805 l 0,-0.177 -3.243,0 0,0.177 c 1.054,0.284 1.16,0.521 1.526,1.445 L 0.247,1.74 0.958,3.669 c 0.106,0.308 0.26,0.591 0.13,0.816 0.32,0.131 0.615,0.343 0.864,0.639 l 2.604,-6.935 c 0.319,-0.864 0.521,-1.207 1.467,-1.385 l 0,-0.177 -3.479,0 0,0.177 c 0.414,0.095 0.912,0.226 0.912,0.757 0,0.498 -0.451,1.61 -0.758,2.439 L 0,0 Z M 1.313,3.621 0.2,0.545 l 2.344,0 -1.231,3.076 z" />
        </g>
        <g
           style="fill:#ffffff"
           transform="translate(142.1671,265.2162)"
           id="g220">
          <path
             id="path222"
             style="fill:#ffffff;fill-opacity:1;fill-rule:nonzero;stroke:none"
             d="m 0,0 2.142,4.71 c 0.296,0.65 0.462,1.243 0.201,1.42 l 0.025,0.19 2.601,0 0,-0.178 C 4.213,5.988 3.752,5.704 3.799,4.876 l 0.26,-4.308 c 0.13,-1.645 0.13,-1.906 1.396,-2.119 l 0,-0.177 -3.892,0 0,0.177 c 0.911,0.143 1.49,0.249 1.431,1.29 l -0.32,5.172 -0.023,0 -3.017,-6.639 -0.13,0 -2.805,6.367 -0.023,0 c -0.19,-1.81 -0.285,-3.124 -0.368,-4.957 -0.023,-0.462 -0.012,-0.996 1.421,-1.233 l 0,-0.177 -3.301,0 0,0.177 c 1.053,0.178 1.158,0.687 1.325,1.645 l 0.437,3.326 0.154,1.61 c 0.072,0.781 -0.603,1.053 -1.301,1.112 l 0,0.178 2.556,0 0.011,-0.13 C -2.651,5.918 -2.331,5.207 -2.248,5.018 L 0,0 Z" />
        </g>
        <g
           style="fill:#ffffff"
           transform="translate(148.11,263.6653)"
           id="g224">
          <path
             id="path226"
             style="fill:#ffffff;fill-opacity:1;fill-rule:nonzero;stroke:none"
             d="m 0,0 c 1.421,0.19 1.432,0.545 1.466,1.764 l 0,4.166 C 1.432,7.149 1.421,7.504 0,7.693 l 0,0.178 6.355,0 -0.143,-1.822 -0.176,0 C 5.952,7.575 4.851,7.587 3.657,7.587 l -1.148,0 0,-3.373 1.23,0 c 0.887,0 1.562,0.071 1.692,1.088 l 0.178,0 0,-2.638 -0.178,0 C 5.277,3.704 4.626,3.718 3.739,3.718 l -1.23,0 0,-1.942 c 0,-0.697 -0.166,-1.668 1.775,-1.668 1.491,0 2.224,0.566 2.52,2.059 l 0.177,0 C 6.97,1.267 6.816,0.533 6.58,-0.177 L 0,-0.177 0,0 Z" />
        </g>
        <g
           style="fill:#ffffff"
           transform="translate(160.5126,269.4532)"
           id="g228">
          <path
             id="path230"
             style="fill:#ffffff;fill-opacity:1;fill-rule:nonzero;stroke:none"
             d="m 0,0 -0.189,0 c -0.189,0.959 -0.497,1.882 -1.668,1.882 -0.759,0 -1.385,-0.521 -1.385,-1.302 0,-2.047 3.727,-1.976 3.727,-4.367 0,-1.526 -1.515,-2.32 -2.875,-2.32 -0.723,0 -1.48,0.213 -2.082,0.604 l -0.345,2.012 0.213,0 c 0.295,-1.137 1.089,-2.261 2.391,-2.261 0.874,0 1.563,0.52 1.563,1.444 0,2.106 -3.621,1.917 -3.621,4.284 0,1.385 1.372,2.26 2.637,2.26 0.604,0 1.208,-0.177 1.729,-0.46 L 0,0 Z" />
        </g>
        <g
           style="fill:#ffffff"
           transform="translate(170.9884,269.0981)"
           id="g232">
          <path
             id="path234"
             style="fill:#ffffff;fill-opacity:1;fill-rule:nonzero;stroke:none"
             d="m 0,0 -0.178,0 c -0.225,1.338 -1.007,2.295 -2.426,2.295 -2.166,0 -3.386,-1.774 -3.386,-3.81 0,-2.332 1.787,-3.952 3.505,-3.952 1.548,0 2.164,1.135 2.697,2.413 L 0.379,-3.125 C 0.235,-3.847 0.011,-4.557 -0.273,-5.243 -1.03,-5.61 -1.847,-5.752 -2.688,-5.752 c -2.474,0 -4.675,1.42 -4.675,4.095 0,2.107 1.646,4.237 4.77,4.237 0.9,0 1.811,-0.178 2.593,-0.639 L 0,0 Z" />
        </g>
        <g
           style="fill:#ffffff"
           transform="translate(180.6467,267.5117)"
           id="g236">
          <path
             id="path238"
             style="fill:#ffffff;fill-opacity:1;fill-rule:nonzero;stroke:none"
             d="m 0,0 c 0,-2.545 -1.846,-4.165 -4.332,-4.165 -2.496,0 -4.332,1.62 -4.332,4.176 0,2.522 1.847,4.156 4.321,4.156 C -1.313,4.167 0,2.107 0,0 m -7.29,0.296 c 0,-1.834 0.97,-4.177 3.101,-4.177 1.951,0 2.817,1.988 2.817,3.68 -0.036,2.096 -1.255,4.083 -3.066,4.083 -2.036,0 -2.852,-1.987 -2.852,-3.586" />
        </g>
        <g
           style="fill:#ffffff"
           transform="translate(190.1515,267.5117)"
           id="g240">
          <path
             id="path242"
             style="fill:#ffffff;fill-opacity:1;fill-rule:nonzero;stroke:none"
             d="m 0,0 c 0,-2.545 -1.846,-4.165 -4.331,-4.165 -2.498,0 -4.332,1.62 -4.332,4.176 0,2.522 1.847,4.156 4.321,4.156 C -1.313,4.167 0,2.107 0,0 m -7.29,0.296 c 0,-1.834 0.971,-4.177 3.101,-4.177 1.953,0 2.817,1.988 2.817,3.68 -0.036,2.096 -1.255,4.083 -3.066,4.083 -2.034,0 -2.852,-1.987 -2.852,-3.586" />
        </g>
        <g
           style="fill:#ffffff"
           transform="translate(192.8778,265.4291)"
           id="g244">
          <path
             id="path246"
             style="fill:#ffffff;fill-opacity:1;fill-rule:nonzero;stroke:none"
             d="m 0,0 c 0.035,-1.219 0.047,-1.574 1.574,-1.764 l 0,-0.177 -4.084,0 0,0.177 c 1.421,0.19 1.433,0.545 1.468,1.764 l 0,4.166 C -1.077,5.385 -1.089,5.74 -2.51,5.929 l 0,0.178 3.763,0 0,-0.178 C 0.047,5.74 0.035,5.385 0,4.166 L 0,0 Z m 5.349,6.107 0,-0.178 C 4,5.787 3.101,4.639 2.225,3.728 L 1.112,2.544 3.515,-0.106 C 4.237,-0.899 5.09,-1.609 6.142,-1.905 L 6.083,-2.083 c -2.059,0.166 -2.39,0.225 -3.504,1.444 l -2.414,2.628 1.906,2.07 c 1.242,1.396 1.005,1.788 0.212,1.87 l 0,0.178 3.066,0 z" />
        </g>
        <g
           style="fill:#ffffff"
           transform="translate(133.6072,260.4283)"
           id="g248">
          <path
             id="path250"
             style="fill:#ffffff;fill-opacity:1;fill-rule:nonzero;stroke:none"
             d="m 0,0 0,-0.177 c -1.077,-0.118 -1.148,-0.782 -1.195,-2.344 l -0.072,-2.591 c -0.034,-1.528 -0.686,-3.077 -3.313,-3.077 -3.668,0 -3.29,2.651 -3.29,3.597 l 0,2.651 c -0.036,1.22 -0.048,1.574 -1.468,1.764 l 0,0.177 4.084,0 0,-0.177 c -1.551,-0.225 -1.574,-0.462 -1.574,-1.764 l 0,-2.426 c 0,-0.225 -0.38,-3.279 2.863,-3.279 2.557,0 2.308,2.438 2.308,3.883 l 0,1.242 c 0,1.503 -0.118,2.189 -1.775,2.344 L -3.432,0 0,0 Z" />
        </g>
        <g
           style="fill:#ffffff"
           transform="translate(141.8423,254.2387)"
           id="g252">
          <path
             id="path254"
             style="fill:#ffffff;fill-opacity:1;fill-rule:nonzero;stroke:none"
             d="m 0,0 -0.059,4.32 c -0.012,1.124 -0.319,1.456 -1.657,1.693 l 0,0.177 3.229,0 0,-0.177 C 0.697,5.906 0.544,5.456 0.45,4.686 0.284,3.386 0.343,0.532 0.402,-2.048 L 0.249,-2.084 c -1.894,2.237 -4,4.309 -6.001,6.464 l 0,-2.18 c 0,-2.934 -0.07,-3.537 1.646,-3.88 l 0,-0.179 -3.538,0 0,0.179 c 1.597,0.164 1.537,1.255 1.537,3.94 l 0,1.775 c 0,1.184 -0.189,1.646 -1.691,1.978 l 0,0.177 1.952,0 L 0,0 Z" />
        </g>
        <g
           style="fill:#ffffff"
           transform="translate(146.37,254.3206)"
           id="g256">
          <path
             id="path258"
             style="fill:#ffffff;fill-opacity:1;fill-rule:nonzero;stroke:none"
             d="m 0,0 c 0.035,-1.218 0.049,-1.574 1.468,-1.763 l 0,-0.178 -3.976,0 0,0.178 c 1.419,0.189 1.432,0.545 1.467,1.763 l 0,4.166 C -1.076,5.387 -1.089,5.74 -2.508,5.931 l 0,0.177 3.976,0 0,-0.177 C 0.049,5.74 0.035,5.387 0,4.166 L 0,0 Z" />
        </g>
        <g
           style="fill:#ffffff"
           transform="translate(156.986,260.4283)"
           id="g260">
          <path
             id="path262"
             style="fill:#ffffff;fill-opacity:1;fill-rule:nonzero;stroke:none"
             d="m 0,0 0,-0.177 c -1.113,-0.095 -1.456,-1.03 -2.189,-2.746 l -2.262,-5.397 -0.165,0 -2.674,6.402 c -0.356,0.866 -0.628,1.623 -1.681,1.741 l 0,0.177 3.752,0 0,-0.177 C -6.888,-0.343 -6.344,-1.29 -6.036,-2.036 l 1.893,-4.568 1.398,3.349 c 1.016,2.427 1.206,2.817 -0.593,3.078 L -3.338,0 0,0 Z" />
        </g>
        <g
           style="fill:#ffffff"
           transform="translate(157.0924,252.5585)"
           id="g264">
          <path
             id="path266"
             style="fill:#ffffff;fill-opacity:1;fill-rule:nonzero;stroke:none"
             d="m 0,0 c 1.422,0.188 1.433,0.544 1.468,1.762 l 0,4.167 C 1.433,7.149 1.422,7.503 0,7.693 l 0,0.177 6.356,0 -0.142,-1.823 -0.177,0 C 5.953,7.575 4.852,7.586 3.657,7.586 l -1.147,0 0,-3.373 1.231,0 c 0.886,0 1.562,0.071 1.692,1.089 l 0.178,0 0,-2.64 -0.178,0 C 5.279,3.703 4.627,3.715 3.741,3.715 l -1.231,0 0,-1.941 c 0,-0.697 -0.166,-1.668 1.776,-1.668 1.49,0 2.224,0.568 2.52,2.059 l 0.177,0 C 6.972,1.266 6.818,0.532 6.581,-0.179 L 0,-0.179 0,0 Z" />
        </g>
        <g
           style="fill:#ffffff"
           transform="translate(166.0027,257.9908)"
           id="g268">
          <path
             id="path270"
             style="fill:#ffffff;fill-opacity:1;fill-rule:nonzero;stroke:none"
             d="m 0,0 c 0,1.811 -0.059,2.082 -1.385,2.201 l 0,0.165 2.888,0.095 C 4.485,2.556 4.722,1.1 4.722,0.532 4.722,-0.462 4.107,-1.03 3.255,-1.41 L 3.314,-1.492 C 4.225,-3.089 5.361,-5.125 7.315,-5.529 L 7.278,-5.705 c -1.254,0.06 -2.177,0.023 -2.863,0.733 -0.782,0.817 -1.397,1.858 -1.645,2.369 -0.474,0.981 -0.9,0.696 -1.728,0.84 l 0,-1.907 c 0,-1.302 0.022,-1.538 1.644,-1.762 l 0,-0.179 -4.153,0 0,0.179 C -0.048,-5.244 -0.036,-4.888 0,-3.67 L 0,0 Z m 1.042,-1.563 c 1.136,0.011 2.462,0.533 2.462,1.846 0,1.386 -1.22,1.942 -2.462,1.93 l 0,-3.776 z" />
        </g>
        <g
           style="fill:#ffffff"
           transform="translate(177.7958,258.3452)"
           id="g272">
          <path
             id="path274"
             style="fill:#ffffff;fill-opacity:1;fill-rule:nonzero;stroke:none"
             d="m 0,0 -0.189,0 c -0.189,0.959 -0.498,1.883 -1.668,1.883 -0.758,0 -1.384,-0.521 -1.384,-1.303 0,-2.047 3.726,-1.976 3.726,-4.368 0,-1.525 -1.515,-2.318 -2.875,-2.318 -0.722,0 -1.481,0.212 -2.084,0.604 l -0.342,2.01 0.212,0 c 0.297,-1.136 1.089,-2.26 2.392,-2.26 0.875,0 1.56,0.52 1.56,1.443 0,2.107 -3.62,1.918 -3.62,4.286 0,1.385 1.372,2.259 2.638,2.259 0.604,0 1.208,-0.176 1.729,-0.461 L 0,0 Z" />
        </g>
        <g
           style="fill:#ffffff"
           transform="translate(181.2566,254.3206)"
           id="g276">
          <path
             id="path278"
             style="fill:#ffffff;fill-opacity:1;fill-rule:nonzero;stroke:none"
             d="m 0,0 c 0.035,-1.218 0.048,-1.574 1.468,-1.763 l 0,-0.178 -3.978,0 0,0.178 c 1.422,0.189 1.433,0.545 1.469,1.763 l 0,4.166 C -1.077,5.387 -1.088,5.74 -2.51,5.931 l 0,0.177 3.978,0 0,-0.177 C 0.048,5.74 0.035,5.387 0,4.166 L 0,0 Z" />
        </g>
        <g
           style="fill:#ffffff"
           transform="translate(190.5399,260.7949)"
           id="g280">
          <path
             id="path282"
             style="fill:#ffffff;fill-opacity:1;fill-rule:nonzero;stroke:none"
             d="M 0,0 0.094,0 0.26,-2.213 0.094,-2.249 c -0.414,1.469 -1.064,1.527 -2.425,1.527 l -0.712,0 0,-5.468 c 0,-1.466 0.072,-1.858 1.658,-2.046 l 0,-0.18 -4.355,0 0,0.18 c 1.585,0.188 1.656,0.58 1.656,2.046 l 0,5.468 -0.709,0 c -1.362,0 -2.013,-0.058 -2.428,-1.527 l -0.164,0.036 0.164,2.213 0.096,0 0.118,-0.106 c 0.296,-0.273 0.344,-0.261 0.734,-0.261 l 5.421,0 c 0.39,0 0.437,-0.012 0.734,0.261 L 0,0 Z" />
        </g>
        <g
           style="fill:#ffffff"
           transform="translate(198.6138,260.4283)"
           id="g284">
          <path
             id="path286"
             style="fill:#ffffff;fill-opacity:1;fill-rule:nonzero;stroke:none"
             d="M 0,0 0,-0.177 C -1.03,-0.26 -1.538,-0.828 -2.036,-1.681 l -1.396,-2.768 0,-1.34 c 0.024,-1.359 0.047,-1.845 1.562,-2.081 l 0,-0.179 -4.167,0 0,0.179 c 1.516,0.236 1.54,0.722 1.563,2.081 l 0,0.949 -1.23,2.686 c -0.45,0.994 -0.77,1.835 -1.966,1.977 l 0,0.177 3.267,0 0,-0.177 c -0.971,-0.131 -0.84,-0.521 -0.46,-1.35 l 1.182,-2.556 1.029,1.953 c 0.734,1.373 0.64,1.822 -0.389,1.953 L -3.041,0 0,0 Z" />
        </g>
        <path
           id="path288"
           style="fill:#ffffff;fill-opacity:1;fill-rule:nonzero;stroke:none"
           d="m 125.687,250.045 72.178,0 0,-0.241 -72.178,0 0,0.241 z" />
        <g
           style="fill:#ffffff"
           transform="translate(126.9073,247.3521)"
           id="g290">
          <path
             id="path292"
             style="fill:#ffffff;fill-opacity:1;fill-rule:nonzero;stroke:none"
             d="m 0,0 0.715,0 1.936,-4.431 -0.816,0 -0.446,1.062 -2.081,0 -0.452,-1.062 -0.792,0 L 0,0 Z m 1.105,-2.684 -0.76,1.76 -0.753,-1.76 1.513,0 z" />
        </g>
        <g
           style="fill:#ffffff"
           transform="translate(130.2132,244.7887)"
           id="g294">
          <path
             id="path296"
             style="fill:#ffffff;fill-opacity:1;fill-rule:nonzero;stroke:none"
             d="m 0,0 0,2.532 0.773,0 0,-2.502 c 0,-0.816 0.421,-1.257 1.112,-1.257 0.685,0 1.106,0.415 1.106,1.227 l 0,2.532 0.773,0 0,-2.494 C 3.764,-1.277 3.022,-1.937 1.872,-1.937 0.729,-1.937 0,-1.277 0,0" />
        </g>
        <g
           style="fill:#ffffff"
           transform="translate(134.8697,243.5621)"
           id="g298">
          <path
             id="path300"
             style="fill:#ffffff;fill-opacity:1;fill-rule:nonzero;stroke:none"
             d="m 0,0 0.466,0.553 c 0.42,-0.363 0.842,-0.571 1.388,-0.571 0.477,0 0.778,0.22 0.778,0.553 l 0,0.013 C 2.632,0.861 2.458,1.032 1.64,1.219 0.704,1.446 0.176,1.723 0.176,2.533 l 0,0.013 c 0,0.754 0.629,1.275 1.502,1.275 0.641,0 1.149,-0.195 1.596,-0.553 L 2.86,2.684 C 2.464,2.979 2.068,3.136 1.665,3.136 1.213,3.136 0.949,2.904 0.949,2.614 l 0,-0.011 C 0.949,2.263 1.15,2.112 1.991,1.911 2.923,1.684 3.406,1.351 3.406,0.623 l 0,-0.014 C 3.406,-0.214 2.758,-0.703 1.835,-0.703 1.163,-0.703 0.528,-0.47 0,0" />
        </g>
        <g
           style="fill:#ffffff"
           transform="translate(140.2999,246.6042)"
           id="g302">
          <path
             id="path304"
             style="fill:#ffffff;fill-opacity:1;fill-rule:nonzero;stroke:none"
             d="m 0,0 -1.396,0 0,0.716 3.57,0 0,-0.716 -1.395,0 0,-3.683 L 0,-3.683 0,0 Z" />
        </g>
        <g
           style="fill:#ffffff"
           transform="translate(143.4174,247.3204)"
           id="g306">
          <path
             id="path308"
             style="fill:#ffffff;fill-opacity:1;fill-rule:nonzero;stroke:none"
             d="M 0,0 1.96,0 C 2.513,0 2.947,-0.164 3.229,-0.439 3.463,-0.68 3.594,-1.006 3.594,-1.388 l 0,-0.013 c 0,-0.722 -0.433,-1.157 -1.049,-1.334 l 1.188,-1.665 -0.912,0 -1.081,1.534 -0.969,0 0,-1.534 L 0,-4.4 0,0 Z m 1.903,-2.182 c 0.554,0 0.905,0.291 0.905,0.737 l 0,0.012 c 0,0.472 -0.339,0.729 -0.911,0.729 l -1.126,0 0,-1.478 1.132,0 z" />
        </g>
        <g
           style="fill:#ffffff"
           transform="translate(149.6442,247.3521)"
           id="g310">
          <path
             id="path312"
             style="fill:#ffffff;fill-opacity:1;fill-rule:nonzero;stroke:none"
             d="m 0,0 0.716,0 1.936,-4.431 -0.816,0 -0.447,1.062 -2.08,0 -0.452,-1.062 -0.792,0 L 0,0 Z m 1.106,-2.684 -0.76,1.76 -0.754,-1.76 1.514,0 z" />
        </g>
        <g
           style="fill:#ffffff"
           transform="translate(153.1759,247.3204)"
           id="g314">
          <path
             id="path316"
             style="fill:#ffffff;fill-opacity:1;fill-rule:nonzero;stroke:none"
             d="m 0,0 0.774,0 0,-3.695 2.313,0 0,-0.705 L 0,-4.4 0,0 Z" />
        </g>
        <path
           id="path318"
           style="fill:#ffffff;fill-opacity:1;fill-rule:nonzero;stroke:none"
           d="m 157.237,247.32 0.773,0 0,-4.4 -0.773,0 0,4.4 z" />
        <g
           style="fill:#ffffff"
           transform="translate(160.869,247.3521)"
           id="g320">
          <path
             id="path322"
             style="fill:#ffffff;fill-opacity:1;fill-rule:nonzero;stroke:none"
             d="m 0,0 0.716,0 1.936,-4.431 -0.816,0 -0.447,1.062 -2.08,0 -0.452,-1.062 -0.792,0 L 0,0 Z m 1.106,-2.684 -0.76,1.76 -0.754,-1.76 1.514,0 z" />
        </g>
        <g
           style="fill:#ffffff"
           transform="translate(118.2215,264.7972)"
           id="g324">
          <path
             id="path326"
             style="fill:#ffffff;fill-opacity:1;fill-rule:nonzero;stroke:none"
             d="m 0,0 c -0.589,-0.34 -1.431,-0.552 -2.365,-0.552 -0.937,0 -1.777,0.212 -2.367,0.551 -0.588,0.34 -1.431,0.552 -2.365,0.552 -0.935,0 -1.778,-0.212 -2.366,-0.552 -0.59,-0.339 -1.431,-0.551 -2.367,-0.551 -0.934,0 -1.776,0.212 -2.364,0.551 -0.59,0.34 -1.431,0.552 -2.367,0.552 -0.088,0 -0.174,-0.003 -0.261,-0.007 l 0,-2.19 c 0,-0.331 0.012,-0.65 0.03,-0.964 0.077,0.003 0.154,0.007 0.231,0.007 0.936,0 1.777,-0.213 2.367,-0.553 0.588,-0.339 1.43,-0.551 2.364,-0.551 0.936,0 1.777,0.212 2.367,0.551 0.588,0.34 1.431,0.553 2.366,0.553 0.934,0 1.777,-0.213 2.365,-0.553 0.59,-0.339 1.43,-0.551 2.367,-0.551 0.934,0 1.776,0.212 2.365,0.551 0.589,0.34 1.431,0.553 2.365,0.553 0.079,0 0.155,-0.004 0.231,-0.007 0.019,0.314 0.031,0.633 0.031,0.964 l 0,2.19 C 2.541,0.548 2.455,0.551 2.365,0.551 1.431,0.551 0.589,0.339 0,0" />
        </g>
        <g
           style="fill:#ffffff"
           transform="translate(115.8562,257.935)"
           id="g328">
          <path
             id="path330"
             style="fill:#ffffff;fill-opacity:1;fill-rule:nonzero;stroke:none"
             d="m 0,0 c -0.936,0 -1.778,0.212 -2.366,0.551 -0.589,0.34 -1.432,0.553 -2.366,0.553 -0.934,0 -1.777,-0.213 -2.366,-0.553 C -7.687,0.212 -8.529,0 -9.464,0 c -0.935,-0.001 -1.777,0.212 -2.365,0.551 -0.524,0.302 -1.247,0.503 -2.057,0.543 0.414,-1.387 1.028,-2.553 1.752,-3.547 0.107,-0.048 0.21,-0.096 0.305,-0.151 0.588,-0.339 1.43,-0.552 2.365,-0.552 0.935,0 1.777,0.213 2.366,0.552 0.589,0.339 1.432,0.553 2.366,0.553 0.934,0 1.777,-0.212 2.366,-0.553 0.588,-0.339 1.43,-0.552 2.366,-0.552 0.935,0 1.776,0.213 2.365,0.552 0.095,0.056 0.199,0.104 0.306,0.152 0.724,0.993 1.336,2.159 1.751,3.546 C 3.611,1.054 2.888,0.853 2.365,0.551 1.776,0.212 0.935,0 0,0" />
        </g>
        <g
           style="fill:#ffffff"
           transform="translate(113.4899,252.1763)"
           id="g332">
          <path
             id="path334"
             style="fill:#ffffff;fill-opacity:1;fill-rule:nonzero;stroke:none"
             d="M 0,0 C -0.589,0.339 -1.431,0.552 -2.365,0.552 -3.3,0.552 -4.143,0.339 -4.731,0 -5.015,-0.164 -5.357,-0.296 -5.74,-0.391 c 1.357,-0.907 2.61,-1.574 3.375,-2.212 0.763,0.638 2.017,1.305 3.374,2.212 C 0.626,-0.296 0.284,-0.164 0,0" />
        </g>
        <g
           style="fill:#ffffff"
           transform="translate(118.2215,271.1075)"
           id="g336">
          <path
             id="path338"
             style="fill:#ffffff;fill-opacity:1;fill-rule:nonzero;stroke:none"
             d="m 0,0 c -0.589,-0.34 -1.431,-0.553 -2.365,-0.553 -0.937,0 -1.777,0.213 -2.367,0.553 -0.588,0.338 -1.431,0.551 -2.365,0.551 -0.935,0 -1.778,-0.213 -2.366,-0.551 -0.59,-0.34 -1.431,-0.553 -2.367,-0.553 -0.934,0 -1.776,0.213 -2.364,0.553 -0.59,0.338 -1.431,0.551 -2.367,0.551 -0.088,0 -0.174,-0.003 -0.261,-0.007 l 0,-3.155 c 0.087,0.003 0.173,0.006 0.261,0.006 0.936,0 1.777,-0.211 2.367,-0.551 0.588,-0.34 1.43,-0.552 2.364,-0.552 0.936,0 1.777,0.212 2.367,0.552 0.588,0.34 1.431,0.551 2.366,0.551 0.934,0 1.777,-0.211 2.365,-0.551 0.59,-0.34 1.43,-0.552 2.367,-0.552 0.934,0 1.776,0.212 2.365,0.552 0.589,0.34 1.431,0.551 2.365,0.551 0.09,0 0.176,-0.003 0.262,-0.006 l 0,3.155 C 2.541,0.548 2.455,0.551 2.365,0.551 1.431,0.551 0.589,0.338 0,0" />
        </g>
        <g
           style="fill:#ffffff"
           transform="translate(111.1246,277.5869)"
           id="g340">
          <path
             id="path342"
             style="fill:#ffffff;fill-opacity:1;fill-rule:nonzero;stroke:none"
             d="m 0,0 c -1.761,0 -3.188,-1.427 -3.188,-3.188 0,-0.159 0.016,-0.314 0.038,-0.466 0.293,0.088 0.557,0.199 0.784,0.33 0.588,0.338 1.431,0.551 2.366,0.551 0.934,0 1.776,-0.213 2.365,-0.551 0.227,-0.131 0.492,-0.242 0.785,-0.331 0.022,0.153 0.038,0.308 0.038,0.467 C 3.188,-1.427 1.761,0 0,0 m -4.345,-0.936 c -0.063,-0.01 -0.127,-0.027 -0.191,-0.039 -0.169,-0.029 -0.328,-0.033 -0.49,-0.027 -0.165,0.006 -0.36,0.045 -0.47,0.117 -0.028,-0.166 0.177,-0.385 0.351,-0.503 0.119,-0.081 0.245,-0.151 0.378,-0.195 0.052,-0.019 0.104,-0.028 0.156,-0.047 0.16,-0.056 0.316,-0.158 0.44,-0.268 0.161,-0.142 0.295,-0.323 0.418,-0.482 0.099,0.465 0.286,0.901 0.539,1.288 -0.168,0.06 -0.35,0.125 -0.549,0.156 -0.175,0.027 -0.383,0.031 -0.582,0 m 11.627,-2.253 -3.5,0.628 c 0.035,-0.204 0.057,-0.414 0.057,-0.627 0,-0.214 -0.022,-0.422 -0.057,-0.627 l 3.5,0.626 z m -11.068,0.628 -3.498,-0.628 3.5,-0.626 c -0.032,0.205 -0.056,0.413 -0.056,0.627 0,0.213 0.024,0.423 0.054,0.627 m 8.45,0.853 c 0.039,0.053 0.07,0.11 0.109,0.162 0.097,0.141 0.208,0.256 0.324,0.365 0.122,0.113 0.289,0.224 0.418,0.252 C 5.417,-0.795 5.116,-0.782 4.91,-0.823 4.768,-0.85 4.634,-0.888 4.505,-0.951 4.454,-0.976 4.411,-1.007 4.361,-1.03 4.209,-1.102 4.026,-1.142 3.859,-1.151 3.647,-1.165 3.424,-1.131 3.224,-1.105 l -0.004,0 c 0.253,-0.389 0.437,-0.823 0.536,-1.292 0.162,0.077 0.333,0.16 0.496,0.277 0.143,0.105 0.293,0.25 0.412,0.412 m -6.848,1.674 -2.201,1.232 1.228,-2.202 c 0.266,0.38 0.593,0.709 0.973,0.97 m 5.34,-0.97 1.228,2.202 -2.2,-1.232 c 0.379,-0.261 0.708,-0.59 0.972,-0.97 M 0.646,0.593 0,7.007 -0.646,0.593 c 0.211,0.034 0.425,0.058 0.646,0.058 0.219,0 0.434,-0.024 0.646,-0.058 m -2.883,0.724 c 0.024,-0.049 0.055,-0.094 0.078,-0.144 0.072,-0.153 0.113,-0.335 0.122,-0.5 0.013,-0.215 -0.02,-0.437 -0.046,-0.636 l 0,-0.004 c 0.387,0.252 0.824,0.437 1.291,0.536 -0.076,0.162 -0.158,0.335 -0.277,0.496 -0.105,0.144 -0.25,0.293 -0.411,0.41 -0.053,0.039 -0.109,0.072 -0.163,0.109 -0.141,0.099 -0.255,0.209 -0.366,0.325 -0.112,0.123 -0.223,0.289 -0.25,0.419 C -2.395,2.229 -2.405,1.929 -2.365,1.722 -2.337,1.579 -2.3,1.445 -2.237,1.317 M 2.252,0.573 c 0.027,0.176 0.03,0.385 0,0.585 C 2.243,1.221 2.223,1.284 2.212,1.348 2.184,1.517 2.179,1.675 2.184,1.837 2.191,2.002 2.228,2.199 2.303,2.309 2.137,2.335 1.918,2.131 1.8,1.957 1.718,1.835 1.649,1.713 1.604,1.578 1.586,1.528 1.576,1.473 1.558,1.423 1.501,1.263 1.399,1.105 1.29,0.981 1.147,0.823 0.967,0.687 0.806,0.566 c 0,0 0,-0.001 -0.001,-0.001 0.468,-0.101 0.903,-0.286 1.291,-0.539 0.06,0.169 0.123,0.351 0.156,0.547" />
        </g>
      </g>
    </g>
    <g
       style="fill:#ffffff"
       id="g344"
       transform="matrix(1.25,0,0,-1.25,357.02986,659.53158)">
      <g
         style="fill:#ffffff"
         clip-path="url(#clipPath348)"
         id="g346">
        <g
           style="fill:#ffffff"
           transform="translate(249.1962,246.195)"
           id="g352">
          <path
             id="path354"
             style="fill:#ffffff;fill-opacity:1;fill-rule:nonzero;stroke:none"
             d="m 0,0 0.468,0 0,3.765 1.176,0 0.139,0.391 -2.978,0 0,-0.391 L 0,3.765 0,0 Z m 2.808,-0.063 c 0.841,0 1.384,0.687 1.384,1.558 0,0.876 -0.55,1.564 -1.378,1.564 -0.847,0 -1.384,-0.688 -1.384,-1.564 0,-0.871 0.544,-1.558 1.378,-1.558 m 0,0.397 c -0.55,0 -0.898,0.48 -0.898,1.161 0,0.687 0.348,1.166 0.904,1.166 0.544,0 0.892,-0.479 0.892,-1.166 0,-0.681 -0.348,-1.161 -0.898,-1.161 m 2.428,-0.353 0.411,0 0.714,2.39 0.013,0 0.708,-2.39 0.405,0 0.992,3.002 -0.474,0 -0.695,-2.378 -0.013,0 -0.714,2.378 -0.437,0 -0.689,-2.378 -0.012,0 -0.708,2.378 -0.487,0 0.986,-3.002 z M 8.8,0 l 0.467,0 0,2.195 c 0.278,0.246 0.582,0.447 0.917,0.447 0.424,0 0.537,-0.34 0.537,-0.788 l 0,-1.854 0.462,0 0,2.012 c 0,0.75 -0.417,1.047 -0.885,1.047 -0.386,0 -0.721,-0.183 -1.05,-0.461 L 9.191,2.983 8.8,2.983 8.8,0 Z m 2.742,0.189 c 0.19,-0.12 0.506,-0.252 0.898,-0.252 0.613,0 1.106,0.284 1.106,0.877 0,1.009 -1.409,0.782 -1.409,1.444 0,0.321 0.29,0.416 0.575,0.416 0.291,0 0.518,-0.076 0.721,-0.164 l 0,0.41 c -0.196,0.076 -0.456,0.139 -0.74,0.139 -0.664,0 -1.011,-0.366 -1.011,-0.82 0,-0.99 1.397,-0.782 1.397,-1.432 0,-0.34 -0.291,-0.479 -0.639,-0.479 -0.335,0 -0.575,0.114 -0.746,0.221 l -0.152,-0.36 z m 3.323,-0.208 0.398,0 1.145,3.002 -0.481,0 -0.847,-2.384 -0.012,0 -0.873,2.384 -0.487,0 1.157,-3.002 z M 16.757,0 l 0.462,0 0,2.983 -0.462,0 0,-2.983 z m 0.227,3.658 c 0.183,0 0.316,0.132 0.316,0.309 0,0.183 -0.126,0.315 -0.316,0.315 -0.183,0 -0.31,-0.138 -0.31,-0.315 0,-0.177 0.127,-0.309 0.31,-0.309 m 0.907,-3.116 c 0,-0.359 0.183,-0.58 0.562,-0.58 0.139,0 0.297,0.032 0.417,0.088 L 18.769,0.416 C 18.725,0.397 18.637,0.372 18.586,0.372 c -0.158,0 -0.234,0.07 -0.234,0.315 l 0,3.778 -0.461,0 0,-3.923 z m 1.286,0 c 0,-0.359 0.183,-0.58 0.563,-0.58 0.139,0 0.297,0.032 0.417,0.088 L 20.056,0.416 C 20.011,0.397 19.923,0.372 19.872,0.372 c -0.158,0 -0.234,0.07 -0.234,0.315 l 0,3.778 -0.461,0 0,-3.923 z m 2.479,-0.605 c 0.335,0 0.695,0.095 0.954,0.265 L 22.458,0.53 C 22.256,0.416 22.003,0.328 21.725,0.328 c -0.638,0 -0.986,0.473 -0.999,1.085 l 1.941,0 0,0.113 c 0,0.94 -0.43,1.533 -1.188,1.533 -0.727,0 -1.227,-0.625 -1.227,-1.533 0,-0.87 0.462,-1.589 1.404,-1.589 m -0.923,1.835 c 0.006,0.498 0.29,0.908 0.746,0.908 0.474,0 0.695,-0.454 0.701,-0.908 l -1.447,0 z" />
        </g>
        <g
           style="fill:#ffffff"
           transform="translate(248.2101,255.9773)"
           id="g356">
          <path
             id="path358"
             style="fill:#ffffff;fill-opacity:1;fill-rule:nonzero;stroke:none"
             d="m 0,0 c 0.247,-0.17 0.62,-0.315 1.094,-0.315 0.796,0 1.334,0.416 1.334,1.11 0,1.292 -1.834,1.192 -1.834,2.131 0,0.448 0.38,0.612 0.752,0.612 0.317,0 0.633,-0.082 0.892,-0.227 l 0,0.435 C 2.048,3.841 1.713,3.935 1.334,3.935 0.556,3.935 0.107,3.469 0.107,2.882 0.107,1.64 1.941,1.76 1.941,0.763 1.941,0.271 1.549,0.088 1.1,0.088 0.714,0.088 0.398,0.233 0.196,0.366 L 0,0 Z m 2.979,-0.252 0.462,0 0,2.983 -0.462,0 0,-2.983 z m 0.228,3.658 c 0.183,0 0.316,0.132 0.316,0.309 0,0.182 -0.126,0.315 -0.316,0.315 -0.183,0 -0.31,-0.139 -0.31,-0.315 0,-0.177 0.127,-0.309 0.31,-0.309 m 0.903,-3.658 0.468,0 0,2.194 C 4.856,2.188 5.16,2.39 5.495,2.39 5.918,2.39 6.032,2.05 6.032,1.602 l 0,-1.854 0.461,0 0,2.012 c 0,0.75 -0.417,1.046 -0.884,1.046 -0.386,0 -0.721,-0.182 -1.05,-0.46 l -0.057,0.385 -0.392,0 0,-2.983 z m 4.003,-1.495 c 0.891,0 1.441,0.372 1.441,0.933 0,1.11 -1.973,0.587 -1.973,1.18 0,0.107 0.045,0.214 0.159,0.34 0.113,-0.037 0.246,-0.063 0.391,-0.063 0.69,0 1.157,0.435 1.157,1.079 0,0.284 -0.113,0.567 -0.341,0.769 0.088,0.057 0.19,0.082 0.291,0.082 0.057,0 0.113,-0.006 0.17,-0.019 L 9.522,2.92 C 9.491,2.926 9.415,2.939 9.339,2.939 9.067,2.939 8.871,2.838 8.726,2.693 8.707,2.674 8.694,2.674 8.662,2.687 8.536,2.743 8.359,2.8 8.1,2.8 7.455,2.8 7,2.34 7,1.741 7,1.337 7.183,1.022 7.461,0.839 7.202,0.605 7.145,0.391 7.145,0.252 7.145,0.095 7.228,-0.044 7.36,-0.12 6.981,-0.303 6.804,-0.586 6.804,-0.889 c 0,-0.543 0.518,-0.858 1.309,-0.858 m 0.037,0.366 c -0.537,0 -0.916,0.208 -0.916,0.567 0,0.291 0.259,0.461 0.411,0.562 0.55,-0.164 1.441,-0.07 1.441,-0.612 0,-0.284 -0.303,-0.517 -0.936,-0.517 M 8.138,1.028 c -0.424,0 -0.677,0.296 -0.677,0.706 0,0.416 0.279,0.681 0.677,0.681 0.398,0 0.676,-0.29 0.676,-0.687 0,-0.454 -0.291,-0.7 -0.676,-0.7 m 3.449,-1.28 0.411,0 c -0.038,0.151 -0.057,0.429 -0.057,1.015 l 0,1.028 c 0,0.713 -0.442,1.015 -1.061,1.015 -0.329,0 -0.702,-0.081 -1.05,-0.302 l 0.177,-0.328 c 0.209,0.126 0.462,0.246 0.822,0.246 0.373,0 0.645,-0.202 0.645,-0.656 l 0,-0.189 -0.569,-0.019 C 10.601,1.545 10.361,1.514 10.159,1.413 9.855,1.274 9.653,1.003 9.653,0.605 c 0,-0.574 0.405,-0.92 0.948,-0.92 0.373,0 0.664,0.176 0.898,0.397 l 0.088,-0.334 z m -0.113,1.476 0,-0.757 C 11.335,0.322 11.057,0.076 10.683,0.076 c -0.341,0 -0.556,0.227 -0.556,0.555 0,0.195 0.089,0.365 0.259,0.46 0.133,0.069 0.304,0.107 0.563,0.114 l 0.525,0.019 z m 1.091,-2.971 0.468,0 0,1.539 c 0.145,-0.063 0.335,-0.107 0.524,-0.107 0.866,0 1.511,0.599 1.511,1.57 0,0.984 -0.569,1.551 -1.517,1.551 -0.322,0 -0.67,-0.063 -0.986,-0.182 l 0,-4.371 z m 0.468,1.955 0,2.125 c 0.164,0.051 0.322,0.076 0.505,0.076 0.594,0 1.05,-0.353 1.05,-1.141 0,-0.713 -0.367,-1.186 -1.043,-1.186 -0.196,0 -0.342,0.044 -0.512,0.126 m 3.745,-0.523 c 0.84,0 1.384,0.687 1.384,1.557 0,0.877 -0.55,1.564 -1.378,1.564 -0.847,0 -1.385,-0.687 -1.385,-1.564 0,-0.87 0.544,-1.557 1.379,-1.557 m 0,0.397 c -0.551,0 -0.898,0.479 -0.898,1.16 0,0.688 0.347,1.167 0.904,1.167 0.544,0 0.891,-0.479 0.891,-1.167 0,-0.681 -0.347,-1.16 -0.897,-1.16 m 1.862,-0.334 0.468,0 0,2.194 c 0.291,0.297 0.506,0.429 0.721,0.429 0.107,0 0.183,-0.025 0.259,-0.063 l 0.164,0.423 c -0.075,0.044 -0.202,0.075 -0.322,0.075 -0.259,0 -0.512,-0.094 -0.841,-0.454 l -0.057,0.379 -0.392,0 0,-2.983 z m 3.021,-0.063 c 0.336,0 0.696,0.094 0.955,0.265 L 22.464,0.277 C 22.262,0.164 22.009,0.076 21.731,0.076 c -0.638,0 -0.986,0.473 -0.999,1.084 l 1.941,0 0,0.114 c 0,0.94 -0.43,1.532 -1.189,1.532 -0.726,0 -1.226,-0.624 -1.226,-1.532 0,-0.87 0.462,-1.589 1.403,-1.589 M 20.739,1.52 c 0.006,0.498 0.29,0.908 0.745,0.908 0.475,0 0.696,-0.454 0.702,-0.908 l -1.447,0 z" />
        </g>
        <g
           style="fill:#ffffff"
           transform="translate(251.2381,265.8542)"
           id="g360">
          <path
             id="path362"
             style="fill:#ffffff;fill-opacity:1;fill-rule:nonzero;stroke:none"
             d="m 0,0 c -0.284,-0.151 -0.607,-0.259 -0.992,-0.259 -0.949,0 -1.537,0.707 -1.537,1.722 0,0.978 0.607,1.722 1.581,1.722 0.423,0 0.733,-0.101 1.024,-0.259 l 0,0.442 c -0.209,0.12 -0.588,0.22 -1.031,0.22 -1.232,0 -2.067,-0.952 -2.067,-2.163 0,-1.217 0.74,-2.087 1.985,-2.087 0.38,0 0.771,0.082 1.163,0.29 L 0,0 Z m 2.362,-0.599 0.411,0 C 2.735,-0.448 2.716,-0.17 2.716,0.416 l 0,1.028 C 2.716,2.157 2.273,2.46 1.654,2.46 1.325,2.46 0.952,2.378 0.604,2.157 L 0.781,1.829 c 0.209,0.126 0.462,0.246 0.822,0.246 0.373,0 0.645,-0.202 0.645,-0.656 L 2.248,1.23 1.679,1.211 C 1.376,1.198 1.135,1.167 0.933,1.066 0.63,0.927 0.427,0.656 0.427,0.259 c 0,-0.574 0.405,-0.921 0.949,-0.921 0.373,0 0.663,0.176 0.897,0.397 l 0.089,-0.334 z m -0.114,1.476 0,-0.757 c -0.139,-0.145 -0.417,-0.391 -0.79,-0.391 -0.342,0 -0.557,0.227 -0.557,0.555 0,0.195 0.089,0.366 0.26,0.46 0.132,0.07 0.303,0.107 0.562,0.114 l 0.525,0.019 z m 1.113,-1.476 0.462,0 0,2.983 -0.462,0 0,-2.983 z m 0.228,3.658 c 0.183,0 0.316,0.132 0.316,0.309 0,0.183 -0.127,0.315 -0.316,0.315 -0.184,0 -0.31,-0.139 -0.31,-0.315 0,-0.177 0.126,-0.309 0.31,-0.309 m 0.903,-3.658 0.468,0 0,2.195 c 0.291,0.296 0.506,0.428 0.721,0.428 0.107,0 0.183,-0.025 0.259,-0.063 L 6.104,2.384 C 6.028,2.428 5.902,2.46 5.782,2.46 5.523,2.46 5.27,2.365 4.941,2.005 l -0.057,0.379 -0.392,0 0,-2.983 z m 1.897,0 0.468,0 0,2.195 c 0.278,0.245 0.582,0.447 0.917,0.447 0.423,0 0.537,-0.34 0.537,-0.788 l 0,-1.854 0.461,0 0,2.012 c 0,0.75 -0.417,1.047 -0.885,1.047 -0.385,0 -0.72,-0.183 -1.049,-0.461 l -0.057,0.385 -0.392,0 0,-2.983 z m 2.743,0.189 c 0.19,-0.12 0.506,-0.252 0.898,-0.252 0.613,0 1.106,0.284 1.106,0.876 0,1.009 -1.41,0.782 -1.41,1.445 0,0.321 0.291,0.416 0.576,0.416 0.29,0 0.518,-0.076 0.72,-0.164 l 0,0.41 C 10.826,2.396 10.567,2.46 10.283,2.46 9.619,2.46 9.271,2.094 9.271,1.64 c 0,-0.99 1.397,-0.782 1.397,-1.432 0,-0.34 -0.291,-0.479 -0.638,-0.479 -0.335,0 -0.576,0.113 -0.746,0.22 L 9.132,-0.41 Z" />
        </g>
      </g>
    </g>
    <path
       id="path364"
       style="fill:#ffffff;fill-opacity:1;fill-rule:nonzero;stroke:none"
       d="m 666.8736,320.51533 30.39876,0 0,-0.44 -30.39875,0 0,0.44 z" />
    <path
       id="path366"
       style="fill:#ffffff;fill-opacity:1;fill-rule:nonzero;stroke:none"
       d="m 666.8736,355.94908 30.39876,0 0,-0.44 -30.39875,0 0,0.44 z" />
    <path
       id="path368"
       style="fill:#ffffff;fill-opacity:1;fill-rule:nonzero;stroke:none"
       d="m 666.8736,332.31408 30.39876,0 0,-0.44 -30.39875,0 0,0.44 z" />
    <path
       id="path370"
       style="fill:#ffffff;fill-opacity:1;fill-rule:nonzero;stroke:none"
       d="m 666.8736,344.20283 30.39876,0 0,-0.44 -30.39875,0 0,0.44 z" />
  </g>
</svg>
