<?xml version="1.0" encoding="UTF-8" standalone="no"?>
<svg
   xmlns:dc="http://purl.org/dc/elements/1.1/"
   xmlns:cc="http://creativecommons.org/ns#"
   xmlns:rdf="http://www.w3.org/1999/02/22-rdf-syntax-ns#"
   xmlns:svg="http://www.w3.org/2000/svg"
   xmlns="http://www.w3.org/2000/svg"
   version="1.1"
   id="svg4473"
   viewBox="0 0 230.31426 121.176"
   height="34.198559mm"
   width="64.999802mm">
  <defs
     id="defs4475">
    <clipPath
       id="clipPath64"
       clipPathUnits="userSpaceOnUse">
      <path
         id="path66"
         d="m 18.346,589.402 187.087,0 0,100.913 -187.087,0 0,-100.913 z" />
    </clipPath>
  </defs>
  <metadata
     id="metadata4478">
    <rdf:RDF>
      <cc:Work
         rdf:about="">
        <dc:format>image/svg+xml</dc:format>
        <dc:type
           rdf:resource="http://purl.org/dc/dcmitype/StillImage" />
        <dc:title></dc:title>
      </cc:Work>
    </rdf:RDF>
  </metadata>
  <g
     transform="translate(18.014268,268.2258)"
     id="layer1">
    <g
       id="g60"
       transform="matrix(1.25,0,0,-1.25,-40.947518,594.6672)">
      <g
         clip-path="url(#clipPath64)"
         id="g62">
        <g
           transform="translate(99.2956,668.2496)"
           id="g68">
          <path
             id="path70"
             style="fill:#000000;fill-opacity:1;fill-rule:nonzero;stroke:none"
             d="m 0,0 1.625,0 0,-6.442 c 0,-0.872 -0.064,-1.53 -0.191,-1.975 -0.128,-0.444 -0.285,-0.813 -0.472,-1.108 -0.187,-0.296 -0.416,-0.56 -0.686,-0.792 -0.9,-0.775 -2.076,-1.162 -3.528,-1.162 -1.48,0 -2.666,0.384 -3.56,1.154 -0.271,0.238 -0.5,0.504 -0.686,0.8 -0.188,0.295 -0.342,0.656 -0.464,1.084 -0.122,0.428 -0.182,1.1 -0.182,2.015 l 0,6.426 1.624,0 0,-6.441 c 0,-1.066 0.122,-1.809 0.367,-2.225 0.244,-0.417 0.616,-0.752 1.117,-1.003 0.499,-0.252 1.088,-0.378 1.768,-0.378 0.967,0 1.755,0.252 2.364,0.755 0.319,0.271 0.55,0.591 0.692,0.959 C -0.071,-7.965 0,-7.334 0,-6.441 L 0,0 Z" />
        </g>
        <g
           transform="translate(113.434,668.2496)"
           id="g72">
          <path
             id="path74"
             style="fill:#000000;fill-opacity:1;fill-rule:nonzero;stroke:none"
             d="m 0,0 1.539,0 0,-11.351 -1.393,0 -7.585,8.742 0,-8.742 -1.518,0 L -8.957,0 -7.65,0 0,-8.817 0,0 Z" />
        </g>
        <path
           id="path76"
           style="fill:#000000;fill-opacity:1;fill-rule:nonzero;stroke:none"
           d="m 118.672,668.25 1.625,0 0,-11.351 -1.625,0 0,11.351 z" />
        <g
           transform="translate(131.2136,668.2496)"
           id="g78">
          <path
             id="path80"
             style="fill:#000000;fill-opacity:1;fill-rule:nonzero;stroke:none"
             d="m 0,0 1.63,0 -4.804,-11.394 -0.389,0 L -8.395,0 -6.762,0 -3.383,-7.967 0,0 Z" />
        </g>
        <g
           transform="translate(135.3753,668.2496)"
           id="g82">
          <path
             id="path84"
             style="fill:#000000;fill-opacity:1;fill-rule:nonzero;stroke:none"
             d="m 0,0 6.435,0 0,-1.454 -4.81,0 0,-3.463 4.639,0 0,-1.453 -4.639,0 0,-3.527 4.959,0 0,-1.454 -6.584,0 L 0,0 Z" />
        </g>
        <g
           transform="translate(147.0949,666.86)"
           id="g86">
          <path
             id="path88"
             style="fill:#000000;fill-opacity:1;fill-rule:nonzero;stroke:none"
             d="m 0,0 -0.485,0 0,-3.57 0.615,0 c 0.82,0 1.382,0.07 1.688,0.211 0.305,0.14 0.543,0.352 0.712,0.635 0.171,0.283 0.256,0.606 0.256,0.968 0,0.356 -0.095,0.678 -0.284,0.967 C 2.313,-0.501 2.047,-0.297 1.705,-0.178 1.361,-0.059 0.793,0 0,0 m -2.11,-9.961 0,11.351 2.843,0 c 1.145,0 2.057,-0.285 2.73,-0.854 0.675,-0.568 1.011,-1.338 1.011,-2.307 0,-0.661 -0.165,-1.233 -0.496,-1.715 -0.333,-0.482 -0.809,-0.842 -1.427,-1.08 0.363,-0.239 0.72,-0.564 1.067,-0.976 0.349,-0.412 0.836,-1.13 1.464,-2.153 0.396,-0.645 0.713,-1.129 0.951,-1.454 l 0.601,-0.812 -1.934,0 -0.494,0.748 C 4.19,-9.187 4.158,-9.141 4.108,-9.076 L 3.793,-8.629 3.29,-7.8 2.746,-6.914 c -0.335,0.466 -0.642,0.837 -0.921,1.112 -0.279,0.276 -0.53,0.475 -0.754,0.596 -0.225,0.122 -0.603,0.183 -1.134,0.183 l -0.422,0 0,-4.938 -1.625,0 z" />
        </g>
        <g
           transform="translate(159.0416,661.6583)"
           id="g90">
          <path
             id="path92"
             style="fill:#000000;fill-opacity:1;fill-rule:nonzero;stroke:none"
             d="m 0,0 -1.235,0.75 c -0.774,0.473 -1.326,0.939 -1.654,1.396 -0.327,0.458 -0.491,0.985 -0.491,1.581 0,0.893 0.31,1.619 0.928,2.177 0.619,0.558 1.423,0.837 2.412,0.837 0.946,0 1.814,-0.266 2.602,-0.796 l 0,-1.839 C 1.748,4.893 0.87,5.287 -0.069,5.287 c -0.53,0 -0.964,-0.123 -1.305,-0.368 -0.339,-0.246 -0.51,-0.56 -0.51,-0.943 0,-0.34 0.126,-0.659 0.377,-0.956 0.251,-0.297 0.655,-0.609 1.211,-0.936 L 0.941,1.349 c 1.381,-0.829 2.07,-1.883 2.07,-3.162 0,-0.911 -0.304,-1.652 -0.912,-2.221 -0.609,-0.569 -1.401,-0.854 -2.375,-0.854 -1.12,0 -2.141,0.351 -3.061,1.053 l 0,2.052 c 0.879,-1.115 1.896,-1.673 3.05,-1.673 0.51,0 0.933,0.142 1.273,0.425 0.338,0.283 0.508,0.639 0.508,1.065 C 1.494,-1.275 0.995,-0.62 0,0" />
        </g>
        <path
           id="path94"
           style="fill:#000000;fill-opacity:1;fill-rule:nonzero;stroke:none"
           d="m 165.107,668.25 1.625,0 0,-11.351 -1.625,0 0,11.351 z" />
        <g
           transform="translate(169.5307,668.2496)"
           id="g96">
          <path
             id="path98"
             style="fill:#000000;fill-opacity:1;fill-rule:nonzero;stroke:none"
             d="m 0,0 9.47,0 0,-1.454 -3.955,0 0,-9.897 -1.624,0 0,9.897 L 0,-1.454 0,0 Z" />
        </g>
        <path
           id="path100"
           style="fill:#000000;fill-opacity:1;fill-rule:nonzero;stroke:none"
           d="m 181.81,668.25 1.625,0 0,-11.351 -1.625,0 0,11.351 z" />
        <g
           transform="translate(187.2172,668.2496)"
           id="g102">
          <path
             id="path104"
             style="fill:#000000;fill-opacity:1;fill-rule:nonzero;stroke:none"
             d="m 0,0 6.434,0 0,-1.454 -4.809,0 0,-3.463 4.638,0 0,-1.453 -4.638,0 0,-3.527 4.959,0 0,-1.454 -6.584,0 L 0,0 Z" />
        </g>
        <g
           transform="translate(199.586,661.6583)"
           id="g106">
          <path
             id="path108"
             style="fill:#000000;fill-opacity:1;fill-rule:nonzero;stroke:none"
             d="m 0,0 -1.235,0.75 c -0.775,0.473 -1.325,0.939 -1.652,1.396 -0.329,0.458 -0.492,0.985 -0.492,1.581 0,0.893 0.308,1.619 0.929,2.177 0.618,0.558 1.421,0.837 2.411,0.837 0.946,0 1.813,-0.266 2.603,-0.796 l 0,-1.839 c -0.816,0.787 -1.693,1.181 -2.632,1.181 -0.529,0 -0.965,-0.123 -1.304,-0.368 -0.341,-0.246 -0.51,-0.56 -0.51,-0.943 0,-0.34 0.125,-0.659 0.376,-0.956 0.251,-0.297 0.653,-0.609 1.209,-0.936 L 0.942,1.349 c 1.38,-0.829 2.07,-1.883 2.07,-3.162 0,-0.911 -0.304,-1.652 -0.913,-2.221 -0.61,-0.569 -1.401,-0.854 -2.375,-0.854 -1.12,0 -2.141,0.351 -3.06,1.053 l 0,2.052 c 0.878,-1.115 1.894,-1.673 3.05,-1.673 0.509,0 0.934,0.142 1.272,0.425 0.339,0.283 0.509,0.639 0.509,1.065 C 1.495,-1.275 0.997,-0.62 0,0" />
        </g>
        <g
           transform="translate(97.4166,644.7424)"
           id="g110">
          <path
             id="path112"
             style="fill:#000000;fill-opacity:1;fill-rule:nonzero;stroke:none"
             d="M 0,0 -1.851,4.112 -3.556,0 0,0 Z m -2.425,6.605 1.138,0 5.111,-11.415 -1.662,0 -1.512,3.356 -4.841,0 -1.411,-3.356 -1.668,0 4.845,11.415 z" />
        </g>
        <g
           transform="translate(111.3073,651.2835)"
           id="g114">
          <path
             id="path116"
             style="fill:#000000;fill-opacity:1;fill-rule:nonzero;stroke:none"
             d="m 0,0 1.625,0 0,-6.442 c 0,-0.873 -0.063,-1.53 -0.191,-1.974 C 1.307,-8.861 1.149,-9.23 0.962,-9.525 0.775,-9.82 0.547,-10.085 0.276,-10.317 c -0.9,-0.775 -2.076,-1.162 -3.528,-1.162 -1.479,0 -2.666,0.384 -3.56,1.154 -0.271,0.237 -0.499,0.505 -0.686,0.8 -0.187,0.295 -0.342,0.656 -0.464,1.084 -0.121,0.428 -0.182,1.1 -0.182,2.015 l 0,6.426 1.624,0 0,-6.441 c 0,-1.066 0.123,-1.809 0.367,-2.225 0.245,-0.417 0.617,-0.752 1.117,-1.003 0.5,-0.252 1.089,-0.378 1.768,-0.378 0.968,0 1.756,0.252 2.364,0.756 0.32,0.27 0.551,0.59 0.693,0.958 C -0.071,-7.965 0,-7.335 0,-6.441 L 0,0 Z" />
        </g>
        <g
           transform="translate(119.2497,644.6923)"
           id="g118">
          <path
             id="path120"
             style="fill:#000000;fill-opacity:1;fill-rule:nonzero;stroke:none"
             d="m 0,0 -1.234,0.75 c -0.774,0.473 -1.326,0.939 -1.653,1.396 -0.328,0.458 -0.491,0.985 -0.491,1.581 0,0.894 0.309,1.619 0.928,2.177 0.618,0.558 1.422,0.837 2.412,0.837 0.945,0 1.812,-0.266 2.602,-0.796 l 0,-1.839 c -0.815,0.787 -1.693,1.181 -2.632,1.181 -0.529,0 -0.965,-0.123 -1.304,-0.368 -0.341,-0.246 -0.51,-0.56 -0.51,-0.944 0,-0.339 0.125,-0.658 0.376,-0.955 0.251,-0.297 0.654,-0.609 1.21,-0.935 L 0.942,1.349 c 1.38,-0.829 2.071,-1.883 2.071,-3.162 0,-0.911 -0.305,-1.651 -0.914,-2.22 -0.608,-0.57 -1.4,-0.855 -2.374,-0.855 -1.121,0 -2.141,0.351 -3.061,1.053 l 0,2.052 c 0.878,-1.115 1.895,-1.673 3.05,-1.673 0.509,0 0.934,0.142 1.273,0.425 0.339,0.284 0.508,0.638 0.508,1.065 C 1.495,-1.275 0.997,-0.62 0,0" />
        </g>
        <g
           transform="translate(124.3308,651.2835)"
           id="g122">
          <path
             id="path124"
             style="fill:#000000;fill-opacity:1;fill-rule:nonzero;stroke:none"
             d="m 0,0 9.47,0 0,-1.454 -3.955,0 0,-9.897 -1.625,0 0,9.897 -3.89,0 L 0,0 Z" />
        </g>
        <g
           transform="translate(138.764,649.894)"
           id="g126">
          <path
             id="path128"
             style="fill:#000000;fill-opacity:1;fill-rule:nonzero;stroke:none"
             d="m 0,0 -0.486,0 0,-3.57 0.615,0 c 0.82,0 1.383,0.07 1.688,0.211 0.304,0.14 0.542,0.352 0.712,0.635 0.171,0.283 0.255,0.606 0.255,0.967 0,0.357 -0.094,0.679 -0.283,0.967 C 2.312,-0.501 2.047,-0.297 1.703,-0.178 1.361,-0.059 0.793,0 0,0 m -2.111,-9.961 0,11.35 2.842,0 c 1.147,0 2.057,-0.284 2.732,-0.853 0.673,-0.568 1.01,-1.338 1.01,-2.308 0,-0.66 -0.166,-1.231 -0.497,-1.714 C 3.645,-3.968 3.168,-4.328 2.549,-4.566 2.913,-4.804 3.269,-5.13 3.618,-5.542 3.965,-5.955 4.452,-6.672 5.08,-7.695 5.476,-8.34 5.792,-8.824 6.032,-9.149 l 0.6,-0.812 -1.932,0 -0.495,0.747 C 4.188,-9.187 4.156,-9.14 4.108,-9.076 L 3.792,-8.629 3.289,-7.8 2.745,-6.914 c -0.335,0.466 -0.642,0.836 -0.92,1.112 -0.28,0.276 -0.532,0.475 -0.757,0.596 -0.224,0.122 -0.602,0.183 -1.132,0.183 l -0.422,0 0,-4.938 -1.625,0 z" />
        </g>
        <g
           transform="translate(153.9154,644.7424)"
           id="g130">
          <path
             id="path132"
             style="fill:#000000;fill-opacity:1;fill-rule:nonzero;stroke:none"
             d="M 0,0 -1.85,4.112 -3.556,0 0,0 Z m -2.425,6.605 1.138,0 5.112,-11.415 -1.662,0 -1.512,3.356 -4.841,0 -1.411,-3.356 -1.668,0 4.844,11.415 z" />
        </g>
        <g
           transform="translate(160.2524,651.2835)"
           id="g134">
          <path
             id="path136"
             style="fill:#000000;fill-opacity:1;fill-rule:nonzero;stroke:none"
             d="m 0,0 1.625,0 0,-9.876 5.108,0 0,-1.475 -6.733,0 L 0,0 Z" />
        </g>
        <path
           id="path138"
           style="fill:#000000;fill-opacity:1;fill-rule:nonzero;stroke:none"
           d="m 169.655,651.284 1.625,0 0,-11.351 -1.625,0 0,11.351 z" />
        <g
           transform="translate(181.0711,644.7424)"
           id="g140">
          <path
             id="path142"
             style="fill:#000000;fill-opacity:1;fill-rule:nonzero;stroke:none"
             d="M 0,0 -1.85,4.112 -3.556,0 0,0 Z m -2.425,6.605 1.138,0 5.112,-11.415 -1.662,0 -1.512,3.356 -4.841,0 -1.41,-3.356 -1.669,0 4.844,11.415 z" />
        </g>
        <g
           transform="translate(91.8293,625.3368)"
           id="g144">
          <path
             id="path146"
             style="fill:#0078bf;fill-opacity:1;fill-rule:nonzero;stroke:none"
             d="m 0,0 0.881,0 c 1.253,0 1.541,0.954 1.541,1.429 0,0.773 -0.49,1.428 -1.569,1.428 L 0,2.857 0,0 Z m -0.553,3.354 1.496,0 c 1.423,0 2.05,-1.017 2.05,-1.925 0,-0.989 -0.774,-1.926 -2.044,-1.926 l -1.502,0 0,3.851 z" />
        </g>
        <path
           id="path148"
           style="fill:#0078bf;fill-opacity:1;fill-rule:nonzero;stroke:none"
           d="m 96.122,624.84 -0.553,0 0,3.851 0.553,0 0,-3.851 z" />
        <g
           transform="translate(98.8606,627.8438)"
           id="g150">
          <path
             id="path152"
             style="fill:#0078bf;fill-opacity:1;fill-rule:nonzero;stroke:none"
             d="m 0,0 c -0.328,0.311 -0.644,0.401 -0.904,0.401 -0.355,0 -0.609,-0.187 -0.609,-0.457 0,-0.74 1.666,-0.729 1.666,-1.954 0,-0.605 -0.458,-1.045 -1.079,-1.045 -0.418,0 -0.757,0.113 -1.079,0.356 l 0,0.7 c 0.283,-0.361 0.638,-0.559 1.017,-0.559 0.429,0 0.627,0.271 0.627,0.486 0,0.796 -1.666,0.886 -1.666,1.942 0,0.627 0.463,1.028 1.169,1.028 0.293,0 0.587,-0.09 0.858,-0.271 L 0,0 Z" />
        </g>
        <g
           transform="translate(102.9545,627.8325)"
           id="g154">
          <path
             id="path156"
             style="fill:#0078bf;fill-opacity:1;fill-rule:nonzero;stroke:none"
             d="m 0,0 c -0.474,0.277 -0.881,0.401 -1.326,0.401 -0.882,0 -1.537,-0.627 -1.537,-1.474 0,-0.864 0.633,-1.462 1.559,-1.462 0.435,0 0.909,0.152 1.344,0.435 l 0,-0.605 c -0.379,-0.197 -0.791,-0.338 -1.395,-0.338 -1.445,0 -2.078,1.112 -2.078,1.919 0,1.175 0.886,2.033 2.111,2.033 0.396,0 0.797,-0.096 1.322,-0.316 L 0,0 Z" />
        </g>
        <g
           transform="translate(105.6264,625.2974)"
           id="g158">
          <path
             id="path160"
             style="fill:#0078bf;fill-opacity:1;fill-rule:nonzero;stroke:none"
             d="M 0,0 C 0.864,0 1.502,0.627 1.502,1.468 1.502,2.315 0.864,2.936 0,2.936 -0.858,2.936 -1.497,2.315 -1.497,1.468 -1.497,0.627 -0.858,0 0,0 m 0,3.444 c 1.27,0 2.073,-0.903 2.073,-1.976 0,-1.039 -0.78,-1.976 -2.084,-1.976 -1.259,0 -2.055,0.932 -2.055,1.976 0,1.067 0.818,1.976 2.066,1.976" />
        </g>
        <g
           transform="translate(109.5624,624.8057)"
           id="g162">
          <path
             id="path164"
             style="fill:#0078bf;fill-opacity:1;fill-rule:nonzero;stroke:none"
             d="m 0,0 -0.112,0 -1.666,3.885 0.554,0 1.157,-2.705 1.152,2.705 0.548,0 L 0,0 Z" />
        </g>
        <g
           transform="translate(113.8602,628.1938)"
           id="g166">
          <path
             id="path168"
             style="fill:#0078bf;fill-opacity:1;fill-rule:nonzero;stroke:none"
             d="m 0,0 -1.631,0 0,-1.163 1.575,0 0,-0.497 -1.575,0 0,-1.197 1.682,0 0,-0.497 -2.236,0 0,3.851 L 0,0.497 0,0 Z" />
        </g>
        <g
           transform="translate(115.1202,627.0082)"
           id="g170">
          <path
             id="path172"
             style="fill:#0078bf;fill-opacity:1;fill-rule:nonzero;stroke:none"
             d="M 0,0 0.356,0 C 0.949,0 1.118,0.305 1.113,0.627 1.107,0.988 0.893,1.208 0.356,1.208 L 0,1.208 0,0 Z m 0.418,1.683 c 0.779,0 1.265,-0.412 1.265,-1.079 0,-0.446 -0.231,-0.779 -0.643,-0.943 0.349,-0.231 0.564,-0.587 0.858,-1.067 0.164,-0.265 0.259,-0.396 0.525,-0.762 l -0.661,0 -0.508,0.79 c -0.508,0.791 -0.74,0.881 -1.022,0.881 l -0.232,0 0,-1.671 -0.553,0 0,3.851 0.971,0 z" />
        </g>
        <g
           transform="translate(123.4504,625.3368)"
           id="g174">
          <path
             id="path176"
             style="fill:#0078bf;fill-opacity:1;fill-rule:nonzero;stroke:none"
             d="m 0,0 1.74,0 0,-0.497 -2.293,0 0,3.851 L 0,3.354 0,0 Z" />
        </g>
        <g
           transform="translate(127.911,628.1938)"
           id="g178">
          <path
             id="path180"
             style="fill:#0078bf;fill-opacity:1;fill-rule:nonzero;stroke:none"
             d="m 0,0 -1.631,0 0,-1.163 1.575,0 0,-0.497 -1.575,0 0,-1.197 1.682,0 0,-0.497 -2.236,0 0,3.851 L 0,0.497 0,0 Z" />
        </g>
        <g
           transform="translate(129.4474,626.4717)"
           id="g182">
          <path
             id="path184"
             style="fill:#0078bf;fill-opacity:1;fill-rule:nonzero;stroke:none"
             d="M 0,0 1.198,0 0.577,1.395 0,0 Z m 2.502,-1.632 -0.565,0 -0.514,1.135 -1.637,0 -0.486,-1.135 -0.564,0 1.655,3.874 0.389,0 1.722,-3.874 z" />
        </g>
        <g
           transform="translate(132.9948,627.0082)"
           id="g186">
          <path
             id="path188"
             style="fill:#0078bf;fill-opacity:1;fill-rule:nonzero;stroke:none"
             d="M 0,0 0.356,0 C 0.949,0 1.118,0.305 1.113,0.627 1.107,0.988 0.893,1.208 0.356,1.208 L 0,1.208 0,0 Z m 0.418,1.683 c 0.779,0 1.265,-0.412 1.265,-1.079 0,-0.446 -0.231,-0.779 -0.643,-0.943 0.349,-0.231 0.564,-0.587 0.858,-1.067 0.164,-0.265 0.259,-0.396 0.525,-0.762 l -0.661,0 -0.508,0.79 c -0.508,0.791 -0.74,0.881 -1.022,0.881 l -0.232,0 0,-1.671 -0.553,0 0,3.851 0.971,0 z" />
        </g>
        <g
           transform="translate(139.461,624.8398)"
           id="g190">
          <path
             id="path192"
             style="fill:#0078bf;fill-opacity:1;fill-rule:nonzero;stroke:none"
             d="m 0,0 -0.474,0 -2.575,2.965 0,-2.965 -0.52,0 0,3.851 0.441,0 2.608,-2.981 0,2.981 0.52,0 L 0,0 Z" />
        </g>
        <g
           transform="translate(145.7925,625.3368)"
           id="g194">
          <path
             id="path196"
             style="fill:#0078bf;fill-opacity:1;fill-rule:nonzero;stroke:none"
             d="m 0,0 1.74,0 0,-0.497 -2.293,0 0,3.851 L 0,3.354 0,0 Z" />
        </g>
        <g
           transform="translate(150.2531,628.1938)"
           id="g198">
          <path
             id="path200"
             style="fill:#0078bf;fill-opacity:1;fill-rule:nonzero;stroke:none"
             d="m 0,0 -1.631,0 0,-1.163 1.575,0 0,-0.497 -1.575,0 0,-1.197 1.682,0 0,-0.497 -2.236,0 0,3.851 L 0,0.497 0,0 Z" />
        </g>
        <g
           transform="translate(151.7901,626.4717)"
           id="g202">
          <path
             id="path204"
             style="fill:#0078bf;fill-opacity:1;fill-rule:nonzero;stroke:none"
             d="M 0,0 1.198,0 0.576,1.395 0,0 Z m 2.502,-1.632 -0.565,0 -0.514,1.135 -1.638,0 -0.485,-1.135 -0.565,0 1.655,3.874 0.389,0 1.723,-3.874 z" />
        </g>
        <g
           transform="translate(155.3314,625.3368)"
           id="g206">
          <path
             id="path208"
             style="fill:#0078bf;fill-opacity:1;fill-rule:nonzero;stroke:none"
             d="m 0,0 0.881,0 c 1.253,0 1.541,0.954 1.541,1.429 0,0.773 -0.49,1.428 -1.57,1.428 L 0,2.857 0,0 Z m -0.553,3.354 1.496,0 c 1.423,0 2.05,-1.017 2.05,-1.925 0,-0.989 -0.774,-1.926 -2.044,-1.926 l -1.502,0 0,3.851 z" />
        </g>
        <g
           transform="translate(56.0544,608.2814)"
           id="g210">
          <path
             id="path212"
             style="fill:#004289;fill-opacity:1;fill-rule:nonzero;stroke:none"
             d="m 0,0 c -3.483,18.319 -8.838,34.411 -15.008,48.534 1.655,3.502 3.412,6.88 5.255,10.125 C -3.281,42.151 2.119,22.963 4.57,0.783 L 0,0 Z" />
        </g>
        <g
           transform="translate(67.2288,610.0969)"
           id="g214">
          <path
             id="path216"
             style="fill:#0078bf;fill-opacity:1;fill-rule:nonzero;stroke:none"
             d="M 0,0 C -0.121,3.646 -0.327,7.218 -0.611,10.716 -2.42,33.033 -7.34,52.377 -13.219,68.948 -15.435,65.84 -17.574,62.557 -19.614,59.112 -12.851,42.206 -7.169,22.453 -4.607,-0.479 L 0,0 Z" />
        </g>
        <g
           transform="translate(54.0518,607.7855)"
           id="g218">
          <path
             id="path220"
             style="fill:#0078bf;fill-opacity:1;fill-rule:nonzero;stroke:none"
             d="m 0,0 c -3.314,17.47 -8.345,32.905 -14.165,46.524 -0.62,-1.373 -1.224,-2.762 -1.811,-4.17 -0.835,-2.002 -1.621,-4.003 -2.36,-6.002 5.261,-11.117 9.999,-23.465 13.75,-37.191 L 0,0 Z" />
        </g>
        <g
           transform="translate(73.9035,610.8924)"
           id="g222">
          <path
             id="path224"
             style="fill:#004289;fill-opacity:1;fill-rule:nonzero;stroke:none"
             d="m 0,0 c 0.405,9.656 0.18,18.844 -0.527,27.559 -1.596,19.675 -5.623,36.954 -10.3,51.863 -2.604,-2.857 -5.149,-5.946 -7.603,-9.253 7.053,-19.523 12.831,-42.954 13.792,-70.596 L 0,0 Z" />
        </g>
        <g
           transform="translate(47.4825,606.3743)"
           id="g226">
          <path
             id="path228"
             style="fill:#004289;fill-opacity:1;fill-rule:nonzero;stroke:none"
             d="m 0,0 c -3.509,12.842 -7.886,24.472 -12.754,35.008 -1.176,-3.371 -2.215,-6.728 -3.12,-10.056 4.12,-8.075 7.959,-16.815 11.363,-26.279 L 0,0 Z" />
        </g>
        <g
           transform="translate(34.563,602.1846)"
           id="g230">
          <path
             id="path232"
             style="fill:#004289;fill-opacity:1;fill-rule:nonzero;stroke:none"
             d="M 0,0 C -2.032,4.481 -4.155,8.78 -6.353,12.902 -6.832,9.606 -7.169,6.37 -7.368,3.212 c 0.99,-1.687 1.969,-3.406 2.936,-5.154 L 0,0 Z" />
        </g>
        <g
           transform="translate(40.9972,604.472)"
           id="g234">
          <path
             id="path236"
             style="fill:#0078bf;fill-opacity:1;fill-rule:nonzero;stroke:none"
             d="m 0,0 c -3.074,8.52 -6.506,16.448 -10.177,23.831 -0.829,-3.335 -1.522,-6.635 -2.082,-9.883 2.703,-4.93 5.303,-10.113 7.77,-15.566 L 0,0 Z" />
        </g>
        <g
           transform="translate(68.7546,609.7056)"
           id="g238">
          <path
             id="path240"
             style="fill:#000000;fill-opacity:1;fill-rule:nonzero;stroke:none"
             d="M 0,0 C 13.429,1.684 26.079,1.694 36.684,0.335 26.331,2.374 13.56,2.874 -0.09,1.398 -22.251,-0.998 -41.036,-7.983 -50.408,-16.332 -39.581,-8.912 -21.25,-2.666 0,0" />
        </g>
      </g>
    </g>
  </g>
</svg>
