<svg xmlns="http://www.w3.org/2000/svg" viewBox="0 0 746.29999 162.325" height="162.325" width="746.3"><path d="M95.422 58.328c0-5.06-.094-5.982-6.122-6.852v-.694h15.835v.694c-5.524.73-5.665 2.114-5.665 6.852v16.475c.05 8.93-1.01 10.91-10.996 15.19l-.367-.784c6.764-3.178 7.315-8.147 7.315-16.426V58.328M112.836 68.958c-.78 2.307-2.81 7.094-2.81 9.3 0 2.81 3.175 2.81 5.247 3.128v.69h-12.61v-.69c4.098-1.105 4.507-2.023 5.936-5.618l5.196-13.574 2.77-7.5c.407-1.2 1.01-2.303.502-3.173 1.245-.51 2.39-1.333 3.36-2.486L130.552 76c1.236 3.363 2.027 4.694 5.703 5.386v.69h-13.53v-.69c1.614-.365 3.547-.877 3.547-2.94 0-1.94-1.752-6.265-2.945-9.488h-10.492zm5.106-14.08l-4.327 11.962h9.11l-4.783-11.962M158.53 75.36l8.33-18.32c1.154-2.527 1.795-4.834.78-5.52l.1-.74h10.113v.692c-2.938.6-4.733 1.704-4.552 4.925l1.014 16.754c.507 6.393.507 7.41 5.43 8.236v.69h-15.136v-.69c3.543-.55 5.796-.968 5.563-5.015l-1.24-20.11h-.094l-11.73 25.815h-.506l-10.906-24.757h-.09c-.74 7.04-1.106 12.15-1.43 19.277-.09 1.795-.046 3.87 5.524 4.79v.69h-12.834v-.69c4.09-.69 4.504-2.67 5.15-6.396l1.7-12.93.602-6.262c.275-3.037-2.35-4.096-5.062-4.326v-.69h9.936l.048.505c-1.012 1.06.225 3.823.556 4.556l8.736 19.516M181.636 81.386c5.528-.735 5.57-2.117 5.705-6.854V58.328c-.134-4.738-.176-6.122-5.704-6.852v-.694h24.713l-.552 7.085h-.69c-.322-5.932-4.606-5.983-9.252-5.983h-4.46V65h4.78c3.456 0 6.08-.275 6.586-4.23h.69V71.03h-.69c-.602-4.047-3.13-4.1-6.587-4.1h-4.78v7.55c0 2.712-.645 6.488 6.9 6.488 5.803 0 8.653-2.205 9.8-8.008h.69c-.043 3.5-.638 6.353-1.558 9.113h-25.59v-.69M229.87 58.882h-.737c-.737-3.727-1.934-7.32-6.488-7.32-2.95 0-5.386 2.028-5.386 5.064 0 7.962 14.495 7.686 14.495 16.985 0 5.933-5.894 9.02-11.182 9.02-2.81 0-5.756-.826-8.098-2.35l-1.334-7.823h.827c1.145 4.422 4.233 8.792 9.295 8.792 3.402 0 6.08-2.025 6.08-5.615 0-8.193-14.083-7.454-14.083-16.662 0-5.383 5.336-8.786 10.26-8.786 2.34 0 4.69.686 6.72 1.79l-.37 6.905M270.606 60.264h-.694c-.877-5.206-3.913-8.926-9.433-8.926-8.426 0-13.17 6.898-13.17 14.816 0 9.07 6.954 15.367 13.63 15.367 6.024 0 8.418-4.413 10.49-9.38l.65.275c-.56 2.81-1.43 5.57-2.538 8.236-2.945 1.425-6.117 1.98-9.388 1.98-9.624 0-18.178-5.523-18.178-15.925 0-8.19 6.393-16.475 18.548-16.475 3.495 0 7.042.69 10.082 2.484v7.55M308.16 66.43c0 9.897-7.175 16.197-16.84 16.197-9.71 0-16.847-6.3-16.847-16.24 0-9.808 7.18-16.157 16.802-16.157 11.78 0 16.886 8.008 16.886 16.2m-28.35-1.154c0 7.134 3.78 16.245 12.06 16.245 7.59 0 10.956-7.728 10.956-14.303-.14-8.154-4.877-15.882-11.925-15.882-7.916 0-11.09 7.728-11.09 13.94M345.123 66.43c0 9.897-7.178 16.197-16.843 16.197-9.714 0-16.843-6.3-16.843-16.24 0-9.808 7.18-16.157 16.8-16.157 11.783 0 16.885 8.008 16.885 16.2m-28.347-1.154c0 7.134 3.772 16.245 12.056 16.245 7.6 0 10.954-7.728 10.954-14.303-.14-8.154-4.88-15.882-11.923-15.882-7.908 0-11.085 7.728-11.085 13.94M355.725 74.532c.138 4.74.18 6.12 6.117 6.854v.69h-15.877v-.69c5.528-.735 5.566-2.114 5.704-6.854V58.328c-.14-4.738-.177-6.122-5.705-6.852v-.695h14.63v.696c-4.69.73-4.732 2.114-4.87 6.852v16.204zm20.8-23.75v.694c-5.245.55-8.74 5.012-12.15 8.557l-4.326 4.606 9.344 10.302c2.807 3.083 6.124 5.84 10.214 6.99l-.234.7c-8.004-.647-9.29-.875-13.62-5.615l-9.39-10.22 7.412-8.053c4.83-5.43 3.91-6.95.827-7.268v-.695h11.92M125.245 93.977v.69c-4.188.456-4.468 3.04-4.65 9.114l-.275 10.075c-.137 5.946-2.67 11.968-12.886 11.968-14.265 0-12.79-10.31-12.79-13.99v-10.308c-.142-4.744-.186-6.122-5.71-6.858v-.69h15.878v.69c-6.032.874-6.122 1.794-6.122 6.858v9.433c0 .874-1.473 12.752 11.137 12.752 9.942 0 8.977-9.48 8.977-15.103v-4.826c0-5.846-.46-8.515-6.905-9.113v-.69h13.345M157.265 118.045l-.23-16.796c-.04-4.38-1.243-5.666-6.44-6.583v-.69h12.556v.69c-3.17.412-3.766 2.16-4.138 5.152-.644 5.06-.412 16.154-.183 26.186l-.592.14c-7.365-8.696-15.56-16.755-23.34-25.133v8.472c0 11.415-.27 13.76 6.4 15.095v.694h-13.753v-.694c6.208-.64 5.98-4.88 5.98-15.323v-6.906c0-4.6-.74-6.397-6.582-7.683v-.69h7.593l22.73 24.068M174.876 117.726c.133 4.74.19 6.118 5.7 6.854v.694H165.12v-.694c5.52-.736 5.57-2.114 5.7-6.854v-16.2c-.13-4.745-.18-6.123-5.7-6.86v-.69h15.456v.69c-5.51.737-5.567 2.115-5.7 6.86v16.2M216.15 93.977v.69c-4.325.37-5.655 4-8.51 10.676l-8.795 20.986h-.637l-10.398-24.892c-1.382-3.366-2.442-6.315-6.536-6.77v-.69h14.582v.69c-6.487.64-4.37 4.325-3.177 7.223l7.363 17.765 5.44-13.02c3.952-9.438 4.688-10.957-2.308-11.968v-.69h12.976M216.57 124.58c5.526-.736 5.57-2.114 5.71-6.854v-16.2c-.14-4.745-.184-6.123-5.71-6.86v-.69h24.713l-.552 7.083h-.688c-.327-5.937-4.606-5.98-9.252-5.98h-4.46v13.118h4.786c3.446 0 6.07-.275 6.58-4.237h.69v10.27h-.69c-.6-4.052-3.134-4.095-6.58-4.095h-4.786v7.543c0 2.713-.646 6.485 6.9 6.485 5.8 0 8.66-2.205 9.8-8.005h.694c-.044 3.497-.646 6.352-1.564 9.116h-25.59v-.694M251.22 103.453c0-7.038-.234-8.098-5.388-8.558v-.642l11.234-.37c11.594-.366 12.513 5.292 12.513 7.504 0 3.862-2.392 6.07-5.707 7.55l.228.32c3.55 6.21 7.962 14.127 15.56 15.698l-.14.685c-4.884-.233-8.47-.09-11.135-2.85-3.035-3.175-5.43-7.226-6.394-9.21-1.845-3.82-3.504-2.712-6.724-3.267v7.413c0 5.063.09 5.98 6.398 6.854v.694H245.51v-.694c5.525-.736 5.567-2.114 5.71-6.854v-14.273zm4.046 6.08c4.42-.048 9.575-2.076 9.575-7.182 0-5.385-4.74-7.545-9.574-7.5v14.683M297.075 102.076h-.733c-.736-3.73-1.933-7.32-6.488-7.32-2.95 0-5.38 2.025-5.38 5.063-.002 7.96 14.486 7.685 14.486 16.984 0 5.934-5.89 9.02-11.178 9.02-2.81 0-5.755-.826-8.105-2.354l-1.332-7.815h.827c1.154 4.417 4.233 8.787 9.3 8.787 3.405 0 6.07-2.02 6.07-5.607 0-8.197-14.077-7.46-14.077-16.668 0-5.386 5.334-8.788 10.255-8.788 2.35 0 4.696.688 6.725 1.795l-.37 6.9M310.53 117.726c.14 4.74.19 6.118 5.71 6.854v.694h-15.464v-.694c5.526-.736 5.575-2.114 5.71-6.854l.002-16.2c-.137-4.745-.185-6.123-5.712-6.86v-.69h15.464v.69c-5.52.737-5.57 2.115-5.71 6.86v16.2M346.634 92.552h.362l.65 8.603-.65.138c-1.61-5.71-4.137-5.938-9.428-5.938h-2.77v21.27c0 5.7.28 7.22 6.45 7.955v.698h-16.937v-.698c6.163-.736 6.443-2.256 6.443-7.956v-21.27h-2.757c-5.298 0-7.83.23-9.44 5.94l-.64-.14.64-8.6.37-.002.46.413c1.15 1.06 1.34 1.012 2.85 1.012h21.088c1.515 0 1.696.048 2.85-1.012l.46-.413M378.027 93.977v.69c-4.007.322-5.98 2.53-7.912 5.845l-5.433 10.765v5.21c.094 5.287.184 7.173 6.074 8.093v.694h-16.2v-.694c5.89-.92 5.988-2.806 6.074-8.094V112.8l-4.784-10.45c-1.75-3.865-2.995-7.132-7.645-7.683v-.69h12.71v.69c-3.78.508-3.27 2.022-1.793 5.248l4.6 9.936 4-7.59c2.854-5.337 2.485-7.085-1.512-7.593v-.69h11.822M94.445 135.29h280.67v-.938H94.445v.94zM99.19 144.822h2.783l7.528 17.235h-3.172l-1.736-4.133h-8.09l-1.76 4.133h-3.08l7.528-17.234zm4.3 10.44l-2.957-6.843-2.93 6.843h5.886M112.048 154.794v-9.844h3.01v9.72c0 3.177 1.63 4.89 4.318 4.89 2.665 0 4.303-1.614 4.303-4.766v-9.844h3.003v9.697c0 5.11-2.886 7.678-7.36 7.678-4.44 0-7.275-2.567-7.275-7.53M130.154 159.56l1.812-2.144c1.633 1.404 3.27 2.217 5.4 2.217 1.85 0 3.025-.854 3.025-2.156v-.042c0-1.22-.68-1.886-3.86-2.614-3.64-.88-5.69-1.957-5.69-5.11v-.048c0-2.932 2.44-4.96 5.843-4.96 2.487 0 4.465.76 6.205 2.154l-1.615 2.27c-1.54-1.15-3.08-1.76-4.645-1.76-1.76 0-2.784.904-2.784 2.03v.04c0 1.324.78 1.913 4.055 2.694 3.613.884 5.5 2.177 5.5 5.01v.05c0 3.2-2.52 5.104-6.11 5.104-2.615 0-5.084-.904-7.136-2.734M151.27 147.73h-5.43v-2.78h13.886v2.78H154.3v14.327h-3.03V147.73M163.39 144.95h7.624c2.15 0 3.84.638 4.936 1.704.906.937 1.418 2.205 1.418 3.69v.05c0 2.808-1.685 4.502-4.083 5.186l4.628 6.477h-3.553l-4.2-5.964h-3.77v5.964h-3V144.95zm7.403 8.48c2.15 0 3.52-1.13 3.52-2.865v-.05c0-1.833-1.323-2.833-3.54-2.833h-4.382v5.75h4.403M187.607 144.822h2.78l7.532 17.235h-3.177l-1.737-4.133h-8.087l-1.756 4.133h-3.083l7.527-17.234zm4.297 10.44l-2.953-6.843-2.933 6.843h5.887M201.34 144.95h3.01v14.368h8.99v2.74h-12V144.95M217.13 162.057h3.006V144.95h-3.007v17.107zM231.254 144.822h2.785l7.525 17.235h-3.172l-1.737-4.133h-8.086l-1.76 4.133h-3.08l7.524-17.234zm4.3 10.44l-2.956-6.843-2.934 6.843h5.89M65.413 76.985c-2.29 1.327-5.562 2.146-9.2 2.146-3.638 0-6.906-.818-9.2-2.14-2.285-1.32-5.565-2.146-9.2-2.146-3.628 0-6.912.826-9.19 2.145-2.3 1.322-5.568 2.14-9.206 2.14-3.637 0-6.91-.818-9.196-2.14-2.295-1.32-5.562-2.146-9.204-2.146-.338 0-.677.01-1.016.027v8.516c0 1.288.048 2.532.118 3.75.296-.01.598-.025.898-.025 3.642 0 6.91.828 9.205 2.15 2.288 1.32 5.56 2.143 9.197 2.143 3.638 0 6.906-.823 9.205-2.143 2.28-1.322 5.563-2.15 9.192-2.15 3.634 0 6.914.828 9.198 2.15 2.295 1.32 5.563 2.143 9.2 2.143 3.64 0 6.91-.823 9.2-2.146 2.294-1.32 5.565-2.146 9.2-2.146.306 0 .6.016.896.025.075-1.217.12-2.46.12-3.75v-8.514c-.332-.015-.667-.026-1.017-.026-3.633 0-6.904.826-9.197 2.14M56.213 103.67c-3.634 0-6.91-.822-9.2-2.142-2.285-1.322-5.565-2.15-9.2-2.15-3.628 0-6.908.828-9.19 2.15-2.3 1.32-5.568 2.143-9.206 2.143-3.637.004-6.91-.822-9.196-2.142-2.04-1.177-4.85-1.956-8-2.11 1.61 5.394 3.997 9.93 6.812 13.792.418.185.82.374 1.19.587 2.286 1.32 5.558 2.15 9.195 2.146 3.638 0 6.906-.827 9.205-2.146 2.283-1.32 5.563-2.154 9.192-2.154 3.634 0 6.914.827 9.198 2.154 2.292 1.32 5.567 2.146 9.2 2.146 3.64 0 6.91-.827 9.2-2.146.376-.213.774-.402 1.19-.592 2.816-3.857 5.198-8.393 6.812-13.786-3.158.152-5.965.93-8 2.108-2.292 1.32-5.563 2.143-9.2 2.143M47.012 126.065c-2.283-1.315-5.564-2.142-9.197-2.142-3.63 0-6.91.827-9.192 2.142-1.108.637-2.438 1.153-3.93 1.52 5.28 3.528 10.154 6.118 13.121 8.6 2.974-2.482 7.847-5.072 13.123-8.6-1.488-.366-2.82-.882-3.925-1.52M65.413 52.45c-2.29 1.317-5.562 2.148-9.2 2.148-3.638 0-6.906-.83-9.2-2.15-2.285-1.316-5.565-2.144-9.2-2.144-3.628 0-6.912.828-9.19 2.145-2.3 1.317-5.568 2.148-9.206 2.148-3.637 0-6.91-.83-9.196-2.15-2.295-1.316-5.562-2.144-9.204-2.144-.338 0-.677.012-1.016.028v12.27c.34-.01.678-.023 1.016-.023 3.642 0 6.91.82 9.205 2.14 2.288 1.324 5.56 2.146 9.197 2.146 3.638 0 6.906-.822 9.205-2.146 2.28-1.32 5.563-2.14 9.192-2.14 3.634 0 6.914.82 9.198 2.14 2.295 1.324 5.563 2.146 9.2 2.146 3.64 0 6.91-.822 9.2-2.146 2.294-1.32 5.565-2.14 9.2-2.14.35 0 .684.012 1.015.026V50.332a20.67 20.67 0 0 0-1.016-.028c-3.633 0-6.904.828-9.197 2.145M37.815 27.25c-6.846 0-12.395 5.552-12.395 12.4 0 .615.06 1.22.147 1.814 1.138-.345 2.17-.778 3.055-1.285 2.28-1.316 5.563-2.145 9.192-2.145 3.634 0 6.914.83 9.198 2.143.885.508 1.917.94 3.056 1.288.085-.597.145-1.197.145-1.817 0-6.847-5.548-12.4-12.4-12.4zM20.92 30.896c-.243.04-.49.104-.74.15a9.12 9.12 0 0 1-1.904.1c-.642-.016-1.403-.172-1.83-.45-.107.65.687 1.498 1.365 1.954.466.318.954.588 1.47.76.2.07.41.105.61.18.617.22 1.233.618 1.71 1.045.63.55 1.144 1.253 1.625 1.873a14.815 14.815 0 0 1 2.094-5.012c-.655-.23-1.363-.482-2.13-.6a7.7 7.7 0 0 0-2.27 0zm45.218 8.758l-13.614-2.44c.138.794.225 1.61.225 2.44 0 .827-.088 1.634-.226 2.433l13.614-2.433zm-43.04-2.44l-13.602 2.44 13.606 2.433c-.125-.8-.217-1.606-.217-2.433 0-.83.092-1.646.214-2.44zm32.858-3.317c.15-.21.27-.43.426-.63.374-.55.803-.995 1.257-1.42.47-.437 1.12-.874 1.628-.98-.386-.524-1.555-.572-2.358-.41-.552.104-1.07.25-1.575.496-.196.094-.362.215-.56.307-.59.277-1.303.432-1.952.467-.826.058-1.693-.076-2.47-.177h-.01c.98 1.507 1.693 3.2 2.078 5.022.63-.297 1.3-.618 1.93-1.076a7.77 7.77 0 0 0 1.606-1.6zm-26.633-6.514l-8.556-4.787 4.772 8.56a15.12 15.12 0 0 1 3.783-3.773zm20.768 3.773l4.776-8.56-8.555 4.787a15.06 15.06 0 0 1 3.78 3.773zm-9.763-6.208L37.814.005l-2.51 24.942a15.42 15.42 0 0 1 2.51-.225c.855 0 1.69.09 2.513.225zm-11.21-2.816c.095.19.217.367.304.56.284.596.446 1.302.478 1.942.046.84-.08 1.707-.182 2.475v.02c1.504-.982 3.206-1.702 5.025-2.085-.3-.632-.615-1.306-1.078-1.93a7.444 7.444 0 0 0-1.6-1.593c-.207-.156-.424-.28-.633-.425-.548-.386-.994-.818-1.422-1.264-.437-.48-.867-1.123-.973-1.63-.527.387-.57 1.55-.413 2.357.11.557.252 1.077.496 1.574zm17.458 2.894a7.737 7.737 0 0 0 0-2.273c-.035-.245-.115-.486-.154-.74-.11-.656-.13-1.266-.11-1.9.028-.64.174-1.41.462-1.838-.642-.1-1.497.694-1.957 1.373-.318.472-.582.95-.76 1.475-.07.192-.11.407-.18.6-.22.62-.62 1.235-1.04 1.72-.56.616-1.252 1.14-1.882 1.61l-.004.004a15 15 0 0 1 5.02 2.098c.23-.656.475-1.366.605-2.128M455.47 50.187V162.22" fill="#fff"/><path d="M455.47 50.187V162.22" fill="none" stroke="#fff" stroke-width="1.249375"/><path d="M531.35 52.236h14.6l-1.24 3.92h-8.56v7.04h8.4v3.92h-8.4v11.478h-4.8V52.236M549.79 50.276h4.76v22.758c0 1.32.52 1.72 1.4 1.72.24 0 .8-.08 1.2-.24l.92 3.68c-1.12.48-2.44.68-3.52.68-3.16 0-4.76-1.56-4.76-4.56V50.276M572.23 67.115c-.08-2.16-1.12-4.28-3.64-4.28-2.36 0-3.68 2-3.68 4.28h7.32zm-12.08 2.04c0-5.68 3.12-9.96 8.52-9.96 5.32 0 8.4 3.84 8.4 10.12v1.12h-12.12c.08 2.92 2.16 4.8 5.32 4.8 1.92 0 3.44-.52 4.8-1.28l1.44 3.28c-2 1.238-4.36 1.758-6.68 1.758-6.92 0-9.68-4.72-9.68-9.838M582.51 73.914v-10.52h-3.4v-3.718h3.4v-4.4l4.76-1.4v5.8h5.72l-1.16 3.72h-4.56v9.358c0 1.76.6 2.4 1.84 2.4 1.12 0 2.16-.44 2.88-.92l1.44 3.28c-1.36.92-3.64 1.48-5.52 1.48-3.36 0-5.4-1.92-5.4-5.08M595.31 69.274c0-5.88 4.36-10.08 9.998-10.08 2.36 0 4.08.64 5.08 1.28v4.04c-1.32-.96-2.76-1.48-4.6-1.48-3.52 0-5.6 2.64-5.6 6.12 0 3.88 2.12 6 5.36 6 1.76 0 3.08-.56 4.4-1.28l1.4 3.28c-1.52 1.04-3.88 1.84-6.48 1.84-6.16 0-9.56-4.24-9.56-9.72M614.27 50.276h4.76v11.48c1.72-1.44 3.88-2.56 6.277-2.56 3 0 6.04 1.48 6.04 6.88v12.518h-4.76v-11.04c0-2.32-.478-4.2-2.92-4.2-1.598 0-3.238.84-4.638 2v13.24h-4.76V50.276M647.028 67.115c-.08-2.16-1.12-4.28-3.64-4.28-2.36 0-3.68 2-3.68 4.28h7.32zm-12.08 2.04c0-5.68 3.12-9.96 8.52-9.96 5.32 0 8.4 3.84 8.4 10.12v1.12h-12.12c.08 2.92 2.16 4.8 5.32 4.8 1.92 0 3.44-.52 4.8-1.28l1.44 3.28c-2 1.238-4.36 1.758-6.68 1.758-6.92 0-9.68-4.72-9.68-9.838M655.47 59.676h4.04l.52 2.12c1.72-1.72 3.277-2.6 5.197-2.6.882 0 1.92.24 2.68.76l-1.68 4.04c-.84-.52-1.598-.64-2.16-.64-1.238 0-2.278.52-3.84 1.88v13.358h-4.758V59.676M668.03 59.676h4.84l4.677 12.878h.08l4.6-12.878h4.8l-7.68 19.038h-3.598l-7.72-19.038M689.63 59.676h4.797v18.918h-4.798V59.676zm-.523-5.92c0-1.6 1.242-2.88 2.92-2.88 1.682 0 2.962 1.24 2.962 2.88 0 1.56-1.28 2.84-2.963 2.84-1.678 0-2.92-1.24-2.92-2.84M710.268 67.115c-.08-2.16-1.12-4.28-3.64-4.28-2.36 0-3.68 2-3.68 4.28h7.32zm-12.08 2.04c0-5.68 3.12-9.96 8.52-9.96 5.318 0 8.398 3.84 8.398 10.12v1.12h-12.12c.08 2.92 2.16 4.8 5.32 4.8 1.92 0 3.44-.52 4.8-1.28l1.44 3.28c-2 1.238-4.36 1.758-6.68 1.758-6.918 0-9.677-4.72-9.677-9.838M716.79 59.676h4.838l4 12.838h.08l4-12.838h3.72l4.158 12.838h.08l3.92-12.838h4.72l-7 19.038h-3.52l-4.158-12.84h-.08l-4.24 12.84h-3.68l-6.84-19.038M538.31 105.645c1.24 0 2.12-.24 2.92-.68 1.12-.64 1.84-1.84 1.84-3.48 0-1.4-.6-2.64-1.76-3.32-.64-.44-1.52-.76-2.96-.76h-2.2v8.24h2.16zm-6.96-12.16h7.2c2.48 0 4.24.4 5.64 1.08 2.8 1.32 3.92 3.76 3.92 6.44 0 3.52-2.12 5.84-5.16 6.8v.08c.8.44 1.88 1.88 3.28 4.28l4.4 7.68h-5.52l-3.8-6.68c-1.28-2.36-2.24-3.44-2.88-3.6h-2.28v10.28h-4.8v-26.36M564.19 108.365c-.08-2.16-1.12-4.28-3.64-4.28-2.36 0-3.68 2-3.68 4.28h7.32zm-12.08 2.04c0-5.68 3.12-9.96 8.52-9.96 5.32 0 8.4 3.84 8.4 10.12v1.12h-12.12c.08 2.92 2.16 4.8 5.32 4.8 1.92 0 3.44-.52 4.8-1.28l1.44 3.28c-2 1.238-4.36 1.758-6.68 1.758-6.92 0-9.68-4.72-9.68-9.838M572.75 114.924c1.44.92 3.24 1.56 5.16 1.56s3.32-.56 3.32-2c0-3.2-8.88-2-8.88-8.32 0-3.36 2.72-5.72 7.16-5.72 2.12 0 4 .36 5.56.92v4.04c-1.6-.68-3.36-1.2-5.36-1.2-1.6 0-2.68.48-2.68 1.72 0 3 8.88 1.84 8.88 8.44 0 4.16-3.6 5.88-7.68 5.88-2.96 0-5.4-.88-6.96-1.84l1.48-3.48M600.71 108.365c-.08-2.16-1.12-4.28-3.64-4.28-2.36 0-3.68 2-3.68 4.28h7.32zm-12.08 2.04c0-5.68 3.12-9.96 8.52-9.96 5.32 0 8.4 3.84 8.4 10.12v1.12h-12.12c.08 2.92 2.16 4.8 5.32 4.8 1.92 0 3.44-.52 4.8-1.28l1.44 3.28c-2 1.238-4.36 1.758-6.68 1.758-6.92 0-9.68-4.72-9.68-9.838M617.03 111.124c-1.24.04-2.12.24-2.76.6-.8.44-1.16 1.2-1.16 2.16 0 1.64 1.08 2.6 2.8 2.6 1.76 0 3.04-.88 3.68-1.4v-4.04l-2.56.08zm2.96 6.92c-1.36 1.24-3.08 2.2-5.44 2.2-3.6 0-6.28-2.4-6.28-6.04 0-2.56 1.24-4.16 3.2-5.16 1.32-.68 2.96-1 4.88-1.08l3.24-.12v-.6c0-2.2-1.44-3.16-3.64-3.16-1.88 0-3.6.6-4.96 1.32l-1.56-3.08a14.88 14.88 0 0 1 7.32-1.88c5.08 0 7.6 2.32 7.6 6.88v7.68c0 2.2.08 3.84.36 4.84h-4l-.72-1.8M628.83 100.926h4.04l.52 2.12c1.72-1.72 3.28-2.6 5.2-2.6.88 0 1.92.24 2.68.76l-1.68 4.04c-.84-.52-1.6-.64-2.16-.64-1.24 0-2.28.52-3.84 1.88v13.358h-4.76v-18.918M641.91 110.524c0-5.88 4.36-10.08 10-10.08 2.36 0 4.08.64 5.08 1.28v4.04c-1.32-.96-2.76-1.48-4.6-1.48-3.52 0-5.6 2.64-5.6 6.12 0 3.88 2.12 6 5.36 6 1.76 0 3.077-.56 4.4-1.28l1.4 3.28c-1.523 1.04-3.88 1.84-6.48 1.84-6.16 0-9.56-4.24-9.56-9.72M660.87 91.526h4.76v11.48c1.72-1.44 3.88-2.56 6.28-2.56 3 0 6.037 1.48 6.037 6.88v12.518h-4.758v-11.04c0-2.32-.48-4.2-2.92-4.2-1.6 0-3.24.84-4.64 2v13.24h-4.76V91.526M531.95 155.533c1.56 1.08 3.56 1.92 5.96 1.92 2.2 0 4.4-.84 4.4-3.12 0-5.158-11.4-4.518-11.4-12.558 0-3.88 3.08-7.28 8.56-7.28 2.72 0 5 .6 6.44 1.32v4.4c-2.08-1.08-4.2-1.68-6.28-1.68-1.84 0-3.6.72-3.6 2.84 0 4.84 11.4 4.2 11.4 12.56 0 4.68-4 7.56-9.4 7.56-3.08 0-5.96-.88-7.96-2.28l1.88-3.682M553.51 156.414v-10.52h-3.4v-3.72h3.4v-4.4l4.76-1.398v5.8h5.72l-1.16 3.72h-4.56v9.358c0 1.76.6 2.4 1.84 2.4 1.12 0 2.16-.44 2.88-.92l1.44 3.28c-1.36.92-3.64 1.48-5.52 1.48-3.36 0-5.4-1.92-5.4-5.08M574.99 152.374c-1.24.04-2.12.24-2.76.6-.8.44-1.16 1.2-1.16 2.16 0 1.64 1.08 2.6 2.8 2.6 1.76 0 3.04-.88 3.68-1.4v-4.04l-2.56.08zm2.96 6.92c-1.36 1.24-3.08 2.2-5.44 2.2-3.6 0-6.28-2.4-6.28-6.04 0-2.56 1.24-4.16 3.2-5.16 1.32-.68 2.96-1 4.88-1.08l3.24-.12v-.6c0-2.2-1.44-3.16-3.64-3.16-1.88 0-3.6.6-4.96 1.32l-1.56-3.08c2.24-1.24 4.68-1.88 7.32-1.88 5.08 0 7.6 2.32 7.6 6.88v7.68c0 2.2.08 3.84.36 4.84h-4l-.72-1.8M588.63 156.414v-10.52h-3.4v-3.72h3.4v-4.4l4.76-1.398v5.8h5.717l-1.16 3.72h-4.558v9.358c0 1.76.6 2.4 1.837 2.4 1.12 0 2.162-.44 2.882-.92l1.44 3.28c-1.36.92-3.642 1.48-5.52 1.48-3.36 0-5.4-1.92-5.4-5.08M602.39 142.175h4.797v18.92h-4.798v-18.92zm-.52-5.92c0-1.6 1.24-2.88 2.917-2.88 1.682 0 2.962 1.24 2.962 2.88 0 1.56-1.28 2.84-2.963 2.84-1.678 0-2.918-1.24-2.918-2.84M624.947 151.575c0-3.48-1.56-6.04-4.56-6.04-3 0-4.56 2.56-4.56 6.04 0 3.52 1.56 6.08 4.56 6.08 3 0 4.56-2.56 4.56-6.08zm-13.998 0c0-5.68 3.797-9.88 9.437-9.88 5.64 0 9.48 4.2 9.48 9.88 0 5.68-3.84 9.92-9.48 9.92-5.64 0-9.438-4.24-9.438-9.92M633.428 142.175h4.08l.48 2.12c2-1.56 4.118-2.6 6.48-2.6 3 0 6.078 1.48 6.078 6.88v12.52h-4.798v-11.04c0-2.32-.482-4.2-2.92-4.2-1.56 0-3.24.84-4.64 2v13.24h-4.76v-18.92" fill="#fff"/></svg>