<?xml version="1.0" encoding="UTF-8" standalone="no"?>
<svg
   xmlns:dc="http://purl.org/dc/elements/1.1/"
   xmlns:cc="http://creativecommons.org/ns#"
   xmlns:rdf="http://www.w3.org/1999/02/22-rdf-syntax-ns#"
   xmlns:svg="http://www.w3.org/2000/svg"
   xmlns="http://www.w3.org/2000/svg"
   viewBox="0 0 354.35001 151.52499"
   height="151.52499"
   width="354.35001"
   xml:space="preserve"
   version="1.1"
   id="svg2"><metadata
     id="metadata8"><rdf:RDF><cc:Work
         rdf:about=""><dc:format>image/svg+xml</dc:format><dc:type
           rdf:resource="http://purl.org/dc/dcmitype/StillImage" /><dc:title></dc:title></cc:Work></rdf:RDF></metadata><defs
     id="defs6" /><g
     transform="matrix(1.25,0,0,-1.25,0,151.525)"
     id="g10"><g
       transform="scale(0.1,0.1)"
       id="g12"><path
         id="path14"
         style="fill:#ffffff;fill-opacity:1;fill-rule:nonzero;stroke:none"
         d="m 712.594,776.613 c 0,37.797 -0.696,44.684 -45.719,51.188 l 0,5.172 118.262,0 0,-5.172 c -41.25,-5.469 -42.305,-15.793 -42.305,-51.188 l 0,-123.031 c 0.359,-66.684 -7.539,-81.473 -82.141,-113.402 l -2.738,5.84 c 50.508,23.71 54.641,60.812 54.641,122.648 l 0,107.945" /><path
         id="path16"
         style="fill:#ffffff;fill-opacity:1;fill-rule:nonzero;stroke:none"
         d="m 842.637,697.23 c -5.836,-17.199 -21.004,-52.96 -21.004,-69.433 0,-20.973 23.722,-20.973 39.211,-23.375 l 0,-5.149 -94.172,0 0,5.149 c 30.601,8.25 33.68,15.125 44.328,41.945 l 38.82,101.379 20.649,56.016 c 3.082,8.949 7.543,17.187 3.769,23.707 9.285,3.793 17.864,9.957 25.094,18.551 l 75.602,-201.375 c 9.265,-25.098 15.132,-35.063 42.616,-40.223 l 0,-5.149 -101.03,0 0,5.149 c 12.031,2.75 26.468,6.551 26.468,21.992 0,14.441 -13.078,46.754 -22.004,70.816 l -78.347,0 z m 38.144,105.161 -32.32,-89.348 68.059,0 -35.739,89.348" /><path
         id="path18"
         style="fill:#ffffff;fill-opacity:1;fill-rule:nonzero;stroke:none"
         d="m 1183.87,649.449 62.21,136.789 c 8.6,18.871 13.4,36.094 5.83,41.231 l 0.72,5.511 75.55,0 0,-5.171 c -21.96,-4.461 -35.35,-12.704 -33.99,-36.766 l 7.56,-125.109 c 3.78,-47.746 3.78,-55.336 40.52,-61.524 l 0,-5.137 -113.02,0 0,5.137 c 26.46,4.141 43.28,7.227 41.57,37.473 l -9.29,150.18 -0.67,0 -87.61,-192.79 -3.78,0 -81.47,184.887 -0.66,0 c -5.52,-52.566 -8.27,-90.715 -10.68,-143.957 -0.67,-13.414 -0.34,-28.902 41.25,-35.793 l 0,-5.137 -95.85,0 0,5.137 c 30.58,5.172 33.64,19.961 38.48,47.774 l 12.7,96.582 4.47,46.738 c 2.08,22.703 -17.53,30.601 -37.79,32.305 l 0,5.171 74.22,0 0.33,-3.785 c -7.57,-7.89 1.7,-28.527 4.13,-34.027 l 65.27,-145.719" /><path
         id="path20"
         style="fill:#ffffff;fill-opacity:1;fill-rule:nonzero;stroke:none"
         d="m 1356.45,604.41 c 41.25,5.524 41.58,15.84 42.56,51.223 l 0,120.98 c -0.98,35.407 -1.31,45.719 -42.56,51.188 l 0,5.172 184.53,0 -4.13,-52.907 -5.13,0 c -2.43,44.313 -34.4,44.676 -69.08,44.676 l -33.34,0 0,-97.949 35.72,0 c 25.78,0 45.38,2.051 49.15,31.59 l 5.16,0 0,-76.621 -5.16,0 c -4.48,30.215 -23.37,30.609 -49.15,30.609 l -35.72,0 0,-56.383 c 0,-20.258 -4.82,-48.453 51.54,-48.453 43.31,0 64.6,16.457 73.19,59.789 l 5.14,0 c -0.33,-26.117 -4.78,-47.429 -11.65,-68.051 l -191.07,0 0,5.137" /><path
         id="path22"
         style="fill:#ffffff;fill-opacity:1;fill-rule:nonzero;stroke:none"
         d="m 1716.61,772.488 -5.49,0 c -5.49,27.836 -14.42,54.649 -48.44,54.649 -22.04,0 -40.22,-15.117 -40.22,-37.821 0,-59.429 108.24,-57.375 108.24,-126.808 0,-44.313 -44,-67.363 -83.49,-67.363 -21.01,0 -42.99,6.179 -60.47,17.527 l -10,58.43 6.16,0 c 8.59,-33.004 31.63,-65.653 69.44,-65.653 25.4,0 45.39,15.114 45.39,41.926 0,61.184 -105.16,55.68 -105.16,124.426 0,40.219 39.86,65.625 76.6,65.625 17.53,0 35.07,-5.133 50.21,-13.375 l -2.77,-51.563" /><path
         id="path24"
         style="fill:#ffffff;fill-opacity:1;fill-rule:nonzero;stroke:none"
         d="m 2020.82,762.176 -5.17,0 c -6.54,38.844 -29.23,66.656 -70.44,66.656 -62.91,0 -98.33,-51.519 -98.33,-110.644 0,-67.731 51.88,-114.774 101.77,-114.774 44.97,0 62.85,32.977 78.32,70.09 l 4.85,-2.066 c -4.17,-20.981 -10.67,-41.586 -18.93,-61.512 -21.98,-10.653 -45.71,-14.781 -70.13,-14.781 -71.84,0 -135.75,41.246 -135.75,118.914 0,61.171 47.78,123.043 138.52,123.043 26.13,0 52.59,-5.172 75.29,-18.567 l 0,-56.359" /><path
         id="path26"
         style="fill:#ffffff;fill-opacity:1;fill-rule:nonzero;stroke:none"
         d="m 2301.29,716.109 c 0,-73.89 -53.61,-120.941 -125.79,-120.941 -72.49,0 -125.8,47.051 -125.8,121.273 0,73.235 53.64,120.668 125.47,120.668 87.99,0 126.12,-59.812 126.12,-121 m -211.7,8.61 c 0,-53.274 28.17,-121.313 90.04,-121.313 56.68,0 81.82,57.739 81.82,106.86 -1.06,60.871 -36.46,118.574 -89.05,118.574 -59.12,0 -82.81,-57.703 -82.81,-104.121" /><path
         id="path28"
         style="fill:#ffffff;fill-opacity:1;fill-rule:nonzero;stroke:none"
         d="m 2577.3,716.109 c 0,-73.89 -53.6,-120.941 -125.77,-120.941 -72.53,0 -125.8,47.051 -125.8,121.273 0,73.235 53.63,120.668 125.47,120.668 87.97,0 126.1,-59.812 126.1,-121 m -211.7,8.61 c 0,-53.274 28.19,-121.313 90.04,-121.313 56.74,0 81.82,57.739 81.82,106.86 -1.05,60.871 -36.45,118.574 -89.05,118.574 -59.06,0 -82.81,-57.703 -82.81,-104.121" /><path
         id="path30"
         style="fill:#ffffff;fill-opacity:1;fill-rule:nonzero;stroke:none"
         d="m 2656.47,655.633 c 1.02,-35.391 1.36,-45.707 45.72,-51.211 l 0,-5.149 -118.61,0 0,5.149 c 41.28,5.504 41.6,15.82 42.62,51.211 l 0,120.98 c -1.02,35.407 -1.34,45.719 -42.62,51.188 l 0,5.179 109.29,0 0,-5.179 c -35.04,-5.469 -35.38,-15.781 -36.4,-51.188 l 0,-120.98 z m 155.34,177.347 0,-5.179 c -39.18,-4.113 -65.3,-37.453 -90.74,-63.906 l -32.3,-34.375 69.77,-76.969 c 20.97,-23.035 45.73,-43.637 76.28,-52.227 l -1.71,-5.179 c -59.8,4.82 -69.41,6.543 -101.75,41.933 l -70.11,76.313 55.35,60.121 c 36.08,40.543 29.2,51.898 6.16,54.289 l 0,5.179 89.05,0" /><path
         id="path32"
         style="fill:#ffffff;fill-opacity:1;fill-rule:nonzero;stroke:none"
         d="m 935.297,510.414 0,-5.141 c -31.274,-3.433 -33.344,-22.71 -34.692,-68.062 l -2.093,-75.254 c -1,-44.375 -19.914,-89.355 -96.207,-89.355 -106.524,0 -95.535,76.992 -95.535,104.453 l 0,76.992 c -1.055,35.43 -1.387,45.703 -42.637,51.226 l 0,5.141 118.594,0 0,-5.141 C 737.68,498.73 737.008,491.855 737.008,454.047 l 0,-70.449 c 0,-6.543 -11.024,-95.215 83.152,-95.215 74.242,0 67.031,70.801 67.031,112.754 l 0,36.074 c 0,43.648 -3.429,63.555 -51.539,68.062 l 0,5.141 99.645,0" /><path
         id="path34"
         style="fill:#ffffff;fill-opacity:1;fill-rule:nonzero;stroke:none"
         d="m 1174.44,330.668 -1.72,125.445 c -0.35,32.66 -9.26,42.285 -48.1,49.16 l 0,5.141 93.77,0 0,-5.141 c -23.7,-3.101 -28.15,-16.168 -30.89,-38.511 -4.82,-37.778 -3.11,-120.625 -1.39,-195.547 l -4.44,-1.059 c -55,64.946 -116.16,125.141 -174.25,187.699 l 0,-63.285 c 0,-85.215 -2.05,-102.73 47.78,-112.691 l 0,-5.195 -102.735,0 0,5.195 c 46.387,4.785 44.648,36.441 44.648,114.414 l 0,51.562 c 0,34.375 -5.492,47.793 -49.129,57.418 l 0,5.141 56.696,0 169.76,-179.746" /><path
         id="path36"
         style="fill:#ffffff;fill-opacity:1;fill-rule:nonzero;stroke:none"
         d="m 1305.92,333.051 c 1.03,-35.371 1.41,-45.703 42.62,-51.196 l 0,-5.171 -115.45,0 0,5.171 c 41.21,5.493 41.59,15.825 42.59,51.196 l 0,120.996 c -1,35.43 -1.38,45.703 -42.59,51.226 l 0,5.141 115.45,0 0,-5.141 c -41.21,-5.523 -41.59,-15.796 -42.62,-51.226 l 0,-120.996" /><path
         id="path38"
         style="fill:#ffffff;fill-opacity:1;fill-rule:nonzero;stroke:none"
         d="m 1614.2,510.414 0,-5.141 c -32.32,-2.769 -42.27,-29.898 -63.57,-79.746 l -65.68,-156.714 -4.79,0 -77.65,185.898 c -10.33,25.137 -18.23,47.129 -48.81,50.562 l 0,5.141 108.94,0 0,-5.141 c -48.47,-4.824 -32.66,-32.324 -23.73,-53.98 l 54.97,-132.656 40.6,97.261 c 29.51,70.469 35.02,81.797 -17.2,89.375 l 0,5.141 96.92,0" /><path
         id="path40"
         style="fill:#ffffff;fill-opacity:1;fill-rule:nonzero;stroke:none"
         d="m 1617.29,281.879 c 41.28,5.469 41.62,15.801 42.62,51.172 l 0,120.996 c -1,35.43 -1.34,45.703 -42.62,51.226 l 0,5.141 184.58,0 -4.12,-52.934 -5.16,0 c -2.43,44.36 -34.4,44.692 -69.1,44.692 l -33.31,0 0,-97.949 35.74,0 c 25.73,0 45.37,2.05 49.13,31.621 l 5.18,0 0,-76.66 -5.18,0 c -4.46,30.234 -23.4,30.566 -49.13,30.566 l -35.74,0 0,-56.352 c 0,-20.25 -4.82,-48.433 51.56,-48.433 43.27,0 64.61,16.48 73.18,59.785 l 5.16,0 c -0.34,-26.113 -4.81,-47.426 -11.68,-68.066 l -191.11,0 0,5.195" /><path
         id="path42"
         style="fill:#ffffff;fill-opacity:1;fill-rule:nonzero;stroke:none"
         d="m 1876.04,439.633 c 0,52.578 -1.72,60.469 -40.21,63.926 l 0,4.785 83.87,2.754 c 86.59,2.754 93.46,-39.512 93.46,-56.016 0,-28.867 -17.86,-45.371 -42.59,-56.391 l 1.7,-2.398 c 26.47,-46.367 59.45,-105.488 116.19,-117.207 l -1.06,-5.117 c -36.44,1.719 -63.23,0.664 -83.16,21.289 -22.69,23.711 -40.55,53.941 -47.76,68.765 -13.77,28.5 -26.13,20.239 -50.19,24.399 l 0,-55.371 c 0,-37.793 0.66,-44.653 47.76,-51.172 l 0,-5.195 -120.62,0 0,5.195 c 41.23,5.469 41.56,15.801 42.61,51.172 l 0,106.582 z m 30.25,-45.395 c 32.99,0.332 71.49,15.473 71.49,53.617 0,40.235 -35.41,56.383 -71.49,56.036 l 0,-109.653" /><path
         id="path44"
         style="fill:#ffffff;fill-opacity:1;fill-rule:nonzero;stroke:none"
         d="m 2218.5,449.926 -5.49,0 c -5.5,27.847 -14.45,54.668 -48.45,54.668 -22.01,0 -40.19,-15.117 -40.19,-37.832 0,-59.453 108.22,-57.383 108.22,-126.836 0,-44.297 -43.99,-67.324 -83.5,-67.324 -20.96,0 -42.99,6.171 -60.52,17.539 l -9.92,58.379 6.15,0 c 8.62,-32.993 31.62,-65.625 69.46,-65.625 25.41,0 45.32,15.093 45.32,41.894 0,61.191 -105.13,55.699 -105.13,124.449 0,40.239 39.84,65.625 76.6,65.625 17.55,0 35.08,-5.133 50.22,-13.394 l -2.77,-51.543" /><path
         id="path46"
         style="fill:#ffffff;fill-opacity:1;fill-rule:nonzero;stroke:none"
         d="m 2319,333.051 c 1.02,-35.371 1.39,-45.703 42.62,-51.196 l 0,-5.171 -115.51,0 0,5.171 c 41.29,5.493 41.62,15.825 42.67,51.196 l 0,120.996 c -1.05,35.43 -1.38,45.703 -42.67,51.226 l 0,5.141 115.51,0 0,-5.141 c -41.23,-5.523 -41.6,-15.796 -42.62,-51.226 l 0,-120.996" /><path
         id="path48"
         style="fill:#ffffff;fill-opacity:1;fill-rule:nonzero;stroke:none"
         d="m 2588.58,521.059 2.72,0 4.82,-64.282 -4.82,-1.011 c -12.02,42.632 -30.89,44.336 -70.42,44.336 l -20.67,0 0,-158.789 c 0,-42.583 2.09,-53.965 48.16,-59.434 l 0,-5.215 -126.48,0 0,5.215 c 46.04,5.469 48.09,16.851 48.09,59.434 l 0,158.789 -20.58,0 c -39.56,0 -58.46,-1.704 -70.51,-44.336 l -4.76,1.011 4.76,64.282 2.78,0 3.44,-3.086 c 8.6,-7.91 9.99,-7.559 21.3,-7.559 l 157.44,0 c 11.32,0 12.69,-0.351 21.29,7.559 l 3.44,3.086" /><path
         id="path50"
         style="fill:#ffffff;fill-opacity:1;fill-rule:nonzero;stroke:none"
         d="m 2823.04,510.414 0,-5.141 c -29.91,-2.418 -44.66,-18.906 -59.12,-43.668 l -40.55,-80.39 0,-38.906 c 0.7,-39.473 1.37,-53.579 45.36,-60.43 l 0,-5.195 -120.99,0 0,5.195 c 44.01,6.851 44.72,20.957 45.37,60.43 l 0,27.539 -35.72,78.007 c -13.07,28.868 -22.35,53.282 -57.08,57.418 l 0,5.141 94.88,0 0,-5.141 c -28.2,-3.804 -24.41,-15.132 -13.38,-39.199 l 34.33,-74.234 29.9,56.719 c 21.3,39.863 18.56,52.91 -11.3,56.714 l 0,5.141 88.3,0" /><path
         id="path52"
         style="fill:#ffffff;fill-opacity:1;fill-rule:nonzero;stroke:none"
         d="m 705.293,201.879 2095.98,0 0,7.01172 -2095.98,0 0,-7.01172 z" /><path
         id="path54"
         style="fill:#ffffff;fill-opacity:1;fill-rule:nonzero;stroke:none"
         d="m 740.742,130.691 20.774,0 56.187,-128.67928 -23.68,0 -12.949,30.85938 -60.433,0 -13.121,-30.85938 -23,0 56.222,128.67928 z m 32.09,-77.9527 -22.07,51.1137 -21.883,-51.1137 43.953,0" /><path
         id="path56"
         style="fill:#ffffff;fill-opacity:1;fill-rule:nonzero;stroke:none"
         d="m 836.742,56.25 0,73.52 22.446,0 0,-72.6411 c 0,-23.707 12.218,-36.5 32.281,-36.5 19.914,0 32.136,12.0508 32.136,35.6211 l 0,73.52 22.426,0 0,-72.4184 C 946.031,19.1602 924.504,0 891.113,0 857.91,0 836.742,19.1602 836.742,56.25" /><path
         id="path58"
         style="fill:#ffffff;fill-opacity:1;fill-rule:nonzero;stroke:none"
         d="m 971.965,20.6289 13.519,16.0508 c 12.215,-10.5313 24.456,-16.5781 40.326,-16.5781 13.85,0 22.59,6.3867 22.59,16.0703 l 0,0.3594 c 0,9.0976 -5.07,14.0585 -28.82,19.5078 -27.182,6.582 -42.506,14.6328 -42.506,38.1601 l 0,0.3711 c 0,21.8987 18.258,37.0317 43.616,37.0317 18.6,0 33.37,-5.661 46.35,-16.071 l -12.03,-16.9724 c -11.51,8.5704 -23,13.1404 -34.7,13.1404 -13.14,0 -20.79,-6.738 -20.79,-15.1599 l 0,-0.3086 c 0,-9.8789 5.83,-14.2696 30.27,-20.1094 27.04,-6.5898 41.08,-16.25 41.08,-37.4102 l 0,-0.3906 c 0,-23.8984 -18.82,-38.10155 -45.63,-38.10155 -19.51,0 -37.935,6.75 -53.275,20.41015" /><path
         id="path60"
         style="fill:#ffffff;fill-opacity:1;fill-rule:nonzero;stroke:none"
         d="m 1129.65,108.969 -40.54,0 0,20.801 103.67,0 0,-20.801 -40.5,0 0,-106.95728 -22.63,0 0,106.95728" /><path
         id="path62"
         style="fill:#ffffff;fill-opacity:1;fill-rule:nonzero;stroke:none"
         d="m 1220.18,129.77 56.92,0 c 16.06,0 28.66,-4.77 36.86,-12.758 6.77,-6.992 10.58,-16.461 10.58,-27.5511 l 0,-0.3789 c 0,-20.9726 -12.58,-33.5937 -30.46,-38.7304 l 34.5,-48.33988 -26.47,0 -31.4,44.52738 -28.13,0 0,-44.52738 -22.4,0 0,127.75828 z m 55.27,-63.3598 c 16.07,0 26.28,8.4609 26.28,21.3984 l 0,0.3633 c 0,13.6871 -9.86,21.1681 -26.45,21.1681 l -32.7,0 0,-42.9298 32.87,0" /><path
         id="path64"
         style="fill:#ffffff;fill-opacity:1;fill-rule:nonzero;stroke:none"
         d="m 1401,130.691 20.8,0 56.22,-128.67928 -23.71,0 -12.97,30.85938 -60.4,0 -13.14,-30.85938 -23,0 56.2,128.67928 z m 32.12,-77.9527 -22.08,51.1137 -21.88,-51.1137 43.96,0" /><path
         id="path66"
         style="fill:#ffffff;fill-opacity:1;fill-rule:nonzero;stroke:none"
         d="m 1503.56,129.77 22.48,0 0,-107.2895 67.15,0 0,-20.46878 -89.63,0 0,127.75828" /><path
         id="path68"
         style="fill:#ffffff;fill-opacity:1;fill-rule:nonzero;stroke:none"
         d="m 1621.48,2.01172 22.4609,0 0,127.758 -22.4609,0 0,-127.758 z" /><path
         id="path70"
         style="fill:#ffffff;fill-opacity:1;fill-rule:nonzero;stroke:none"
         d="m 1726.96,130.691 20.79,0 56.21,-128.67928 -23.69,0 -12.98,30.85938 -60.41,0 -13.12,-30.85938 -22.99,0 56.19,128.67928 z m 32.11,-77.9527 -22.07,51.1137 -21.9,-51.1137 43.97,0" /><path
         id="path72"
         style="fill:#ffffff;fill-opacity:1;fill-rule:nonzero;stroke:none"
         d="m 347.832,1025.34 c 0.773,5.1 0.867,11.17 0,16.96 -0.281,1.84 -0.859,3.66 -1.168,5.53 -0.824,4.9 -0.973,9.48 -0.824,14.19 0.219,4.79 1.293,10.52 3.445,13.73 -4.793,0.73 -11.164,-5.18 -14.594,-10.25 -2.386,-3.52 -4.375,-7.07 -5.683,-11.01 -0.531,-1.44 -0.832,-3.04 -1.332,-4.48 -1.664,-4.63 -4.629,-9.23 -7.793,-12.85 -4.16,-4.59 -9.371,-8.53 -14.067,-12.03 0,0 0,-0.04 -0.019,-0.04 13.578,-2.94 26.223,-8.3 37.5,-15.66 1.738,4.91 3.555,10.21 4.535,15.91" /><path
         id="path74"
         style="fill:#ffffff;fill-opacity:1;fill-rule:nonzero;stroke:none"
         d="m 217.457,1046.93 c 0.703,-1.41 1.602,-2.72 2.285,-4.17 2.082,-4.45 3.27,-9.73 3.528,-14.52 0.363,-6.25 -0.582,-12.72 -1.34,-18.48 l 0,-0.12 c 11.234,7.32 23.922,12.7 37.5,15.56 -2.223,4.7 -4.602,9.75 -8.047,14.4 -3.043,4.19 -7.274,8.52 -11.93,11.92 -1.547,1.14 -3.183,2.08 -4.758,3.16 -4.066,2.87 -7.375,6.06 -10.601,9.45 -3.254,3.55 -6.481,8.38 -7.258,12.17 -3.949,-2.9 -4.262,-11.6 -3.102,-17.62 0.832,-4.15 1.911,-8.03 3.723,-11.75" /><path
         id="path76"
         style="fill:#ffffff;fill-opacity:1;fill-rule:nonzero;stroke:none"
         d="m 301.168,1025.91 -18.746,186.26 -18.766,-186.26 c 6.129,0.99 12.336,1.67 18.766,1.67 6.371,0 12.598,-0.68 18.746,-1.67" /><path
         id="path78"
         style="fill:#ffffff;fill-opacity:1;fill-rule:nonzero;stroke:none"
         d="m 374.063,979.531 35.66,63.929 -63.883,-35.75 c 10.996,-7.59 20.551,-17.136 28.223,-28.179" /><path
         id="path80"
         style="fill:#ffffff;fill-opacity:1;fill-rule:nonzero;stroke:none"
         d="m 219,1007.71 -63.902,35.75 35.644,-63.929 c 7.727,11.043 17.238,20.589 28.258,28.179" /><path
         id="path82"
         style="fill:#ffffff;fill-opacity:1;fill-rule:nonzero;stroke:none"
         d="m 417.871,959.086 c 1.133,1.547 2.027,3.199 3.168,4.711 2.809,4.078 6.024,7.418 9.41,10.605 3.531,3.262 8.364,6.496 12.133,7.293 -2.863,3.918 -11.598,4.278 -17.582,3.102 -4.105,-0.805 -8.008,-1.895 -11.762,-3.734 -1.465,-0.719 -2.718,-1.606 -4.191,-2.301 -4.414,-2.074 -9.699,-3.227 -14.567,-3.496 -6.164,-0.418 -12.64,0.578 -18.445,1.339 l -0.094,0 c 7.325,-11.296 12.672,-23.917 15.543,-37.519 4.711,2.219 9.692,4.633 14.399,8.047 4.18,3.039 8.531,7.246 11.988,11.953" /><path
         id="path84"
         style="fill:#ffffff;fill-opacity:1;fill-rule:nonzero;stroke:none"
         d="m 156.25,981.492 c -1.848,-0.273 -3.676,-0.781 -5.551,-1.129 -4.898,-0.832 -9.539,-0.945 -14.222,-0.769 -4.801,0.156 -10.461,1.304 -13.661,3.383 -0.812,-4.825 5.149,-11.184 10.204,-14.59 3.457,-2.367 7.101,-4.403 10.968,-5.68 1.52,-0.535 3.028,-0.797 4.535,-1.363 4.637,-1.614 9.18,-4.59 12.782,-7.778 4.679,-4.125 8.558,-9.371 12.14,-14 2.879,13.516 8.285,26.184 15.641,37.414 -4.883,1.743 -10.164,3.625 -15.934,4.512 -5.089,0.801 -11.132,0.899 -16.902,0" /><path
         id="path86"
         style="fill:#ffffff;fill-opacity:1;fill-rule:nonzero;stroke:none"
         d="m 282.422,1008.68 c -51.133,0 -92.582,-41.442 -92.582,-92.571 0,-2.851 0.215,-5.648 0.504,-8.429 7.769,2.422 14.761,5.41 20.715,8.855 18.066,10.375 43.293,16.653 71.203,16.672 27.89,-0.019 53.074,-6.297 71.179,-16.672 6.039,-3.496 13.141,-6.531 21.047,-8.969 0.293,2.817 0.508,5.649 0.508,8.543 0,51.129 -41.445,92.571 -92.574,92.571 z m 109.84,-74.375 c 1.004,-5.918 1.656,-12.012 1.656,-18.203 0,-4.34 -0.398,-8.586 -0.934,-12.797 5.946,-0.981 12.161,-1.645 18.582,-1.946 l 82.329,14.731 -101.633,18.215 z M 70.9063,916.09 153.18,901.367 c 6.445,0.317 12.679,0.988 18.644,1.981 -0.515,4.199 -0.91,8.425 -0.91,12.754 0,6.191 0.684,12.285 1.57,18.203 L 70.9063,916.09" /><path
         id="path88"
         style="fill:#ffffff;fill-opacity:1;fill-rule:nonzero;stroke:none"
         d="m 282.273,281.906 c -26.382,0.032 -50.168,-6.023 -66.21,-15.312 -7.586,-4.375 -16.473,-7.957 -26.219,-10.711 37.273,-24.516 71.41,-43.008 92.578,-60.684 21.133,17.664 55.23,36.141 92.465,60.614 -9.828,2.761 -18.782,6.367 -26.426,10.781 -16.102,9.289 -39.824,15.344 -66.188,15.312 z m 208.59,350.989 c -18.125,-10.442 -43.281,-16.692 -71.195,-16.711 -27.949,0.019 -53.105,6.269 -71.215,16.711 -16.094,9.308 -39.832,15.355 -66.183,15.332 -26.387,0.023 -50.168,-6.043 -66.219,-15.332 -18.106,-10.442 -43.285,-16.692 -71.215,-16.711 -27.918,0.019 -53.0938,6.269 -71.1602,16.711 -16.0274,9.246 -39.5,15.253 -65.68752,15.312 C 5.28906,648.199 2.63672,648.09 0,647.961 l 0,-58.469 c 0,-7.898 0.351563,-15.457 0.738281,-22.984 2.210939,0.086 4.429689,0.156 6.687499,0.156 l 0.55469,0 c 0,0 0.16406,0 0.53516,0 2.71877,0.02 5.29297,-0.07 7.84767,-0.187 l 4.7578,-0.204 0,-0.136 c 22.4219,-1.711 42.4219,-7.461 57.5352,-16.125 16.0898,-9.324 39.7967,-15.41 66.1877,-15.379 26.386,-0.031 50.094,6.055 66.226,15.379 18.067,10.383 43.293,16.652 71.192,16.672 27.89,-0.02 53.082,-6.289 71.183,-16.672 16.11,-9.324 39.801,-15.41 66.235,-15.379 26.367,-0.031 50.07,6.055 66.179,15.379 15.004,8.601 34.864,14.343 57.106,16.086 l 0,0.175 4.773,0.204 c 2.578,0.117 5.172,0.187 7.828,0.187 0.497,0 0.723,-0.031 0.723,-0.031 0,0 0.227,0.031 0.742,0.031 2.426,0.02 4.746,-0.07 7.032,-0.168 0.386,7.539 0.722,15.09 0.722,22.996 l 0,58.449 c -2.793,0.149 -5.609,0.254 -8.476,0.266 -26.082,-0.086 -49.512,-6.105 -65.446,-15.312 z M 419.68,432.988 c -27.957,0.024 -53.11,6.282 -71.219,16.711 -16.106,9.309 -39.832,15.344 -66.199,15.324 -26.395,0.02 -50.16,-6.015 -66.207,-15.324 -18.129,-10.429 -43.301,-16.687 -71.211,-16.711 -27.914,0.024 -53.0862,6.282 -71.1721,16.711 -13.9024,8.028 -33.4297,13.582 -55.4453,14.973 10.9257,-34.649 26.1367,-64.484 43.9843,-90.402 5.8946,-2.168 11.5079,-4.551 16.4414,-7.383 16.1055,-9.317 39.8007,-15.403 66.1877,-15.379 26.387,-0.024 50.082,6.062 66.23,15.379 18.063,10.383 43.289,16.66 71.203,16.679 27.872,-0.019 53.079,-6.296 71.184,-16.679 16.106,-9.317 39.785,-15.403 66.211,-15.379 26.383,-0.024 50.082,6.062 66.207,15.398 5.039,2.883 10.789,5.313 16.828,7.512 17.824,25.867 32.973,55.684 43.891,90.281 -22.153,-1.347 -41.813,-6.953 -55.731,-15 -18.125,-10.429 -43.297,-16.687 -71.183,-16.711 z m 136.636,398.543 c -26.082,-0.101 -49.519,-6.09 -65.457,-15.301 -18.105,-10.457 -43.293,-16.687 -71.175,-16.71 -27.973,0.023 -53.118,6.253 -71.227,16.695 -16.094,9.308 -39.824,15.359 -66.195,15.34 -26.371,0.019 -50.16,-6.032 -66.199,-15.325 -18.129,-10.457 -43.309,-16.687 -71.239,-16.71 -27.89,0.023 -53.0779,6.253 -71.1638,16.695 C 57.6484,825.461 34.1641,831.473 8,831.531 5.29297,831.523 2.64063,831.418 0,831.285 l 0,-81.601 c 2.44531,0.097 4.91406,0.175 7.4375,0.175 0.44922,0 0.53125,0 0.53125,0 0,0 0.08203,0 0.53125,0 2.7344,0 5.3047,-0.078 7.832,-0.183 l 4.7891,-0.207 0,-0.156 c 22.4219,-1.704 42.418,-7.461 57.5312,-16.118 16.0938,-9.312 39.7887,-15.414 66.1837,-15.394 26.387,-0.02 50.105,6.082 66.238,15.394 18.047,10.375 43.285,16.664 71.196,16.692 27.89,-0.028 53.074,-6.317 71.175,-16.692 16.118,-9.312 39.793,-15.414 66.223,-15.394 26.371,-0.02 50.09,6.082 66.199,15.394 14.996,8.618 34.863,14.352 57.102,16.11 l 0,0.164 4.789,0.207 c 2.551,0.105 5.137,0.183 7.808,0.183 0.512,0 0.723,-0.019 0.723,-0.019 0,0 0.227,0.019 0.738,0.019 2.715,0 5.262,-0.078 7.758,-0.183 l 0,81.586 c -2.793,0.144 -5.605,0.258 -8.469,0.269" /></g></g></svg>